<svg width="169" height="48" viewBox="0 0 169 48" fill="none" xmlns="http://www.w3.org/2000/svg">
<g clip-path="url(#clip0_721_2335)">
<path d="M145.257 22.585C147.378 22.585 148.196 23.8826 148.31 25.0124C148.311 25.0295 148.309 25.0466 148.304 25.0629C148.298 25.0791 148.29 25.094 148.278 25.1067C148.267 25.1193 148.252 25.1294 148.237 25.1363C148.221 25.1431 148.204 25.1466 148.187 25.1466H142.363C142.346 25.1466 142.329 25.1429 142.313 25.1357C142.297 25.1285 142.283 25.1181 142.271 25.105C142.26 25.092 142.251 25.0766 142.246 25.06C142.241 25.0434 142.24 25.0258 142.242 25.0086C142.399 23.9046 143.377 22.585 145.257 22.585ZM148.45 29.7685C148.411 29.7683 148.373 29.7773 148.338 29.7948C148.304 29.8123 148.274 29.8377 148.251 29.8691C147.726 30.6089 146.871 31.065 145.595 31.065C143.836 31.065 142.31 29.9093 142.145 28.2716C142.143 28.2546 142.145 28.2375 142.151 28.2213C142.156 28.2052 142.165 28.1903 142.176 28.1777C142.188 28.165 142.202 28.1549 142.217 28.148C142.233 28.1411 142.25 28.1375 142.267 28.1374H152.73C152.76 28.0454 152.821 27.344 152.821 26.7028C152.821 21.8232 149.912 18.9253 145.196 18.9253C141.246 18.9253 137.602 22.0359 137.602 26.9165C137.602 32.0109 141.338 34.9998 145.533 34.9998C149.325 34.9998 151.728 32.8781 152.507 30.3137C152.512 30.2984 152.538 30.2026 152.566 30.0627C152.574 30.0271 152.573 29.9903 152.565 29.955C152.556 29.9196 152.54 29.8867 152.517 29.8585C152.494 29.8303 152.465 29.8076 152.432 29.792C152.399 29.7765 152.363 29.7684 152.327 29.7685H148.45ZM157.702 26.8389L152.741 19.7667C152.715 19.73 152.7 19.6869 152.697 19.6423C152.694 19.5976 152.704 19.553 152.725 19.5134C152.745 19.4737 152.777 19.4405 152.815 19.4174C152.853 19.3943 152.897 19.3822 152.942 19.3824H157.82C157.903 19.3824 157.98 19.4236 158.026 19.4926L160.575 23.3737C160.623 23.4475 160.732 23.4465 160.78 23.3718L163.271 19.4955C163.293 19.4608 163.323 19.4323 163.359 19.4125C163.395 19.3928 163.436 19.3824 163.477 19.3824H168.075C168.274 19.3824 168.39 19.6057 168.276 19.7676L163.381 26.654C163.352 26.6949 163.336 26.7439 163.336 26.7942C163.336 26.8445 163.351 26.8936 163.38 26.9348C164.982 29.2155 166.814 31.8508 168.457 34.1575C168.572 34.3194 168.457 34.5418 168.258 34.5418H163.413C163.373 34.5419 163.333 34.532 163.297 34.5129C163.261 34.4939 163.231 34.4662 163.208 34.4325L160.565 30.4249C160.554 30.4081 160.539 30.3943 160.521 30.3848C160.503 30.3753 160.484 30.3703 160.463 30.3703C160.443 30.3703 160.423 30.3753 160.405 30.3848C160.388 30.3943 160.372 30.4081 160.361 30.4249C159.57 31.6017 158.535 33.2404 157.75 34.4325C157.727 34.4663 157.697 34.494 157.661 34.5131C157.625 34.5321 157.585 34.542 157.545 34.5418H153.029C152.985 34.542 152.941 34.53 152.903 34.5071C152.864 34.4842 152.833 34.4512 152.813 34.4117C152.792 34.3723 152.782 34.3279 152.785 34.2834C152.788 34.2389 152.803 34.196 152.828 34.1594L157.703 27.1168C157.731 27.076 157.747 27.0276 157.747 26.9779C157.747 26.9282 157.731 26.8797 157.703 26.8389H157.702ZM131.416 34.2983V12.703C131.416 12.5679 131.526 12.4587 131.661 12.4587H135.826C135.961 12.4587 136.071 12.5679 136.071 12.703V34.2983C136.071 34.4325 135.961 34.5418 135.826 34.5418H131.661C131.629 34.5419 131.597 34.5357 131.568 34.5235C131.538 34.5114 131.511 34.4935 131.488 34.4709C131.465 34.4483 131.447 34.4214 131.435 34.3918C131.422 34.3622 131.416 34.3304 131.416 34.2983ZM124.556 34.2983V12.703C124.556 12.5679 124.666 12.4587 124.802 12.4587H128.966C129.101 12.4587 129.211 12.5679 129.211 12.703V34.2983C129.211 34.4325 129.101 34.5418 128.966 34.5418H124.802C124.77 34.5419 124.738 34.5357 124.708 34.5235C124.678 34.5114 124.651 34.4935 124.629 34.4709C124.606 34.4483 124.588 34.4214 124.575 34.3918C124.563 34.3622 124.556 34.3304 124.556 34.2983ZM114.256 30.973C116.125 30.973 117.717 29.5097 117.717 26.9472C117.717 24.3243 116.155 22.9511 114.256 22.9511C112.266 22.9511 110.765 24.3243 110.765 26.9472C110.765 29.4484 112.327 30.974 114.256 30.974V30.973ZM117.748 32.5897C117.074 34.054 115.543 34.9692 113.644 34.9692C109.173 34.9692 106.08 31.5835 106.08 26.9165C106.08 22.4029 108.99 18.9243 113.491 18.9243C116.216 18.9243 117.41 20.4193 117.717 21.1207V19.6258C117.717 19.4916 117.826 19.3824 117.962 19.3824H121.974C122.108 19.3824 122.218 19.4916 122.218 19.6267V34.2983C122.218 34.4325 122.109 34.5418 121.974 34.5418H117.965C117.933 34.5418 117.901 34.5353 117.871 34.5229C117.841 34.5104 117.814 34.4922 117.791 34.4692C117.769 34.4462 117.751 34.4189 117.738 34.3889C117.726 34.3589 117.72 34.3268 117.721 34.2945C117.728 33.7435 117.748 32.4699 117.748 32.5897ZM96.1474 19.5501L98.937 28.0004C98.9754 28.1154 99.1383 28.1115 99.1709 27.9956L101.554 19.5606C101.569 19.5092 101.599 19.464 101.642 19.4318C101.685 19.3996 101.737 19.3823 101.79 19.3824H105.834C106 19.3824 106.118 19.5415 106.069 19.6986L101.504 34.3702C101.489 34.4202 101.458 34.4639 101.416 34.495C101.374 34.526 101.323 34.5428 101.271 34.5427H97.0032C96.952 34.5426 96.9021 34.5265 96.8605 34.4966C96.8189 34.4667 96.7877 34.4245 96.7713 34.376L93.6376 25.0977C93.5993 24.9865 93.4412 24.9875 93.4048 25.0977L90.3286 34.3741C90.3125 34.4228 90.2814 34.4653 90.2398 34.4954C90.1981 34.5255 90.1481 34.5417 90.0967 34.5418H85.7374C85.6854 34.5418 85.6347 34.5253 85.5926 34.4946C85.5506 34.464 85.5194 34.4207 85.5036 34.3712L80.8798 19.6996C80.8683 19.6629 80.8657 19.6241 80.872 19.5863C80.8784 19.5485 80.8936 19.5126 80.9163 19.4817C80.9391 19.4509 80.9688 19.4258 81.0031 19.4085C81.0374 19.3912 81.0752 19.3823 81.1136 19.3824H85.4336C85.5429 19.3824 85.6396 19.4552 85.6693 19.5606L88.0527 27.9688C88.0852 28.0838 88.2481 28.0876 88.2865 27.9736L91.1058 19.5501C91.1221 19.5012 91.1534 19.4587 91.1951 19.4286C91.2369 19.3985 91.2872 19.3823 91.3387 19.3824H95.9146C96.02 19.3824 96.1148 19.4495 96.1474 19.5501ZM79.6167 23.6583C79.6167 23.694 79.6089 23.7292 79.5938 23.7615C79.5787 23.7938 79.5568 23.8224 79.5295 23.8453C79.5022 23.8682 79.4702 23.8849 79.4358 23.8942C79.4013 23.9034 79.3653 23.905 79.3302 23.8989C78.9392 23.8328 78.5432 23.8013 78.1467 23.8049C76.278 23.8049 74.5943 24.9032 74.5943 27.9228V34.2983C74.5943 34.4325 74.485 34.5418 74.3499 34.5418H70.1851C70.153 34.5419 70.1212 34.5357 70.0915 34.5235C70.0618 34.5114 70.0348 34.4935 70.0121 34.4709C69.9893 34.4483 69.9712 34.4214 69.9588 34.3918C69.9464 34.3622 69.9399 34.3304 69.9398 34.2983V19.6267C69.9398 19.4926 70.049 19.3824 70.1851 19.3824H74.1966C74.3317 19.3824 74.4409 19.4916 74.4409 19.6267V21.4264C75.2373 19.7178 77.1673 19.23 78.392 19.23C78.7638 19.23 79.1357 19.2703 79.426 19.3335C79.5381 19.3584 79.6167 19.4581 79.6167 19.5721V23.6583ZM62.9883 34.2983V19.6267C62.9883 19.4926 63.0985 19.3824 63.2336 19.3824H67.3984C67.5335 19.3824 67.6437 19.4916 67.6437 19.6267V34.2983C67.6437 34.4325 67.5335 34.5418 67.3984 34.5418H63.2336C63.2015 34.5419 63.1697 34.5357 63.14 34.5235C63.1103 34.5114 63.0833 34.4935 63.0605 34.4709C63.0377 34.4483 63.0196 34.4214 63.0073 34.3918C62.9949 34.3622 62.9884 34.3304 62.9883 34.2983ZM65.2853 12.0312C66.8167 12.0312 68.0414 13.2512 68.0414 14.7461C68.0414 16.2411 66.8167 17.461 65.2853 17.461C63.8153 17.461 62.5906 16.2411 62.5906 14.7461C62.5906 13.2512 63.8153 12.0312 65.2853 12.0312ZM48.1567 25.757H53.0785C53.1628 25.757 53.2222 25.6746 53.1935 25.595L50.7632 18.6129C50.755 18.5887 50.7394 18.5677 50.7187 18.5528C50.698 18.5379 50.6731 18.5298 50.6476 18.5297C50.6221 18.5296 50.5972 18.5375 50.5763 18.5522C50.5555 18.5669 50.5397 18.5878 50.5313 18.6119L48.0426 25.595C48.0139 25.6736 48.0733 25.758 48.1576 25.758L48.1567 25.757ZM54.6089 30.1499H46.564C46.5135 30.1499 46.4643 30.1656 46.4231 30.1948C46.3819 30.224 46.3508 30.2652 46.334 30.3128L44.8869 34.3798C44.8701 34.4275 44.8388 34.4688 44.7974 34.498C44.756 34.5272 44.7066 34.5428 44.656 34.5427H40.1002C40.0606 34.5429 40.0215 34.5335 39.9863 34.5152C39.9511 34.497 39.9209 34.4704 39.8983 34.4379C39.8756 34.4054 39.8612 34.3678 39.8564 34.3285C39.8515 34.2891 39.8562 34.2492 39.8702 34.2121L47.8625 13.0739C47.88 13.0274 47.9113 12.9873 47.9523 12.959C47.9932 12.9308 48.0418 12.9157 48.0915 12.9158H53.3564C53.458 12.9158 53.55 12.979 53.5854 13.0748L61.4876 34.2131C61.5012 34.25 61.5056 34.2898 61.5006 34.3288C61.4955 34.3679 61.481 34.4052 61.4584 34.4375C61.4359 34.4698 61.4058 34.4961 61.3708 34.5143C61.3358 34.5324 61.297 34.5419 61.2576 34.5418H56.5169C56.4663 34.5417 56.4169 34.5261 56.3756 34.4969C56.3342 34.4677 56.3029 34.4265 56.2859 34.3788L54.8389 30.3128C54.8219 30.2653 54.7908 30.2241 54.7496 30.195C54.7085 30.1658 54.6593 30.1501 54.6089 30.1499Z" fill="#6E8771"/>
<path fill-rule="evenodd" clip-rule="evenodd" d="M33.9707 21.0289C34.5668 21.6091 34.9803 22.351 35.1603 23.1631C35.3402 23.9753 35.2789 24.8223 34.9837 25.6L32.7345 31.7101C32.1442 33.3143 30.7988 34.5553 29.1361 34.8793C28.3044 35.0457 27.4432 34.9829 26.6444 34.6977C25.8457 34.4124 25.1395 33.9154 24.6014 33.2597L11.1143 17.1008C11.0808 17.0611 11.0374 17.0308 10.9885 17.0131C10.9396 16.9953 10.8869 16.9908 10.8357 16.9998C10.7844 17.0088 10.7365 17.0311 10.6966 17.0645C10.6567 17.0979 10.6262 17.1411 10.6083 17.19L6.22026 29.0585C6.12922 29.3039 6.37071 29.5415 6.61028 29.4438L11.995 27.2445C12.2986 27.1214 12.6243 27.0624 12.9517 27.0711C13.2792 27.0799 13.6013 27.1562 13.8979 27.2953C14.1944 27.4344 14.4591 27.6333 14.6751 27.8795C14.8912 28.1257 15.0541 28.4139 15.1535 28.726C15.5512 29.9459 14.8823 31.2636 13.7046 31.7446L6.67066 34.6167C5.36833 35.1485 3.87242 35.0546 2.69946 34.2717C1.90012 33.7375 1.30418 32.9495 1.00789 32.0348C0.711593 31.1202 0.732246 30.1325 1.06651 29.231L6.25092 15.213C6.86519 13.5513 8.26431 12.3783 9.99405 12.0755C10.8364 11.9246 11.7038 12.0008 12.5069 12.2964C13.3099 12.592 14.0198 13.0963 14.5632 13.7573L22.3044 23.0337L29.4246 20.1252C31.0067 19.4793 32.7489 19.8253 33.9707 21.0289ZM29.8644 25.6882C29.9545 25.4429 29.713 25.2052 29.4734 25.3039L25.5396 26.91L27.899 29.738C27.9324 29.7782 27.9759 29.8089 28.025 29.8269C28.0742 29.845 28.1272 29.8497 28.1787 29.8407C28.2303 29.8316 28.2785 29.8091 28.3186 29.7754C28.3586 29.7417 28.3891 29.6981 28.4069 29.6488L29.8635 25.6882H29.8644Z" fill="url(#paint0_linear_721_2335)"/>
</g>
<defs>
<linearGradient id="paint0_linear_721_2335" x1="0.799805" y1="12" x2="22.0016" y2="43.8084" gradientUnits="userSpaceOnUse">
<stop stop-color="#FF4244"/>
<stop offset="1" stop-color="#FF8E3C"/>
</linearGradient>
<clipPath id="clip0_721_2335">
<rect width="168" height="48" fill="white" transform="translate(0.799805)"/>
</clipPath>
</defs>
</svg>
