<svg width="463" height="316" viewBox="0 0 463 316" fill="none" xmlns="http://www.w3.org/2000/svg">
<path d="M221.228 -15.6572V3.12521L239.211 13.3525L239.211 -6.75546L255.96 -16.2834V3.4718L273.634 -6.57913L290.691 3.11911V21.5489C290.173 21.6826 289.79 22.1447 289.79 22.6981C289.79 22.8075 289.809 22.9109 289.839 23.0081L273.486 32.3112L273.331 32.3963V52.8508L291 42.7999L308.365 52.6805L325.731 42.806L342.788 52.5103V71.9129L325.114 81.9638L342.788 92.0147V112.123L360.617 101.98L360.771 101.895V82.4928L376.662 91.5344C376.637 91.6317 376.613 91.735 376.613 91.8445C376.613 92.3978 376.995 92.8599 377.514 92.9937V131.179L360.302 140.968L360.148 141.053V161.508L377.977 151.366L378.131 151.28V131.525L395.188 121.821L411.937 131.349L395.034 140.962L394.879 141.047V161.502L412.708 151.36L412.862 151.274V112.117L428.753 121.158C428.728 121.255 428.704 121.359 428.704 121.468C428.704 122.022 429.086 122.484 429.605 122.617V141.4L446.637 151.098L429.889 160.626L429.58 160.45V160.802L429.272 160.979L429.58 161.155V180.91L446.088 190.298C446.063 190.396 446.039 190.499 446.039 190.609C446.039 191.265 446.582 191.8 447.248 191.8C447.915 191.8 448.458 191.265 448.458 190.609C448.458 190.055 448.075 189.593 447.557 189.459V171.03L465.237 160.979L447.872 151.104L464.774 141.485L464.929 141.4V121.645L465.237 121.468L464.929 121.292V101.537L447.884 91.8384L464.793 82.2192L464.947 82.1341V61.6796L447.119 71.8217L446.964 71.9068V91.3155L446.952 91.3094V111.417L430.759 120.629C430.611 120.483 430.419 120.374 430.21 120.319V101.537L413.152 91.8384L430.055 82.2253L430.21 82.1401L430.21 62.3788L446.39 53.1731C446.613 53.392 446.915 53.5257 447.248 53.5257C447.915 53.5257 448.458 52.9907 448.458 52.334C448.458 51.7806 448.075 51.3185 447.557 51.1848V13.0241L464.787 3.21643L464.941 3.13129V-17.3232L464.916 -17.305V-36.7258L447.551 -46.6004V-46.953L447.242 -46.7767L446.934 -46.953V-46.6004L429.722 -36.8109L429.568 -36.7258V-16.2713L446.384 -25.8419C446.606 -25.623 446.909 -25.4892 447.242 -25.4892C447.581 -25.4892 447.884 -25.623 448.1 -25.8419L464.003 -16.7942L447.551 -7.43646V-7.45471L429.876 2.59622L412.202 -7.45471V12.6593L395.009 22.4427L394.855 22.5278V41.3102C394.336 41.4439 393.954 41.9061 393.954 42.4594C393.954 43.1161 394.497 43.6511 395.163 43.6511C395.83 43.6511 396.373 43.1161 396.373 42.4594C396.373 42.3499 396.354 42.2466 396.324 42.1493L412.677 32.8463L412.831 32.7611V13.3646L429.562 22.8805V62.0444L412.523 71.7366L394.849 61.6856L394.849 81.7875L378.655 90.9993C378.507 90.8534 378.316 90.7439 378.106 90.6892L378.106 71.9068L361.598 62.5186C361.623 62.4214 361.648 62.318 361.648 62.2085C361.648 62.0991 361.629 61.9957 361.598 61.8985L377.952 52.5954L378.106 52.5103V13.0241L394.201 3.867C394.423 4.17102 394.781 4.37167 395.188 4.37167C395.854 4.37167 396.398 3.83664 396.398 3.17996C396.398 2.62662 396.015 2.16452 395.497 2.03073V-17.3232L378.131 -7.44864V-26.8512L360.148 -37.0785V-16.624L377.187 -6.93176L360.432 2.60229L344.232 -6.60953C344.257 -6.70682 344.282 -6.81018 344.282 -6.91965C344.282 -7.57632 343.739 -8.11139 343.072 -8.11139C342.406 -8.11139 341.863 -7.57632 341.863 -6.91965C341.863 -6.36633 342.245 -5.90421 342.764 -5.77045V32.4085L325.706 42.1128L308.958 32.5848L325.861 22.9716L326.015 22.8865V3.13129L326.324 2.95493L326.015 2.77863V-16.624L343.226 -26.4134L343.381 -26.4986V-46.953L325.552 -36.8109L325.398 -36.7258V-17.3232L308.649 -26.8512V-27.2039L308.341 -27.0276L290.666 -37.0785V-17.9495C290.457 -17.8947 290.265 -17.7853 290.117 -17.6394L273.93 -26.8573V-46.9591L256.564 -37.0845V-37.0906L238.736 -26.9485L238.581 -26.8634V-7.46075L222.691 -16.5024C222.715 -16.5997 222.74 -16.703 222.74 -16.8124C222.74 -17.4691 222.197 -18.0042 221.53 -18.0042C220.864 -18.0042 220.321 -17.4691 220.321 -16.8124C220.321 -16.2531 220.71 -15.797 221.228 -15.6572ZM412.221 150.928L395.472 160.456V141.406L412.221 131.878V150.928ZM447.581 72.2595L464.324 62.7315V81.7814L447.575 91.3094V72.2595H447.581ZM430.191 -17.3293V-36.3792L446.934 -45.9072V-27.8301C446.415 -27.6964 446.033 -27.2343 446.033 -26.681C446.033 -26.5715 446.051 -26.4681 446.082 -26.3708L430.191 -17.3293ZM447.551 -27.8301V-45.9072L464.299 -36.3792V-17.3293L448.408 -26.3708C448.433 -26.4681 448.458 -26.5715 448.458 -26.681C448.458 -27.2343 448.069 -27.6964 447.551 -27.8301ZM256.57 -16.63L273.313 -26.152V-7.10205L256.564 2.42593V-16.63H256.57ZM291.296 -15.6572C291.506 -15.7119 291.697 -15.8153 291.845 -15.9673L307.73 -6.93176L291.29 2.41989V-15.6572H291.296ZM308.044 12.9998V32.0497L292.154 23.0081C292.178 22.9109 292.203 22.8075 292.203 22.6981C292.203 22.1447 291.82 21.6826 291.302 21.5489V3.4718L308.044 12.9998ZM291.296 23.8472C291.506 23.7925 291.697 23.6831 291.845 23.5371L307.73 32.5726L291.29 41.9243V23.8472H291.296ZM308.353 12.4708L291.604 2.94281L299.213 -1.38644L308.353 -6.58524L325.102 2.94281L317.493 7.27206L308.353 12.4708ZM308.044 -7.46075L292.154 -16.5024C292.178 -16.5997 292.203 -16.703 292.203 -16.8124C292.203 -16.9219 292.184 -17.0253 292.154 -17.1226L308.044 -26.1641V-7.46075ZM273.93 32.7551L290.123 23.5432C290.271 23.6891 290.463 23.7986 290.673 23.8533V42.2831L273.93 51.805V32.7551ZM360.129 63.3577L360.129 81.4348L343.381 71.9068V52.8569L359.278 61.8985C359.253 61.9957 359.228 62.0991 359.228 62.2085C359.228 62.7619 359.611 63.224 360.129 63.3577ZM360.129 61.0594C359.92 61.1141 359.728 61.2235 359.58 61.3695L343.695 52.334L360.129 42.9823V61.0594ZM343.078 72.4358L359.827 81.9638L351.613 86.6336L343.078 91.4857L326.33 81.9577L343.078 72.4358ZM360.129 101.543L343.381 111.071V92.0208L360.129 82.4928V101.543ZM377.495 150.928L360.747 160.456V141.406L377.495 131.878V150.928ZM378.112 111.77L383.592 108.651L394.861 102.242V121.292L378.112 130.82V111.77ZM395.478 82.4867L403.852 87.2477L412.227 92.0086V111.059L403.852 106.298L395.478 101.537V82.4867ZM412.221 130.82L395.472 121.292V102.242L403.846 107.003L412.221 111.764V130.82ZM430.203 122.617C430.413 122.563 430.605 122.459 430.753 122.307L446.946 131.519V150.569L430.197 141.041V122.617H430.203ZM430.203 180.558V161.508L446.952 171.036V189.465C446.742 189.52 446.551 189.624 446.403 189.776L430.203 180.558ZM447.254 170.501L430.506 160.973L446.946 151.621L447.254 151.445L447.563 151.621L464.003 160.979L447.254 170.501ZM464.312 141.047L447.563 150.575V131.525L464.312 121.997V141.047ZM464.312 120.939L447.563 111.411V92.3613L464.312 101.889V120.939ZM447.254 111.94L464.003 121.468L456.394 125.797L447.254 130.996L431.055 121.784C431.08 121.687 431.104 121.584 431.104 121.474C431.104 121.365 431.086 121.261 431.055 121.164L447.254 111.94ZM429.586 120.319C429.376 120.374 429.185 120.477 429.037 120.629L412.844 111.417V92.3674L429.592 101.895V120.319H429.586ZM429.586 81.7875L412.838 91.3155V72.2655L429.586 62.7375L429.586 81.7875ZM446.934 51.1787C446.415 51.3125 446.033 51.7746 446.033 52.3279C446.033 52.4373 446.051 52.5407 446.082 52.638L430.191 61.6796V42.6296L446.94 33.1016V51.1787H446.934ZM430.191 22.8744L446.94 13.3464V32.3963L430.191 41.9243V22.8744ZM447.581 -6.74936L464.324 -16.2774V2.77252L447.575 12.3005V-6.74936H447.581ZM446.934 12.6471L430.185 22.1751V3.12521L446.934 -6.40277V12.6471ZM412.221 32.4024L396.027 41.6142C395.879 41.4683 395.688 41.3588 395.478 41.3041V22.8744L412.227 13.3464V32.4024H412.221ZM412.825 12.3066V-6.40277L429.574 3.12521V22.1751L412.844 12.6593V12.3005L412.825 12.3066ZM395.478 62.7375L412.227 72.2655V91.3155L403.852 86.5545L395.478 81.7935L395.478 62.7375ZM394.861 82.4867V101.537L385.289 106.979L378.112 111.059V92.9815C378.631 92.8477 379.013 92.3856 379.013 91.8323C379.013 91.7229 378.995 91.6195 378.964 91.5222L394.861 82.4867ZM377.495 72.2595L377.495 90.6892C377.285 90.7439 377.094 90.8473 376.946 90.9993L360.753 81.7875L360.753 63.3577C360.963 63.303 361.154 63.1996 361.302 63.0476L377.495 72.2595ZM377.495 52.1516L361.302 61.3634C361.154 61.2174 360.963 61.108 360.753 61.0533V42.6235L361.061 42.4472L377.501 33.0956V52.1516H377.495ZM377.495 12.6471L360.747 22.1751V3.12521L377.495 -6.40277V12.6471ZM360.747 22.8744L377.495 13.3464V32.3963L360.747 41.9243V22.8744ZM394.886 -16.2774V2.01859C394.367 2.15234 393.985 2.61447 393.985 3.16779C393.985 3.20425 393.991 3.24072 393.997 3.27722L378.143 12.2945V-6.75546L394.886 -16.2774ZM360.777 -36.0327L377.526 -26.5046V-7.45471L360.777 -16.9827V-36.0327ZM343.387 -5.78259C343.597 -5.83734 343.788 -5.94067 343.936 -6.09268L360.129 3.11911V22.1691L343.381 12.6411V-5.78259H343.387ZM360.129 22.8744V41.9243L343.381 32.3963V13.3464L360.129 22.8744ZM343.078 32.9253L359.827 42.4533L343.085 51.9813L342.776 51.805L326.336 42.4533L343.078 32.9253ZM308.353 51.9813L291.604 42.4533L308.044 33.1016L308.353 32.9253L308.662 33.1016L325.102 42.4533L308.353 51.9813ZM325.404 22.5217L308.655 32.0497V12.9998L325.404 3.4718V22.5217ZM326.021 -36.3853L342.77 -45.9133V-26.8634L326.021 -17.3354V-36.3853ZM325.404 -16.6361V2.41382L308.655 -7.11423V-26.1641L325.404 -16.6361ZM307.736 -26.6871L291.851 -17.6516C291.703 -17.7975 291.512 -17.9069 291.302 -17.9616V-36.0387L307.736 -26.6871ZM290.679 -15.6572V2.41989L273.93 -7.10812V-26.158L289.821 -17.1165C289.796 -17.0192 289.772 -16.9158 289.772 -16.8064C289.778 -16.2531 290.16 -15.797 290.679 -15.6572ZM273.313 -45.9072V-26.8634L256.564 -17.3354V-36.3853L273.313 -45.9072ZM239.205 -26.5107L255.953 -36.0387V-16.9888L239.205 -7.46075V-26.5107ZM238.588 -6.75546L238.588 12.2945L221.839 2.76645V-15.6633C222.049 -15.718 222.24 -15.8213 222.388 -15.9733L238.588 -6.75546ZM-4.81696 108.055L12.5488 117.929L-4.3541 127.543L-4.50839 127.628V147.389L-4.81696 147.565L-4.50839 147.742V167.497L12.5365 177.195L-4.37259 186.814L-4.52689 186.9V207.354L13.3017 197.212L13.456 197.127V177.718L13.4683 177.724V157.616L29.6616 148.404C29.8097 148.55 30.001 148.66 30.2108 148.715V187.246L47.5766 197.121V216.876L64.0845 226.264C64.0537 226.367 64.0352 226.471 64.0352 226.58C64.0352 226.69 64.0537 226.793 64.0845 226.89L47.7309 236.193L47.5766 236.279V255.675L30.8464 246.159L30.8464 206.302L14.0361 215.867C13.8139 215.648 13.5115 215.514 13.1783 215.514C12.5118 215.514 11.9687 216.049 11.9687 216.706C11.9687 217.259 12.3513 217.721 12.8697 217.855L12.8697 256.016L-4.36646 265.823L-4.52072 265.908V286.363L12.8697 276.47V276.488L30.5379 266.437L48.2122 276.488V256.374L65.4052 246.591L65.5594 246.506L65.5594 227.723C66.0778 227.59 66.4604 227.128 66.4604 226.574C66.4604 226.021 66.0778 225.559 65.5594 225.425V206.643L48.1937 196.768V177.365L64.9423 167.837V187.24L82.3081 197.115V197.467L82.6166 197.291L82.9252 197.467V197.115L100.137 187.325L100.291 187.24V166.786L83.4806 176.35C83.2585 176.131 82.9561 175.997 82.6228 175.997C82.2896 175.997 81.981 176.131 81.765 176.35L65.5718 167.138V127.275L47.8975 137.326L30.8403 127.628L13.7831 117.923L30.5317 108.395L30.8403 108.572V108.219L31.1488 108.043L30.8403 107.866V88.1111L13.4745 78.2365V59.8068C13.9929 59.673 14.3755 59.2109 14.3755 58.6576C14.3755 58.0009 13.8324 57.4658 13.166 57.4658C12.4995 57.4658 11.9564 58.0009 11.9564 58.6576C11.9564 58.767 11.9749 58.8704 12.0058 58.9677L-4.34793 68.2707L-4.5022 68.3559V88.8103L12.8636 78.9358V97.9857L-4.81696 108.055ZM12.8389 196.774L-3.90976 206.302V187.252L12.8389 177.724V196.774ZM-3.89127 127.986L12.8574 118.458V137.508L-3.89127 147.036V127.986ZM-3.89127 148.094L12.8574 157.622V176.672L-3.89127 167.144V148.094ZM13.1598 157.093L-3.58887 147.565L4.02023 143.236L13.1598 138.037L29.3592 147.249C29.3345 147.346 29.3098 147.45 29.3098 147.559C29.3098 147.669 29.3283 147.772 29.3592 147.869L13.1598 157.093ZM30.8341 167.138V148.715C31.0439 148.66 31.2352 148.55 31.3833 148.404L39.2022 152.855L47.5766 157.616V176.666L39.2022 171.905L30.8341 167.138ZM30.2293 246.159L13.4807 255.687V236.637L30.2293 227.103L30.2293 246.159ZM30.2293 207.354V226.404L13.4807 235.932L13.4807 217.855C13.9991 217.721 14.3817 217.259 14.3817 216.706C14.3817 216.596 14.3632 216.493 14.3323 216.396L30.2293 207.354ZM12.8389 275.783L-3.90976 285.311V266.261L12.8389 256.733V275.783ZM13.4807 256.386L30.2293 246.858V265.908L13.4807 275.436V256.386ZM47.5951 275.436L30.8464 265.908V246.858L47.5766 256.374V256.733L47.5889 256.727V275.436H47.5951ZM48.1937 255.681V236.631L64.3869 227.419C64.535 227.565 64.7263 227.675 64.9362 227.729L64.9362 246.159L48.1937 255.681ZM64.9423 207.001V225.431C64.7325 225.486 64.5412 225.589 64.3931 225.741L48.1937 216.529V197.479L64.9423 207.001ZM30.8341 186.893V167.844L39.2084 172.604L47.5827 177.365V196.415L30.8341 186.893ZM99.6677 167.844V186.893L82.919 196.421V178.344C83.4374 178.211 83.82 177.749 83.82 177.195C83.82 177.086 83.8015 176.982 83.7707 176.885L99.6677 167.844ZM82.3081 178.344V196.421L65.5594 186.893V167.844L81.4503 176.879C81.4256 176.976 81.4009 177.08 81.4009 177.189C81.4009 177.749 81.7897 178.211 82.3081 178.344ZM64.9423 167.138L48.1937 176.666V157.616L64.9423 148.088V167.138ZM64.9423 147.389L48.1937 156.917V137.867L64.9423 128.339V147.389ZM47.5766 137.861V156.911L39.2022 152.15L31.6857 147.875C31.7104 147.778 31.7351 147.675 31.7351 147.565C31.7351 147.012 31.3525 146.55 30.8341 146.416V128.339L47.5766 137.861ZM30.217 146.416C30.0072 146.471 29.8159 146.574 29.6677 146.726L13.4745 137.514V118.465L30.2231 127.992V146.416H30.217ZM13.4683 117.407L13.1598 117.583L12.8512 117.407L-3.58887 108.055L13.1598 98.5268L29.9084 108.055L13.4683 117.407ZM30.217 107.532L13.4683 98.0039V78.954L30.217 88.482V107.532ZM-3.89127 87.7767V68.7267L12.302 59.5149C12.4501 59.6609 12.6414 59.7703 12.8512 59.825V78.2547L-3.89127 87.7767ZM98.7667 206.825C98.7667 206.934 98.7852 207.038 98.816 207.135L82.4623 216.438L82.3081 216.523L82.3081 256.016L66.2074 265.173C65.9853 264.869 65.6273 264.668 65.22 264.668C64.5535 264.668 64.0105 265.203 64.0105 265.86C64.0105 266.413 64.3931 266.875 64.9115 267.009V286.363L82.2772 276.488V295.891L100.26 306.118V285.658L83.2214 275.965L99.9762 266.431L116.176 275.643C116.151 275.74 116.126 275.844 116.126 275.953C116.126 276.61 116.669 277.145 117.336 277.145C118.002 277.145 118.545 276.61 118.545 275.953C118.545 275.4 118.163 274.938 117.644 274.804V256.727V236.619L134.702 226.915L151.45 236.443L134.547 246.056L134.393 246.141V265.914L134.084 266.091L134.393 266.267V285.664L117.182 295.453L117.027 295.538V315.999L134.856 305.857L135.01 305.772V286.369L151.759 295.897V296.25L152.067 296.073L169.742 306.124V286.995C169.952 286.941 170.143 286.831 170.291 286.685L186.484 295.891V315.993L203.85 306.118V306.124L221.678 295.982L221.833 295.897V276.494L238.581 286.022V286.375L238.89 286.199L239.199 286.375V286.022L256.256 276.324L273.93 286.375V266.261L290.679 256.733V276.142L308.662 286.369L326.027 296.244V276.136L342.202 266.93C342.424 267.149 342.727 267.283 343.06 267.283C343.726 267.283 344.269 266.747 344.269 266.091C344.269 265.434 343.726 264.899 343.06 264.899C342.72 264.899 342.418 265.033 342.202 265.252L326.009 256.04V235.932L308.18 246.074L308.026 246.159V265.562L291.277 256.034V235.932L274.467 245.496C274.319 245.351 274.128 245.241 273.918 245.186V226.404L255.935 216.177V235.932L238.569 226.057V246.512L255.626 256.21L238.884 265.732L221.209 255.681L221.209 275.789L204.461 285.317V246.512L221.672 236.722L221.827 236.637V216.183L205.016 225.747C204.794 225.528 204.492 225.395 204.158 225.395C203.492 225.395 202.949 225.93 202.949 226.586C202.949 227.14 203.332 227.602 203.85 227.736L203.85 246.165L186.638 255.955L186.484 256.04V275.436L169.736 265.908V247.479C170.254 247.345 170.636 246.883 170.636 246.329C170.636 246.22 170.618 246.117 170.587 246.019L186.941 236.716L187.095 236.631L187.095 216.177L169.421 226.228L152.055 216.353L134.689 226.228L117.323 216.353L100.266 226.057V207.98C100.785 207.847 101.167 207.384 101.167 206.831C101.167 206.174 100.624 205.639 99.9577 205.639C99.3098 205.633 98.7667 206.168 98.7667 206.825ZM82.9252 216.876L99.1184 207.664C99.2665 207.81 99.4579 207.919 99.6677 207.974V226.404L99.3591 226.58L82.919 235.932L82.919 216.876H82.9252ZM117.033 255.681L100.285 246.153L100.285 227.103L117.033 236.631V255.681ZM99.6677 246.159L82.919 255.687V236.637L99.6677 227.109L99.6677 246.159ZM82.9252 256.386L99.6739 246.858V265.908L82.9252 275.436V256.386ZM65.5348 285.311V267.015C66.0531 266.881 66.4358 266.419 66.4358 265.866C66.4358 265.829 66.4296 265.793 66.4234 265.756L82.2772 256.739V275.783L65.5348 285.311ZM99.643 305.066L82.8943 295.538V276.488L99.643 286.016V305.066ZM117.033 274.81C116.824 274.865 116.632 274.968 116.484 275.12L100.291 265.908V246.858L117.04 256.386V274.81H117.033ZM152.067 256.563L168.816 266.091L161.207 270.42L152.067 275.619L135.319 266.091L142.928 261.762L152.067 256.563ZM169.125 284.691C168.915 284.745 168.723 284.849 168.575 285.001L152.691 275.965L169.131 266.614V284.691H169.125ZM152.376 276.494L168.267 285.536C168.242 285.633 168.217 285.737 168.217 285.846C168.217 285.955 168.236 286.059 168.267 286.156L152.376 295.198V276.494ZM152.376 256.034V236.984L168.267 246.025C168.242 246.123 168.217 246.226 168.217 246.336C168.217 246.889 168.6 247.351 169.118 247.485V265.562L152.376 256.034ZM169.125 245.18C168.915 245.235 168.723 245.344 168.575 245.49L152.691 236.455L169.131 227.103L169.131 245.18H169.125ZM135.01 246.512L151.759 236.984V256.034L135.01 265.562V246.512ZM134.393 305.419L117.644 314.947V295.897L134.393 286.369V305.419ZM135.01 285.664V266.614L151.759 276.142V295.192L135.01 285.664ZM152.684 295.721L168.569 286.685C168.717 286.831 168.909 286.941 169.118 286.995V305.072L152.684 295.721ZM187.101 314.941V295.891L203.85 286.363V305.413L187.101 314.941ZM239.192 285.317L239.192 266.267L255.941 256.739L255.941 275.789L239.192 285.317ZM273.301 285.317L256.552 275.789V256.739L264.926 261.5L273.301 266.261V285.317ZM256.558 236.984L264.932 241.745L272.449 246.019C272.424 246.117 272.4 246.22 272.4 246.329C272.4 246.883 272.782 247.345 273.301 247.479V265.562L264.926 260.801L256.552 256.04V236.984H256.558ZM291.283 256.739L308.032 266.267V285.317L291.283 275.789V256.739ZM325.392 295.192L308.643 285.664V266.614L325.392 276.142V295.192ZM341.9 266.401L325.7 275.613L308.952 266.085L316.561 261.755L325.7 256.557L341.9 265.775C341.875 265.872 341.85 265.975 341.85 266.085C341.85 266.194 341.869 266.298 341.9 266.401ZM308.643 246.512L325.392 236.984V256.034L308.643 265.562V246.512ZM290.666 236.984V256.034L273.918 265.562V247.485C274.436 247.351 274.819 246.889 274.819 246.336C274.819 246.226 274.8 246.123 274.769 246.025L290.666 236.984ZM256.558 217.235L273.307 226.763V245.192C273.097 245.247 272.906 245.35 272.758 245.503L264.939 241.052L256.564 236.291V217.235H256.558ZM239.192 227.109L255.941 236.637V255.687L239.192 246.159V227.109ZM221.827 256.739L238.575 266.261L238.575 285.317L221.827 275.789L221.827 256.739ZM221.209 276.488V295.544L204.461 305.072V286.022L221.209 276.488ZM187.101 295.186V276.142L203.85 266.614V285.664L187.101 295.186ZM221.209 217.229V236.279L204.461 245.807L204.461 227.729C204.979 227.596 205.362 227.134 205.362 226.58C205.362 226.471 205.343 226.367 205.312 226.27L221.209 217.229ZM187.101 256.386L203.85 246.858V265.908L187.101 275.436V256.386ZM186.484 295.192L170.593 286.156C170.618 286.059 170.643 285.955 170.643 285.846C170.643 285.293 170.26 284.831 169.742 284.697V266.62L186.484 276.142V295.192ZM186.484 236.279L170.291 245.49C170.143 245.344 169.952 245.235 169.742 245.18L169.742 226.751L186.49 217.223L186.49 236.279H186.484ZM152.067 217.052L168.816 226.58L152.376 235.932L152.067 236.108L151.759 235.932L135.319 226.58L152.067 217.052ZM134.084 226.58L117.336 236.108L100.587 226.58L117.336 217.052L134.084 226.58Z" fill="url(#paint0_linear_838_6513)" fill-opacity="0.08"/>
<defs>
<linearGradient id="paint0_linear_838_6513" x1="382.119" y1="-98.0212" x2="72.7147" y2="355.147" gradientUnits="userSpaceOnUse">
<stop stop-color="#26644E"/>
<stop offset="0.1387" stop-color="#D5D6D7"/>
<stop offset="0.3812" stop-color="#E4E5E6"/>
<stop offset="0.5713" stop-color="#0F5454"/>
<stop offset="0.7471" stop-color="#7EA0B3"/>
<stop offset="0.9274" stop-color="#CFCFCF"/>
<stop offset="0.976" stop-color="white"/>
</linearGradient>
</defs>
</svg>
