<svg width="114" height="48" viewBox="0 0 114 48" fill="none" xmlns="http://www.w3.org/2000/svg">
<g clip-path="url(#clip0_721_2338)">
<path d="M48.4375 25.6501C48.4375 30.9734 44.2731 34.896 39.1625 34.896C34.0518 34.896 29.8875 30.9734 29.8875 25.6501C29.8875 20.2894 34.0518 16.4043 39.1625 16.4043C44.2731 16.4043 48.4375 20.2894 48.4375 25.6501ZM44.3773 25.6501C44.3773 22.3236 41.9637 20.0476 39.1625 20.0476C36.3612 20.0476 33.9476 22.3236 33.9476 25.6501C33.9476 28.9433 36.3612 31.2527 39.1625 31.2527C41.9637 31.2527 44.3773 28.9391 44.3773 25.6501Z" fill="#EA4335"/>
<path d="M68.4468 25.6501C68.4468 30.9734 64.2824 34.896 59.1718 34.896C54.0611 34.896 49.8967 30.9734 49.8967 25.6501C49.8967 20.2936 54.0611 16.4043 59.1718 16.4043C64.2824 16.4043 68.4468 20.2894 68.4468 25.6501ZM64.3866 25.6501C64.3866 22.3236 61.973 20.0476 59.1718 20.0476C56.3705 20.0476 53.9569 22.3236 53.9569 25.6501C53.9569 28.9433 56.3705 31.2527 59.1718 31.2527C61.973 31.2527 64.3866 28.9391 64.3866 25.6501Z" fill="#6F8772"/>
<path d="M87.6224 16.9629V33.562C87.6224 40.3901 83.5956 43.1789 78.8351 43.1789C74.3539 43.1789 71.6568 40.1817 70.6397 37.7306L74.1746 36.2591C74.8041 37.7639 76.3465 39.5397 78.8309 39.5397C81.8781 39.5397 83.7665 37.6597 83.7665 34.1206V32.7909H83.6247C82.716 33.9122 80.9652 34.8918 78.7559 34.8918C74.133 34.8918 69.8977 30.865 69.8977 25.6835C69.8977 20.4645 74.133 16.4043 78.7559 16.4043C80.961 16.4043 82.7118 17.3839 83.6247 18.4719H83.7665V16.9671H87.6224V16.9629ZM84.0541 25.6835C84.0541 22.4278 81.8823 20.0476 79.1185 20.0476C76.3173 20.0476 73.9704 22.4278 73.9704 25.6835C73.9704 28.9058 76.3173 31.2527 79.1185 31.2527C81.8823 31.2527 84.0541 28.9058 84.0541 25.6835Z" fill="#4285F4"/>
<path d="M93.9789 7.23364V34.3292H90.0188V7.23364H93.9789Z" fill="#34A853"/>
<path d="M109.411 28.6932L112.563 30.7941C111.546 32.299 109.095 34.8918 104.859 34.8918C99.6069 34.8918 95.6843 30.8317 95.6843 25.646C95.6843 20.1477 99.6403 16.4001 104.405 16.4001C109.203 16.4001 111.55 20.2185 112.317 22.282L112.738 23.3324L100.378 28.4514C101.324 30.3064 102.796 31.2527 104.859 31.2527C106.927 31.2527 108.361 30.2356 109.411 28.6932ZM99.7111 25.3667L107.973 21.936C107.519 20.7813 106.152 19.9768 104.542 19.9768C102.479 19.9768 99.6069 21.7984 99.7111 25.3667Z" fill="#EA4335"/>
<path d="M14.8974 23.2447V19.3221H28.1159C28.2451 20.0058 28.3118 20.8145 28.3118 21.6899C28.3118 24.6329 27.5073 28.272 24.9144 30.8648C22.3925 33.491 19.1702 34.8917 14.9016 34.8917C6.98967 34.8917 0.33667 28.4471 0.33667 20.5352C0.33667 12.6233 6.98967 6.17871 14.9016 6.17871C19.2785 6.17871 22.3966 7.89615 24.7393 10.1347L21.9714 12.9026C20.2915 11.3269 18.0155 10.1013 14.8974 10.1013C9.1198 10.1013 4.60109 14.7576 4.60109 20.5352C4.60109 26.3128 9.1198 30.9691 14.8974 30.9691C18.6449 30.9691 20.7792 29.4642 22.1465 28.0969C23.2553 26.9881 23.9848 25.4041 24.2725 23.2406L14.8974 23.2447Z" fill="#4285F4"/>
</g>
<defs>
<clipPath id="clip0_721_2338">
<rect width="113" height="48" fill="white" transform="translate(0.199951)"/>
</clipPath>
</defs>
</svg>
