<svg width="99" height="48" viewBox="0 0 99 48" fill="none" xmlns="http://www.w3.org/2000/svg">
<g clip-path="url(#clip0_721_2336)">
<g style="mix-blend-mode:luminosity">
<path d="M86.8443 13.4057C80.8437 13.4057 75.9607 18.3154 75.9607 24.351C75.9607 30.3866 80.8437 35.2962 86.8443 35.2962C92.8435 35.2962 97.7251 30.3866 97.7251 24.351C97.7251 18.3154 92.8435 13.4057 86.8443 13.4057ZM86.8443 30.109C83.6884 30.109 81.1181 27.5231 81.1181 24.351C81.1181 21.1774 83.6884 18.593 86.8443 18.593C89.9973 18.593 92.569 21.1774 92.569 24.351C92.569 27.5245 89.9987 30.109 86.8429 30.109H86.8443ZM54.7958 22.1343L52.8928 21.1789C52.0665 20.7674 51.5485 20.4489 51.3402 20.2136C51.1416 20.005 51.0285 19.7294 51.0235 19.4413C51.0235 19.0721 51.1896 18.7607 51.5161 18.5183C51.8399 18.2646 52.3002 18.1491 52.8843 18.1491C53.9527 18.1491 55.1365 18.7945 56.4399 20.0952L59.6521 16.8639C58.8628 15.7879 57.8307 14.9139 56.6398 14.3132C55.4646 13.7213 54.1661 13.4161 52.8505 13.4226C50.8897 13.4226 49.271 14.0018 48.0098 15.1686C46.75 16.3354 46.1165 17.7376 46.1165 19.3821C46.1165 21.9328 47.7845 24.0579 51.1318 25.7447L52.8843 26.6254C54.3947 27.3906 55.1463 28.1699 55.1463 28.976C55.1463 29.4128 54.9366 29.7905 54.52 30.1259C54.1033 30.4627 53.5515 30.6219 52.8674 30.6219C52.234 30.6219 51.5077 30.4035 50.6899 29.9596C49.875 29.5228 49.15 28.9357 48.5531 28.2291L45.3578 31.7295C47.1596 34.097 49.5624 35.2892 52.5831 35.2892C54.8536 35.2892 56.6652 34.6677 58.008 33.4333C59.3593 32.2002 60.035 30.6557 60.035 28.8083C60.035 27.423 59.6605 26.2069 58.9173 25.1739C58.1671 24.141 56.7904 23.1348 54.7958 22.1357V22.1343ZM22.4828 32.9119V13.8411H17.3169V15.1179C15.5762 13.9978 13.5501 13.4034 11.4809 13.4057C5.48168 13.4057 0.600098 18.3154 0.600098 24.351C0.600098 30.3866 5.48168 35.2962 11.4823 35.2962C13.5267 35.2993 15.5298 34.7201 17.2577 33.6263C17.2577 33.794 17.2493 33.9448 17.2493 34.0463C17.2493 37.2184 14.679 39.8043 11.5245 39.8043C10.452 39.8018 9.40192 39.496 8.49538 38.9221L5.94057 43.4217C7.62521 44.4505 9.55967 44.9964 11.533 45C17.5336 45 22.4828 40.0889 22.4828 34.0533C22.4828 33.8194 22.4983 33.1303 22.4828 32.9119ZM11.4823 30.1076C8.32928 30.1076 5.75758 27.5231 5.75758 24.351C5.75758 21.1774 8.32787 18.593 11.4823 18.593C14.6368 18.593 17.2071 21.1774 17.2071 24.351C17.2071 27.5231 14.6368 30.109 11.4823 30.109V30.1076ZM43.0606 13.8341H37.8694V24.2396C37.8778 25.7179 37.8778 28.27 36.7939 29.3607C36.2759 29.8807 35.7087 30.3513 34.515 30.3513C33.3129 30.3513 32.7457 29.8807 32.2291 29.3607C31.1438 28.2685 31.1522 25.7094 31.1593 24.2396V13.8341H25.9694V24.2086C25.9525 26.3478 25.9272 30.3189 28.5313 32.9541C30.0585 34.4986 31.8786 35.2878 34.5066 35.2878C37.136 35.2878 38.9546 34.5071 40.4819 32.9541C43.086 30.3189 43.0606 26.3393 43.0437 24.2086L43.0606 13.8327V13.8341ZM72.4782 29.1775C72.0616 29.496 71.0509 30.202 69.9079 30.0427C68.9733 29.9159 68.2146 29.2282 68.0978 26.9284V18.2999H74.1983V13.8172H68.0978V8H62.9234V9.14145H62.9149V26.2492C62.9149 28.9689 63.599 35.2878 69.8995 35.2878C73.0877 35.2385 75.0232 33.5009 75.834 32.8217L75.9424 32.7371L72.8372 28.8928C72.8287 28.8999 72.612 29.076 72.4782 29.1775Z" fill="#F45D48"/>
</g>
</g>
<defs>
<clipPath id="clip0_721_2336">
<rect width="98" height="48" fill="white" transform="translate(0.600098)"/>
</clipPath>
</defs>
</svg>
