<svg xmlns="http://www.w3.org/2000/svg" width="224" height="28" fill="none"><path fill="#6B9690" d="M111.547 24.129h-7.545V3.957h7.545v20.172zm-6.808-.737h6.071V4.694h-6.071v18.698zm17.307.737h-7.394V3.957h15.447a9.265 9.265 0 0 1 6.21 1.75 6.793 6.793 0 0 1 2.18 5.626 7.167 7.167 0 0 1-1.605 4.973c-1.351 1.55-3.6 2.35-6.683 2.377-.777.021-6.596 0-8.151 0l-.004 5.446zm-6.662-.737h5.925v-5.453h.37c.075 0 7.63.024 8.504 0 2.872-.025 4.937-.737 6.144-2.126a6.472 6.472 0 0 0 1.415-4.482 6.12 6.12 0 0 0-.367-2.753 6.123 6.123 0 0 0-1.549-2.306 8.587 8.587 0 0 0-5.737-1.58h-14.7l-.005 18.7zm13.15-9.24h-7.275V8.66h7.324a3.109 3.109 0 0 1 2.8 1.071c.307.511.452 1.104.415 1.7a3.119 3.119 0 0 1-.346 1.594 3.187 3.187 0 0 1-2.918 1.12v.006zm-6.539-.737h6.539c1.209 0 1.957-.252 2.289-.77.182-.378.265-.795.24-1.214a2.29 2.29 0 0 0-.274-1.264l-.009-.013c-.351-.516-1.048-.756-2.197-.756h-6.588v4.017zm29.941 11.011c-6.617 0-10.566-1.643-12.071-5.022a8.772 8.772 0 0 1-.498-2.025l-.065-.424h7.873l.051.31c.061.313.195.61.389.863.311.376 1.349 1.006 4.791 1.006 4.139 0 4.139-.726 4.139-1.117 0-.659-.479-.884-3.854-1.244l-.641-.06c-1.271-.12-2.877-.271-3.611-.335-6.189-.56-8.952-2.483-8.952-6.233 0-3.94 4.702-6.484 11.981-6.484 5.937 0 9.763 1.565 11.368 4.655.38.719.636 1.497.756 2.302l.051.414h-7.881l-.032-.333a1.256 1.256 0 0 0-.319-.699c-.294-.395-1.226-1.047-4.117-1.047-3.55 0-4.04.454-4.04.943 0 .653 1.122.884 4.716 1.269 1.499.122 3.908.37 4.734.47 5.189.563 7.504 2.439 7.504 6.085.001 3.058-2.128 6.706-12.272 6.706zm-11.773-6.734c.074.486.201.962.379 1.42 1.37 3.079 5.099 4.578 11.394 4.578 5.264 0 11.541-1.032 11.541-5.97 0-3.232-2.049-4.833-6.851-5.353-.826-.1-3.22-.346-4.716-.47-3.832-.415-5.389-.637-5.389-2.001 0-1.412 1.678-1.68 4.776-1.68 2.448 0 4.029.442 4.699 1.333.183.22.322.474.407.746h6.387a6.642 6.642 0 0 0-.604-1.637c-1.474-2.828-5.074-4.26-10.715-4.26-6.831 0-11.245 2.256-11.245 5.747 0 3.33 2.478 4.975 8.281 5.5.737.063 2.342.215 3.615.336l.645.06c3.135.33 4.517.537 4.517 1.976 0 1.55-1.787 1.854-4.875 1.854-2.856 0-4.659-.429-5.356-1.273a2.738 2.738 0 0 1-.478-.906h-6.412zm38.045 6.71c-7.693 0-11.937-3.112-11.937-8.762V3.957h7.445V15.64c0 1.938 1.734 3.05 4.757 3.05 2.888 0 4.682-1.16 4.682-3.025V3.957h7.368v12.302c.008 5.174-4.486 8.142-12.32 8.142h.005zm-11.2-19.708V15.64c0 6.982 7.011 8.024 11.2 8.024 4.329 0 11.59-.962 11.59-7.405V4.694h-5.895v10.971c0 2.285-2.128 3.761-5.418 3.761-3.44 0-5.494-1.415-5.494-3.786V4.694h-5.983zm54.74 19.435h-7.027V15.02l-3.985 9.108h-6.129l-3.943-9.09v9.09h-7.052V3.957h9.275l4.819 11.122 5.052-11.122h8.999l-.009 20.172zm-6.29-.737h5.553V4.694h-7.784l-5.544 12.2-5.285-12.2h-8.055v18.698h5.578V11.493l5.158 11.903h5.158l5.212-11.885.009 11.88zM8.921 4.325H2.21V23.76h18.545v-5.174H8.92V4.326zm25.38-.442c-8.567 0-13.072 4.06-13.072 10.021 0 6.735 4.73 10.151 13.072 10.151 9.184 0 13.046-3.961 13.046-10.15 0-6.286-4.357-10.025-13.046-10.025v.003zm-.025 5.05a13.9 13.9 0 0 1 1.745.102l-7.503 7.503a5.957 5.957 0 0 1-.507-2.553c0-3.049 1.536-5.054 6.265-5.054v.002zm.025 10.151a13.935 13.935 0 0 1-1.682-.094l7.516-7.516c.342.79.506 1.645.48 2.505 0 2.967-1.416 5.102-6.314 5.102v.003zm26.343-2.652h6.908a3.152 3.152 0 0 1-.62 1.311 7.156 7.156 0 0 1-5.1 1.584 6.5 6.5 0 0 1-5.124-1.708 5.501 5.501 0 0 1-.941-3.49 5.374 5.374 0 0 1 1.015-3.64c.965-1.09 2.6-1.56 5.002-1.56a6.817 6.817 0 0 1 4.332 1.114c.403.32.704.75.867 1.238h6.406a6.603 6.603 0 0 0-.57-2.327c-1.535-3.12-5.1-4.977-11.165-4.977-5.274 0-8.814 1.61-10.77 4.037a9.68 9.68 0 0 0-1.882 6.066 10.215 10.215 0 0 0 1.84 6.24c1.931 2.506 5.373 3.738 9.508 3.738 2.749.192 5.48-.578 7.723-2.178l.174 1.88h5.322V12.248H60.644v4.184zm28.03-12.553c-8.566 0-13.072 4.06-13.072 10.02 0 6.736 4.728 10.152 13.072 10.152 9.185 0 13.048-3.962 13.048-10.151 0-6.281-4.358-10.02-13.049-10.02zm-.024 5.05a14.16 14.16 0 0 1 1.7.097l-7.474 7.478a5.98 5.98 0 0 1-.49-2.519c-.007-3.049 1.535-5.056 6.264-5.056zm.023 10.15a13.9 13.9 0 0 1-1.725-.1l7.54-7.542c.355.8.525 1.67.497 2.545.003 2.964-1.406 5.1-6.311 5.1v-.002z"/></svg>