<svg xmlns="http://www.w3.org/2000/svg" width="187" height="40" fill="none"><path fill="#6B9690" d="M29.946 17.827a4.874 4.874 0 0 0-1.397 3.905l-.024-.024a5.783 5.783 0 0 1-1.679 4.583 5.805 5.805 0 0 1-4.59 1.676l.023.024a4.907 4.907 0 0 0-5.294 5.73 4.902 4.902 0 0 0 3.995 3.984 4.92 4.92 0 0 0 5.11-2.4c.502-.876.72-1.885.625-2.89l.026.024a5.783 5.783 0 0 1 1.678-4.583 5.805 5.805 0 0 1 4.591-1.676l-.025-.024a4.913 4.913 0 0 0 4.325-1.89 4.889 4.889 0 0 0-.654-6.666 4.907 4.907 0 0 0-6.706.227h-.004z"/><path fill="#6B9690" d="m20.091 24.848-.025-.024a4.859 4.859 0 0 0 3.915-1.392 4.842 4.842 0 0 0 1.397-3.907l.026.024a5.784 5.784 0 0 1 1.678-4.583 5.804 5.804 0 0 1 4.591-1.675l-.025-.024a4.919 4.919 0 0 0 4.905-2.796 4.896 4.896 0 0 0-.972-5.555 4.916 4.916 0 0 0-7.74 1.036 4.896 4.896 0 0 0-.625 2.89l-.024-.025a5.782 5.782 0 0 1-1.678 4.583 5.802 5.802 0 0 1-4.592 1.676l.024.025a4.858 4.858 0 0 0-3.914 1.392 4.842 4.842 0 0 0-1.398 3.907l-.024-.024a5.785 5.785 0 0 1-1.68 4.582 5.806 5.806 0 0 1-4.59 1.677l.024.023a4.92 4.92 0 0 0-4.905 2.796 4.896 4.896 0 0 0 .972 5.555 4.915 4.915 0 0 0 5.564.97 4.909 4.909 0 0 0 2.801-4.896l.026.024a5.78 5.78 0 0 1 1.678-4.583 5.803 5.803 0 0 1 4.591-1.676z"/><path fill="#6B9690" d="M11.14 22.171a4.869 4.869 0 0 0 1.396-3.905l.026.024a5.781 5.781 0 0 1 1.68-4.584 5.803 5.803 0 0 1 4.592-1.675l-.025-.024a4.919 4.919 0 0 0 4.903-2.796 4.896 4.896 0 0 0-.972-5.552 4.914 4.914 0 0 0-7.738 1.035 4.894 4.894 0 0 0-.625 2.89l-.024-.025a5.782 5.782 0 0 1-1.68 4.583 5.803 5.803 0 0 1-4.59 1.676l.024.024a4.912 4.912 0 0 0-4.325 1.89 4.89 4.89 0 0 0 2.83 7.765 4.915 4.915 0 0 0 4.531-1.326h-.003zM52.517 8.874h3.967v19.27h-3.967V8.874zm6.213 12.672a6.988 6.988 0 0 1 1.168-3.895 7.02 7.02 0 0 1 10.787-1.09 6.992 6.992 0 0 1 1.532 7.627 6.999 6.999 0 0 1-2.581 3.144 7.017 7.017 0 0 1-3.897 1.181 6.939 6.939 0 0 1-4.969-2.015 6.915 6.915 0 0 1-2.04-4.953zm10.05 0a3.035 3.035 0 0 0-1.935-2.746 3.047 3.047 0 0 0-4.096 2.268 3.032 3.032 0 0 0 1.308 3.093 3.05 3.05 0 0 0 1.682.506 2.973 2.973 0 0 0 2.206-.896 2.959 2.959 0 0 0 .836-2.226zm19.777-6.598V27.48c0 4.435-3.464 6.31-6.981 6.31a6.772 6.772 0 0 1-6.267-3.2l3.384-1.954a3.019 3.019 0 0 0 3.015 1.663 2.64 2.64 0 0 0 2.824-1.668c.14-.368.197-.763.164-1.156v-1.207a4.695 4.695 0 0 1-3.862 1.716 6.725 6.725 0 0 1-4.614-2.037 6.701 6.701 0 0 1 0-9.335 6.725 6.725 0 0 1 4.614-2.037 4.704 4.704 0 0 1 3.862 1.716v-1.347l3.861.003zm-3.86 6.334a3.196 3.196 0 0 0-1.885-3.05 3.21 3.21 0 0 0-4.452 2.246 3.195 3.195 0 0 0 1.342 3.324 3.21 3.21 0 0 0 1.796.547 2.996 2.996 0 0 0 2.978-1.849c.158-.386.234-.8.221-1.218zm6.108.264a6.987 6.987 0 0 1 1.167-3.895 7.02 7.02 0 0 1 10.787-1.09 6.994 6.994 0 0 1 1.532 7.627 7.002 7.002 0 0 1-6.478 4.326 6.938 6.938 0 0 1-4.969-2.016 6.915 6.915 0 0 1-2.04-4.953zm10.05 0a3.04 3.04 0 0 0-3.687-2.885 3.045 3.045 0 0 0-2.345 2.407 3.032 3.032 0 0 0 1.309 3.093c.498.33 1.083.506 1.681.506a2.972 2.972 0 0 0 2.206-.896 2.958 2.958 0 0 0 .836-2.226zm5.817-10.14a2.37 2.37 0 0 1 1.469-2.195 2.387 2.387 0 0 1 2.594.515 2.376 2.376 0 0 1 .516 2.589 2.38 2.38 0 0 1-2.199 1.467 2.407 2.407 0 0 1-1.676-.703 2.397 2.397 0 0 1-.704-1.673zm.401 3.537h3.968v13.2h-3.974l.006-13.2zm21.096 6.604a6.613 6.613 0 0 1-1.709 4.796 6.639 6.639 0 0 1-4.612 2.172 4.971 4.971 0 0 1-3.939-1.61v6.52h-3.967V14.948h3.967v1.24a4.966 4.966 0 0 1 3.939-1.61 6.648 6.648 0 0 1 4.613 2.173 6.614 6.614 0 0 1 1.708 4.797zm-3.967 0a3.135 3.135 0 0 0-1.996-2.846 3.154 3.154 0 0 0-3.403.732 3.14 3.14 0 0 0 2.253 5.334 3.022 3.022 0 0 0 2.969-1.973 3.01 3.01 0 0 0 .177-1.247zm16.21 2.638c0 3.036-2.644 4.329-5.499 4.329a5.797 5.797 0 0 1-5.686-3.141l3.436-1.954a2.17 2.17 0 0 0 2.244 1.558c.951 0 1.428-.291 1.428-.818 0-1.453-6.506-.686-6.506-5.253 0-2.879 2.434-4.33 5.184-4.33a5.79 5.79 0 0 1 5.156 2.825l-3.385 1.821a1.92 1.92 0 0 0-1.771-1.161c-.688 0-1.111.266-1.111.738.005 1.506 6.51.502 6.51 5.386zm14.491-9.24v13.2h-3.967v-1.241a4.522 4.522 0 0 1-3.78 1.61c-2.671 0-4.942-1.9-4.942-5.466v-8.103h3.967v7.523a2.18 2.18 0 0 0 .593 1.732 2.18 2.18 0 0 0 1.707.668c1.455 0 2.459-.845 2.459-2.72v-7.2l3.963-.003zm22.746 5.097v8.104h-3.967v-7.76c0-1.32-.634-2.165-1.903-2.165-1.322 0-2.064.924-2.064 2.481v7.444h-3.965v-7.76c0-1.32-.635-2.165-1.905-2.165-1.323 0-2.062.924-2.062 2.481v7.444h-3.968v-13.2h3.968v1.214a4.06 4.06 0 0 1 3.543-1.583 3.94 3.94 0 0 1 3.464 1.741 4.366 4.366 0 0 1 3.835-1.741c3.036.001 5.024 2.165 5.024 5.465zm3.356-5.177a2.941 2.941 0 0 0 2.944-2.938 2.941 2.941 0 0 0-2.944-2.94 2.941 2.941 0 0 0-2.943 2.94 2.941 2.941 0 0 0 2.943 2.938z"/></svg>