<svg xmlns="http://www.w3.org/2000/svg" width="168" height="36" fill="none"><path fill="url(#a)" d="M20.404 16.16v.628c0 4.31-3.584 7.9-8.088 7.9-3.309 0-6.25-1.975-7.445-4.848v-.448c0-4.31 3.585-7.9 8.088-7.9 3.31 0 6.159 1.885 7.445 4.668L20.313 0C9.098 0 0 8.888 0 19.84h4.687V36C15.901 36 25 27.112 25 16.16h-4.596z"/><path fill="#07373A" d="m38.2 25 2.72-14h2.56l3.14 8.26L49.76 11h2.56l2.72 14h-3.06l-1.46-7.56L47.66 25h-2.08l-2.86-7.56L41.26 25H38.2zm22.447.26c-.92 0-1.76-.237-2.52-.71a5.322 5.322 0 0 1-1.81-1.9 5.343 5.343 0 0 1-.67-2.65c0-.733.13-1.417.39-2.05.26-.64.617-1.2 1.07-1.68.46-.487.993-.867 1.6-1.14a4.668 4.668 0 0 1 1.94-.41c.92 0 1.757.237 2.51.71a5.19 5.19 0 0 1 1.81 1.91c.453.8.68 1.687.68 2.66 0 .727-.13 1.407-.39 2.04a5.418 5.418 0 0 1-1.08 1.68c-.454.48-.984.857-1.59 1.13a4.63 4.63 0 0 1-1.94.41zm0-3c.38 0 .72-.103 1.02-.31a2.15 2.15 0 0 0 .72-.82c.173-.347.26-.723.26-1.13 0-.42-.093-.803-.28-1.15a2.127 2.127 0 0 0-.73-.82c-.3-.207-.63-.31-.99-.31a1.75 1.75 0 0 0-1.02.32c-.3.207-.54.483-.72.83a2.49 2.49 0 0 0-.26 1.13c0 .427.09.81.27 1.15.186.34.43.61.73.81.306.2.64.3 1 .3zm15.888-3.65V25h-3v-5.55a1.61 1.61 0 0 0-.23-.85 1.673 1.673 0 0 0-.61-.61 1.61 1.61 0 0 0-.85-.23 1.683 1.683 0 0 0-1.47.84c-.146.253-.22.537-.22.85V25h-3l-.01-10h3l.01.63a3.813 3.813 0 0 1 2.49-.91c.72 0 1.374.177 1.96.53a3.913 3.913 0 0 1 1.4 1.4c.354.587.53 1.24.53 1.96zM88.072 25h-3.46l-2-3.44-1.08 1.28V25h-3V10h3v8.18l2.66-3.18h3.92l-3.44 4.12 3.4 5.88zm4.024.18a5.67 5.67 0 0 1-1.46-.33 4.348 4.348 0 0 1-1.25-.71 3.27 3.27 0 0 1-.87-1.1l2.52-1.08c.066.073.16.167.28.28.12.107.27.203.45.29.186.087.41.13.67.13.173 0 .34-.017.5-.05.166-.04.3-.107.4-.2a.49.49 0 0 0 .16-.39.471.471 0 0 0-.21-.42c-.134-.1-.297-.17-.49-.21a7.076 7.076 0 0 0-.54-.11 5.659 5.659 0 0 1-1.71-.56 4.02 4.02 0 0 1-1.33-1.11c-.347-.46-.52-.997-.52-1.61 0-.687.176-1.28.53-1.78.353-.5.813-.883 1.38-1.15a4.244 4.244 0 0 1 1.85-.41c.78 0 1.5.16 2.16.48.666.32 1.213.78 1.64 1.38l-2.36 1.4c-.08-.1-.18-.2-.3-.3a1.558 1.558 0 0 0-.4-.27 1.304 1.304 0 0 0-.48-.15 2.14 2.14 0 0 0-.63.03.762.762 0 0 0-.43.22c-.107.107-.16.263-.16.47 0 .193.093.333.28.42.186.087.396.15.63.19.233.04.423.083.57.13.573.187 1.113.43 1.62.73.506.3.913.663 1.22 1.09.313.427.46.927.44 1.5 0 .667-.2 1.253-.6 1.76-.4.507-.917.89-1.55 1.15a4.18 4.18 0 0 1-2.01.29zM106.13 25l-3.58-14h3.1l2.16 8.48 2.16-8.48h2.76l2.16 8.48 2.16-8.48h3.1l-3.56 14h-3.38l-1.86-7.26-1.84 7.26h-3.38zm15.331-10h3v10h-3V15zm1.52-1.04c-.434 0-.797-.143-1.09-.43a1.433 1.433 0 0 1-.44-1.07c0-.42.146-.773.44-1.06.293-.293.653-.44 1.08-.44.42 0 .773.147 1.06.44.293.287.44.64.44 1.06 0 .427-.144.783-.43 1.07-.28.287-.634.43-1.06.43zm12.01 4.04-4.2 4h4.2v3h-8.54v-3l4.2-4h-4.2v-3h8.54v3zm8.884-3h3v10h-3.01l-.14-.9c-.247.347-.56.627-.94.84-.373.213-.81.32-1.31.32-.747 0-1.447-.14-2.1-.42a5.461 5.461 0 0 1-2.87-2.88 5.391 5.391 0 0 1-.41-2.1c0-.713.13-1.38.39-2a5.03 5.03 0 0 1 1.09-1.63 5.241 5.241 0 0 1 1.63-1.11 4.98 4.98 0 0 1 1.99-.4c.573 0 1.093.12 1.56.36.473.233.893.527 1.26.88l-.14-.96zm-2.48 7.38c.413 0 .79-.107 1.13-.32.34-.213.61-.5.81-.86.2-.36.3-.76.3-1.2 0-.44-.1-.84-.3-1.2-.2-.36-.47-.647-.81-.86a2.084 2.084 0 0 0-1.13-.32c-.413 0-.79.107-1.13.32-.333.213-.6.5-.8.86a2.5 2.5 0 0 0-.29 1.2c0 .44.1.84.3 1.2.2.36.467.647.8.86.34.213.713.32 1.12.32zm7.498 2.62-.01-10h3l.01.63a3.808 3.808 0 0 1 2.49-.91c.36 0 .726.053 1.1.16l-1.18 3.04a1.718 1.718 0 0 0-1.58.07 1.662 1.662 0 0 0-.83 1.46V25h-3zm14.397-15h3v15h-3v-.92a3.75 3.75 0 0 1-1.1.85c-.42.22-.9.33-1.44.33a5.09 5.09 0 0 1-2.04-.41 5.425 5.425 0 0 1-1.68-1.13 5.436 5.436 0 0 1-1.13-1.68 5.081 5.081 0 0 1-.41-2.04c0-.727.136-1.407.41-2.04.273-.633.65-1.19 1.13-1.67a5.34 5.34 0 0 1 1.68-1.14 5.09 5.09 0 0 1 2.04-.41c.54 0 1.02.11 1.44.33.426.213.793.497 1.1.85V10zm-2.5 12.38c.413 0 .79-.107 1.13-.32.34-.213.61-.5.81-.86.2-.36.3-.76.3-1.2 0-.44-.1-.84-.3-1.2-.2-.36-.47-.647-.81-.86a2.084 2.084 0 0 0-1.13-.32c-.414 0-.79.107-1.13.32-.334.213-.6.5-.8.86-.194.36-.29.76-.29 1.2 0 .44.1.84.3 1.2.2.36.466.647.8.86.34.213.713.32 1.12.32z"/><defs><linearGradient id="a" x1="0" x2="18" y1="7.5" y2="28" gradientUnits="userSpaceOnUse"><stop stop-color="#57EA57"/><stop offset="1" stop-color="#17B5BE"/></linearGradient></defs></svg>