<svg xmlns="http://www.w3.org/2000/svg" width="182" height="40" fill="none"><path fill="#6B9690" d="M53.311 26.696c0 .873-.18 1.544-.54 2.013-.35.469-.937.703-1.759.703-.776 0-1.325-.234-1.648-.703-.314-.469-.47-1.14-.47-2.013V12.124c0-.873.156-1.544.47-2.013.323-.469.872-.703 1.648-.703.822 0 1.408.234 1.759.703.36.469.54 1.14.54 2.013v14.572zm1.341-4.233c0-.975.157-1.894.47-2.758a6.431 6.431 0 0 1 1.441-2.288c.646-.653 1.45-1.172 2.41-1.558.97-.386 2.105-.58 3.407-.58 1.246 0 2.35.18 3.31.538.96.359 1.768.86 2.424 1.503a6.272 6.272 0 0 1 1.495 2.275c.342.873.513 1.829.513 2.868 0 .965-.162 1.88-.485 2.743a6.392 6.392 0 0 1-1.454 2.261c-.647.644-1.454 1.158-2.424 1.544-.97.377-2.096.566-3.38.566-1.264 0-2.381-.18-3.35-.538-.961-.368-1.769-.869-2.424-1.503a6.389 6.389 0 0 1-1.468-2.26 8.038 8.038 0 0 1-.485-2.813zm4.612 0c0 .606.055 1.185.166 1.737.11.542.286 1.02.526 1.434.25.413.573.744.97.992.397.24.881.359 1.454.359.526 0 .983-.11 1.37-.331a2.65 2.65 0 0 0 .97-.924 4.41 4.41 0 0 0 .582-1.42c.13-.56.194-1.176.194-1.847 0-.607-.06-1.181-.18-1.724a4.501 4.501 0 0 0-.54-1.447 2.784 2.784 0 0 0-.97-.993c-.387-.248-.863-.372-1.426-.372s-1.043.12-1.44.358a2.82 2.82 0 0 0-.97.98 4.45 4.45 0 0 0-.54 1.447 8.876 8.876 0 0 0-.166 1.75zm22.226 4.289c-.249.46-.553.85-.913 1.172a4.95 4.95 0 0 1-1.177.8 6.012 6.012 0 0 1-1.372.455 7.94 7.94 0 0 1-1.482.138c-.849 0-1.625-.152-2.326-.456a5.125 5.125 0 0 1-1.814-1.31c-.499-.578-.887-1.286-1.164-2.122-.277-.837-.415-1.793-.415-2.868 0-1.011.129-1.958.388-2.84.258-.883.632-1.65 1.121-2.302a5.463 5.463 0 0 1 1.829-1.545c.72-.376 1.541-.565 2.465-.565 1.052 0 1.985.202 2.797.607.822.404 1.528 1.066 2.12 1.985v-.358c0-.662.18-1.159.54-1.49.369-.34.876-.51 1.523-.51.388 0 .715.065.983.194.268.119.48.303.637.551.157.239.268.538.332.896.074.35.111.75.111 1.2v9.237c0 1.121-.143 2.123-.429 3.005-.277.883-.711 1.627-1.302 2.234-.59.606-1.348 1.066-2.271 1.378-.923.322-2.022.483-3.296.483-.896 0-1.69-.041-2.382-.124a9.301 9.301 0 0 1-1.773-.345c-.499-.175-.877-.367-1.136-.579a1.033 1.033 0 0 1-.374-.827c0-.193.028-.377.083-.552.056-.174.139-.33.25-.468.12-.129.272-.235.457-.317a2 2 0 0 1 .706-.11c.295 0 .59.018.886.054.305.037.619.074.942.11.332.047.679.088 1.039.125.37.037.766.055 1.19.055.509 0 .961-.05 1.358-.152.397-.1.734-.28 1.011-.537.277-.258.49-.602.637-1.034.148-.423.222-.965.222-1.627v-1.64zm0-4.287c0-.672-.05-1.283-.151-1.834-.093-.552-.254-1.02-.485-1.407a2.38 2.38 0 0 0-.928-.91c-.388-.22-.873-.33-1.454-.33-.573 0-1.048.115-1.427.344-.37.23-.665.547-.886.952a4.518 4.518 0 0 0-.471 1.42 11.489 11.489 0 0 0-.125 1.737c0 1.406.25 2.463.748 3.17.499.709 1.223 1.062 2.174 1.062a3.162 3.162 0 0 0 1.205-.248c.37-.165.688-.418.956-.758s.475-.772.623-1.296c.148-.524.222-1.158.222-1.902zm5.455-.002c0-.975.157-1.894.47-2.758a6.432 6.432 0 0 1 1.441-2.288c.646-.653 1.45-1.172 2.41-1.558.97-.386 2.105-.58 3.407-.58 1.246 0 2.35.18 3.31.538.96.359 1.768.86 2.423 1.503a6.257 6.257 0 0 1 1.496 2.275c.342.873.513 1.829.513 2.868a7.77 7.77 0 0 1-.485 2.743 6.394 6.394 0 0 1-1.454 2.261c-.647.644-1.454 1.158-2.424 1.544-.97.377-2.096.566-3.38.566-1.264 0-2.381-.18-3.35-.538-.961-.368-1.769-.869-2.425-1.503a6.39 6.39 0 0 1-1.468-2.26 8.04 8.04 0 0 1-.484-2.813zm4.612 0c0 .606.055 1.185.166 1.737.11.542.286 1.02.526 1.434.25.413.573.744.97.992.397.24.881.359 1.454.359.526 0 .983-.11 1.37-.331a2.65 2.65 0 0 0 .97-.924 4.41 4.41 0 0 0 .582-1.42c.13-.56.194-1.176.194-1.847 0-.607-.06-1.181-.18-1.724a4.496 4.496 0 0 0-.54-1.447 2.784 2.784 0 0 0-.97-.993c-.388-.248-.863-.372-1.426-.372s-1.044.12-1.44.358a2.82 2.82 0 0 0-.97.98 4.45 4.45 0 0 0-.54 1.447 8.875 8.875 0 0 0-.166 1.75zm16.796-11.827c0 .304-.069.575-.207.814a1.91 1.91 0 0 1-.541.579 2.49 2.49 0 0 1-.775.358 3.551 3.551 0 0 1-1.814-.013 2.51 2.51 0 0 1-.762-.359 1.885 1.885 0 0 1-.526-.593 1.567 1.567 0 0 1-.194-.786c0-.266.06-.51.18-.73.129-.23.3-.428.512-.593.212-.165.466-.294.762-.386.295-.092.618-.138.969-.138.305 0 .6.041.887.124a2.5 2.5 0 0 1 .775.359c.222.156.397.349.527.579.138.23.207.491.207.785zm-.207 16.062c0 .873-.18 1.544-.541 2.013-.35.469-.937.703-1.758.703-.776 0-1.325-.234-1.649-.703-.313-.469-.47-1.14-.47-2.013V18.26c0-.873.157-1.544.47-2.012.324-.469.873-.704 1.649-.704.821 0 1.408.235 1.758.704.361.468.541 1.14.541 2.012v8.438zm6.369-4.261c0 .616.046 1.19.138 1.723.102.533.268 1.002.499 1.407a2.7 2.7 0 0 0 .942.937c.397.23.886.345 1.468.345.535 0 .983-.11 1.343-.331a2.56 2.56 0 0 0 .887-.938 4.51 4.51 0 0 0 .47-1.42c.102-.542.153-1.13.153-1.764 0-.506-.037-1.02-.112-1.545a4.97 4.97 0 0 0-.414-1.447 2.839 2.839 0 0 0-.845-1.062c-.361-.275-.831-.413-1.413-.413-.582 0-1.076.091-1.482.275-.397.184-.72.465-.969.841-.241.377-.411.85-.513 1.42a11.253 11.253 0 0 0-.152 1.972zm-.014-4.178a4.69 4.69 0 0 1 .886-1.282 5.446 5.446 0 0 1 2.549-1.475c.48-.129.955-.193 1.426-.193.849 0 1.616.189 2.299.565a5.37 5.37 0 0 1 1.745 1.545c.489.643.864 1.406 1.122 2.288.258.873.388 1.81.388 2.813 0 1.038-.139 1.99-.416 2.853-.267.864-.651 1.609-1.15 2.234a5.268 5.268 0 0 1-1.773 1.448c-.683.349-1.444.523-2.284.523-1.034 0-1.958-.239-2.77-.717-.813-.477-1.487-1.148-2.022-2.012v4.963c0 .873-.18 1.544-.54 2.013-.351.468-.937.703-1.759.703-.776 0-1.325-.235-1.648-.703-.314-.469-.471-1.14-.471-2.013V18.259c0-.873.157-1.544.471-2.012.323-.47.872-.704 1.648-.704.822 0 1.408.235 1.759.704.36.468.54 1.14.54 2.012zm15.287.978c0 .358.157.638.471.84.314.194.748.354 1.302.483.526.12 1.066.235 1.62.345.555.11 1.095.239 1.621.386.525.138 1.019.303 1.482.496.46.193.867.437 1.218.73.351.286.628.635.831 1.049.203.404.305.891.305 1.461 0 .717-.148 1.356-.443 1.916a4.072 4.072 0 0 1-1.26 1.407c-.536.386-1.177.684-1.925.896a9.467 9.467 0 0 1-2.48.33 18 18 0 0 1-2.479-.165c-.793-.1-1.5-.262-2.119-.482-.609-.221-1.098-.492-1.468-.814-.369-.33-.553-.717-.553-1.158 0-.386.124-.685.373-.896.25-.211.567-.317.956-.317.148 0 .323.027.526.083.203.055.424.124.664.206.24.083.494.175.763.276.276.092.562.175.858.248.37.102.748.184 1.135.249.397.055.804.082 1.22.082.258 0 .512-.023.761-.069a2.68 2.68 0 0 0 .665-.234 1.58 1.58 0 0 0 .499-.414 1.19 1.19 0 0 0 .235-.606c.028-.056.051-.11.069-.166a.592.592 0 0 0 .028-.193c0-.257-.12-.487-.36-.69-.231-.201-.559-.362-.983-.482-.712-.165-1.39-.317-2.037-.455a29.183 29.183 0 0 1-1.8-.44 11.389 11.389 0 0 1-1.496-.538 4.204 4.204 0 0 1-1.136-.745 3.2 3.2 0 0 1-.719-1.062c-.167-.413-.25-.914-.25-1.502 0-.635.143-1.2.429-1.696a3.7 3.7 0 0 1 1.261-1.268c.545-.34 1.205-.598 1.981-.772.775-.184 1.652-.276 2.631-.276 1.754 0 3.088.211 4.003.634.923.414 1.385.956 1.385 1.627 0 .377-.126.666-.375.868-.249.193-.549.29-.899.29-.186 0-.38-.032-.583-.097a10.607 10.607 0 0 0-.705-.234 6.708 6.708 0 0 0-.998-.234 7.572 7.572 0 0 0-1.412-.11c-.426 0-.813.018-1.164.054a3.74 3.74 0 0 0-.887.193c-.24.092-.429.216-.567.373a.895.895 0 0 0-.194.593zm14.47 5.061c0 .432.056.809.167 1.13.119.322.281.593.484.814.203.211.439.372.706.482.277.102.573.152.886.152.37 0 .726-.055 1.067-.165.342-.11.642-.28.901-.51.267-.23.48-.52.637-.869.156-.35.235-.758.235-1.227V18.26c0-.873.157-1.544.47-2.012.324-.47.874-.704 1.649-.704.821 0 1.408.235 1.759.704.36.468.54 1.14.54 2.012v8.438c0 .873-.18 1.544-.54 2.013-.351.469-.938.703-1.759.703-.775 0-1.325-.234-1.649-.703-.313-.469-.47-1.14-.47-2.013a4.581 4.581 0 0 1-.762 1.158c-.305.35-.664.653-1.08.91a5.295 5.295 0 0 1-1.357.579 5.856 5.856 0 0 1-1.593.207 5.126 5.126 0 0 1-1.787-.317 4.444 4.444 0 0 1-1.495-.965 4.762 4.762 0 0 1-1.039-1.6c-.259-.634-.388-1.374-.388-2.22v-6.19c0-.873.158-1.544.471-2.012.324-.47.872-.704 1.648-.704.822 0 1.408.235 1.759.704.36.468.54 1.14.54 2.012v6.039zm11.507-6.038c0-.874.157-1.545.472-2.013.322-.47.872-.704 1.647-.704.823 0 1.409.235 1.76.704.359.468.54 1.14.54 2.012.184-.44.434-.84.748-1.199a5.07 5.07 0 0 1 1.093-.938 5.35 5.35 0 0 1 1.344-.592 5.234 5.234 0 0 1 2.908-.028c.471.12.906.317 1.303.593a4.17 4.17 0 0 1 1.066 1.02c.305.414.54.91.707 1.49a6.055 6.055 0 0 1 1.01-1.559 5.214 5.214 0 0 1 1.26-1.02 5.124 5.124 0 0 1 1.413-.551c.499-.11.996-.166 1.495-.166.591 0 1.155.106 1.69.317a3.86 3.86 0 0 1 1.427.965c.416.423.743.96.983 1.613.249.644.373 1.397.373 2.261v6.232c0 .873-.179 1.544-.54 2.013-.349.469-.937.703-1.758.703-.775 0-1.325-.234-1.648-.703-.314-.469-.471-1.14-.471-2.013v-6.039c0-.413-.056-.78-.166-1.103a2.266 2.266 0 0 0-.471-.827 1.78 1.78 0 0 0-.693-.51 2.08 2.08 0 0 0-.858-.18c-.379 0-.738.06-1.08.18-.341.12-.642.303-.9.552-.25.248-.453.565-.61.95-.148.387-.221.851-.221 1.393v5.584c0 .873-.181 1.544-.54 2.013-.351.469-.938.703-1.76.703-.775 0-1.325-.234-1.648-.703-.314-.469-.471-1.14-.471-2.013V20.92c0-.946-.199-1.663-.595-2.15-.388-.488-.919-.731-1.593-.731-.397 0-.767.064-1.108.193a2.483 2.483 0 0 0-.887.565 2.715 2.715 0 0 0-.595.924 3.59 3.59 0 0 0-.207 1.268v5.708c0 .873-.181 1.544-.54 2.013-.351.469-.937.703-1.76.703-.775 0-1.325-.234-1.647-.703-.315-.469-.472-1.14-.472-2.013v-8.438zM20.09 27.06c-3.916 0-7.09-3.16-7.09-7.058 0-3.899 3.174-7.06 7.09-7.06 3.917 0 7.091 3.161 7.091 7.06 0 3.898-3.174 7.059-7.09 7.059z"/><path fill="#6B9690" d="M6.354 22.413c-2.055.36-3.463 2.336-2.675 4.26a17.653 17.653 0 0 0 5.136 6.945 17.778 17.778 0 0 0 11.586 4.028 17.773 17.773 0 0 0 11.437-4.428 17.647 17.647 0 0 0 4.889-7.12c.72-1.95-.756-3.875-2.822-4.164-2.067-.29-3.922 1.208-4.942 3.02a10.131 10.131 0 0 1-2.132 2.63 10.197 10.197 0 0 1-6.562 2.54 10.2 10.2 0 0 1-6.647-2.31 10.136 10.136 0 0 1-2.223-2.555c-1.084-1.775-2.99-3.207-5.045-2.846z"/><path fill="#6B9690" d="M37.68 22.203c.091-.723.138-1.459.138-2.206 0-9.746-7.937-17.647-17.727-17.647S2.363 10.251 2.363 19.997c0 .959.077 1.9.225 2.816a5.535 5.535 0 0 1 3.458-2.142c1.485-.261 2.835.098 3.976.768a10.083 10.083 0 0 1-.103-1.442c0-5.592 4.554-10.125 10.172-10.125 5.617 0 10.17 4.533 10.17 10.125 0 .369-.02.733-.058 1.091 1.117-.71 2.454-1.115 3.948-.906 1.38.193 2.677.94 3.53 2.02z"/></svg>