<svg width="161" height="37" viewBox="0 0 161 37" fill="none" xmlns="http://www.w3.org/2000/svg">
<path d="M20.4044 16.6596C20.4044 16.8392 20.4044 17.0187 20.4044 17.288C20.4044 21.5973 16.8199 25.1883 12.3162 25.1883C9.00735 25.1883 6.06617 23.2132 4.87132 20.3404C4.87132 20.1608 4.87132 20.0711 4.87132 19.8915C4.87132 15.5823 8.45587 11.9913 12.9595 11.9913C16.2684 11.9913 19.1176 13.8766 20.4044 16.6596L20.3125 0.5C9.09925 0.5 0 9.38778 0 20.3404H4.68748V36.5C15.9007 36.5 25 27.6122 25 16.6596H20.4044Z" fill="url(#paint0_linear_7229_1885)"/>
<path d="M38.2 25.5L40.92 11.5H43.48L46.62 19.76L49.76 11.5H52.32L55.04 25.5H51.98L50.52 17.94L47.66 25.5H45.58L42.72 17.94L41.26 25.5H38.2ZM60.6469 25.76C59.7269 25.76 58.8869 25.5233 58.1269 25.05C57.3735 24.5767 56.7702 23.9433 56.3169 23.15C55.8702 22.35 55.6469 21.4667 55.6469 20.5C55.6469 19.7667 55.7769 19.0833 56.0369 18.45C56.2969 17.81 56.6535 17.25 57.1069 16.77C57.5669 16.2833 58.1002 15.9033 58.7069 15.63C59.3135 15.3567 59.9602 15.22 60.6469 15.22C61.5669 15.22 62.4035 15.4567 63.1569 15.93C63.9169 16.4033 64.5202 17.04 64.9669 17.84C65.4202 18.64 65.6469 19.5267 65.6469 20.5C65.6469 21.2267 65.5169 21.9067 65.2569 22.54C64.9969 23.1733 64.6369 23.7333 64.1769 24.22C63.7235 24.7 63.1935 25.0767 62.5869 25.35C61.9869 25.6233 61.3402 25.76 60.6469 25.76ZM60.6469 22.76C61.0269 22.76 61.3669 22.6567 61.6669 22.45C61.9735 22.2433 62.2135 21.97 62.3869 21.63C62.5602 21.2833 62.6469 20.9067 62.6469 20.5C62.6469 20.08 62.5535 19.6967 62.3669 19.35C62.1869 19.0033 61.9435 18.73 61.6369 18.53C61.3369 18.3233 61.0069 18.22 60.6469 18.22C60.2735 18.22 59.9335 18.3267 59.6269 18.54C59.3269 18.7467 59.0869 19.0233 58.9069 19.37C58.7335 19.7167 58.6469 20.0933 58.6469 20.5C58.6469 20.9267 58.7369 21.31 58.9169 21.65C59.1035 21.99 59.3469 22.26 59.6469 22.46C59.9535 22.66 60.2869 22.76 60.6469 22.76ZM76.5353 19.11V25.5H73.5353V19.95C73.5353 19.6367 73.4586 19.3533 73.3053 19.1C73.152 18.84 72.9486 18.6367 72.6953 18.49C72.442 18.3367 72.1586 18.26 71.8453 18.26C71.532 18.26 71.2453 18.3367 70.9853 18.49C70.732 18.6367 70.5286 18.84 70.3753 19.1C70.2286 19.3533 70.1553 19.6367 70.1553 19.95V25.5H67.1553L67.1453 15.5H70.1453L70.1553 16.13C70.4886 15.8433 70.8686 15.62 71.2953 15.46C71.722 15.3 72.172 15.22 72.6453 15.22C73.3653 15.22 74.0186 15.3967 74.6053 15.75C75.192 16.0967 75.6586 16.5633 76.0053 17.15C76.3586 17.7367 76.5353 18.39 76.5353 19.11ZM88.072 25.5H84.612L82.612 22.06L81.532 23.34V25.5H78.532V10.5H81.532V18.68L84.192 15.5H88.112L84.672 19.62L88.072 25.5ZM92.0956 25.68C91.589 25.6333 91.1023 25.5233 90.6356 25.35C90.169 25.1767 89.7523 24.94 89.3856 24.64C89.019 24.34 88.729 23.9733 88.5156 23.54L91.0356 22.46C91.1023 22.5333 91.1956 22.6267 91.3156 22.74C91.4356 22.8467 91.5856 22.9433 91.7656 23.03C91.9523 23.1167 92.1756 23.16 92.4356 23.16C92.609 23.16 92.7756 23.1433 92.9356 23.11C93.1023 23.07 93.2356 23.0033 93.3356 22.91C93.4423 22.8167 93.4956 22.6867 93.4956 22.52C93.4956 22.3333 93.4256 22.1933 93.2856 22.1C93.1523 22 92.989 21.93 92.7956 21.89C92.6023 21.8433 92.4223 21.8067 92.2556 21.78C91.6623 21.6867 91.0923 21.5 90.5456 21.22C90.0056 20.9333 89.5623 20.5633 89.2156 20.11C88.869 19.65 88.6956 19.1133 88.6956 18.5C88.6956 17.8133 88.8723 17.22 89.2256 16.72C89.579 16.22 90.039 15.8367 90.6056 15.57C91.179 15.2967 91.7956 15.16 92.4556 15.16C93.2356 15.16 93.9556 15.32 94.6156 15.64C95.2823 15.96 95.829 16.42 96.2556 17.02L93.8956 18.42C93.8156 18.32 93.7156 18.22 93.5956 18.12C93.4823 18.0133 93.349 17.9233 93.1956 17.85C93.049 17.77 92.889 17.72 92.7156 17.7C92.4823 17.68 92.2723 17.69 92.0856 17.73C91.9056 17.7633 91.7623 17.8367 91.6556 17.95C91.549 18.0567 91.4956 18.2133 91.4956 18.42C91.4956 18.6133 91.589 18.7533 91.7756 18.84C91.9623 18.9267 92.1723 18.99 92.4056 19.03C92.639 19.07 92.829 19.1133 92.9756 19.16C93.549 19.3467 94.089 19.59 94.5956 19.89C95.1023 20.19 95.509 20.5533 95.8156 20.98C96.129 21.4067 96.2756 21.9067 96.2556 22.48C96.2556 23.1467 96.0556 23.7333 95.6556 24.24C95.2556 24.7467 94.739 25.13 94.1056 25.39C93.4723 25.65 92.8023 25.7467 92.0956 25.68ZM99.6269 25.5L96.0469 11.5H99.1469L101.307 19.98L103.467 11.5H106.227L108.387 19.98L110.547 11.5H113.647L110.087 25.5H106.707L104.847 18.24L103.007 25.5H99.6269ZM114.958 15.5H117.958V25.5H114.958V15.5ZM116.478 14.46C116.044 14.46 115.681 14.3167 115.388 14.03C115.094 13.7433 114.948 13.3867 114.948 12.96C114.948 12.54 115.094 12.1867 115.388 11.9C115.681 11.6067 116.041 11.46 116.468 11.46C116.888 11.46 117.241 11.6067 117.528 11.9C117.821 12.1867 117.968 12.54 117.968 12.96C117.968 13.3867 117.824 13.7433 117.538 14.03C117.258 14.3167 116.904 14.46 116.478 14.46ZM128.488 18.5L124.288 22.5H128.488V25.5H119.948V22.5L124.148 18.5H119.948V15.5H128.488V18.5ZM137.372 15.5H140.372V25.5H137.362L137.222 24.6C136.976 24.9467 136.662 25.2267 136.282 25.44C135.909 25.6533 135.472 25.76 134.972 25.76C134.226 25.76 133.526 25.62 132.872 25.34C132.226 25.06 131.656 24.6733 131.162 24.18C130.669 23.68 130.282 23.1067 130.002 22.46C129.729 21.8067 129.592 21.1067 129.592 20.36C129.592 19.6467 129.722 18.98 129.982 18.36C130.242 17.74 130.606 17.1967 131.072 16.73C131.546 16.2567 132.089 15.8867 132.702 15.62C133.322 15.3533 133.986 15.22 134.692 15.22C135.266 15.22 135.786 15.34 136.252 15.58C136.726 15.8133 137.146 16.1067 137.512 16.46L137.372 15.5ZM134.892 22.88C135.306 22.88 135.682 22.7733 136.022 22.56C136.362 22.3467 136.632 22.06 136.832 21.7C137.032 21.34 137.132 20.94 137.132 20.5C137.132 20.06 137.032 19.66 136.832 19.3C136.632 18.94 136.362 18.6533 136.022 18.44C135.682 18.2267 135.306 18.12 134.892 18.12C134.479 18.12 134.102 18.2267 133.762 18.44C133.429 18.6533 133.162 18.94 132.962 19.3C132.769 19.66 132.672 20.06 132.672 20.5C132.672 20.94 132.772 21.34 132.972 21.7C133.172 22.06 133.439 22.3467 133.772 22.56C134.112 22.7733 134.486 22.88 134.892 22.88ZM142.39 25.5L142.38 15.5H145.38L145.39 16.13C145.723 15.8433 146.103 15.62 146.53 15.46C146.956 15.3 147.406 15.22 147.88 15.22C148.24 15.22 148.606 15.2733 148.98 15.38L147.8 18.42C147.566 18.3133 147.326 18.26 147.08 18.26C146.766 18.26 146.48 18.3367 146.22 18.49C145.966 18.6367 145.763 18.84 145.61 19.1C145.463 19.3533 145.39 19.6367 145.39 19.95V25.5H142.39ZM156.787 10.5H159.787V25.5H156.787V24.58C156.48 24.9267 156.113 25.21 155.687 25.43C155.267 25.65 154.787 25.76 154.247 25.76C153.52 25.76 152.84 25.6233 152.207 25.35C151.573 25.0767 151.013 24.7 150.527 24.22C150.047 23.7333 149.67 23.1733 149.397 22.54C149.123 21.9067 148.987 21.2267 148.987 20.5C148.987 19.7733 149.123 19.0933 149.397 18.46C149.67 17.8267 150.047 17.27 150.527 16.79C151.013 16.3033 151.573 15.9233 152.207 15.65C152.84 15.3767 153.52 15.24 154.247 15.24C154.787 15.24 155.267 15.35 155.687 15.57C156.113 15.7833 156.48 16.0667 156.787 16.42V10.5ZM154.287 22.88C154.7 22.88 155.077 22.7733 155.417 22.56C155.757 22.3467 156.027 22.06 156.227 21.7C156.427 21.34 156.527 20.94 156.527 20.5C156.527 20.06 156.427 19.66 156.227 19.3C156.027 18.94 155.757 18.6533 155.417 18.44C155.077 18.2267 154.7 18.12 154.287 18.12C153.873 18.12 153.497 18.2267 153.157 18.44C152.823 18.6533 152.557 18.94 152.357 19.3C152.163 19.66 152.067 20.06 152.067 20.5C152.067 20.94 152.167 21.34 152.367 21.7C152.567 22.06 152.833 22.3467 153.167 22.56C153.507 22.7733 153.88 22.88 154.287 22.88Z" fill="white"/>
<defs>
<linearGradient id="paint0_linear_7229_1885" x1="3.53558e-07" y1="8" x2="18" y2="28.5" gradientUnits="userSpaceOnUse">
<stop stop-color="#57EA57"/>
<stop offset="1" stop-color="#17B5BE"/>
</linearGradient>
</defs>
</svg>
