<svg xmlns="http://www.w3.org/2000/svg" width="158" height="40" fill="none"><path fill="#6B9690" d="M18.217 7.826v-5h-15.8v34.353h15.8v-5a12.22 12.22 0 0 1-8.63-3.567 12.163 12.163 0 0 1-3.574-8.61c0-3.23 1.286-6.326 3.575-8.61a12.217 12.217 0 0 1 8.629-3.566zm.001 0v24.353c3.236 0 6.34-1.283 8.63-3.567a12.163 12.163 0 0 0 3.574-8.61c0-3.23-1.286-6.326-3.575-8.61a12.218 12.218 0 0 0-8.63-3.566zm21.069 3.056h3.537v17h-3.537v-17zm5.518 11.177c0-1.223.364-2.419 1.046-3.435a6.187 6.187 0 0 1 2.784-2.275 6.204 6.204 0 0 1 6.75 1.355 6.173 6.173 0 0 1 1.32 6.743 6.18 6.18 0 0 1-2.296 2.764 6.2 6.2 0 0 1-3.449 1.024 6.117 6.117 0 0 1-4.379-1.797 6.094 6.094 0 0 1-1.776-4.38zm8.867 0a2.677 2.677 0 0 0-1.708-2.428 2.693 2.693 0 0 0-3.621 2 2.677 2.677 0 0 0 1.155 2.733c.44.292.957.447 1.486.448a2.62 2.62 0 0 0 2.503-1.7 2.59 2.59 0 0 0 .161-1.053h.024zm17.439-5.822v11.07c0 3.906-3.066 5.565-6.167 5.565a5.907 5.907 0 0 1-5.53-2.824l2.984-1.717a2.672 2.672 0 0 0 2.664 1.47 2.364 2.364 0 0 0 2.485-1.478c.127-.323.18-.67.157-1.016v-1.07a4.16 4.16 0 0 1-3.408 1.506 5.902 5.902 0 0 1-4.169-1.723 5.875 5.875 0 0 1 0-8.32 5.902 5.902 0 0 1 4.169-1.722 4.169 4.169 0 0 1 3.407 1.506v-1.177l3.408-.07zm-3.407 5.588a2.818 2.818 0 0 0-1.663-2.691 2.835 2.835 0 0 0-3.123.535 2.822 2.822 0 0 0 1.956 4.862 2.648 2.648 0 0 0 2.017-.726 2.634 2.634 0 0 0 .813-1.98zm5.4.234c0-1.222.363-2.417 1.044-3.433a6.202 6.202 0 0 1 9.528-.93 6.173 6.173 0 0 1 1.334 6.735 6.18 6.18 0 0 1-2.285 2.77 6.2 6.2 0 0 1-3.443 1.034 6.13 6.13 0 0 1-4.39-1.792 6.105 6.105 0 0 1-1.788-4.384zm8.867 0a2.679 2.679 0 0 0-1.71-2.428 2.693 2.693 0 0 0-2.907.63 2.68 2.68 0 0 0 .451 4.109c.442.29.96.444 1.49.442a2.623 2.623 0 0 0 2.503-1.7c.126-.336.18-.694.161-1.053h.012zm5.131-8.943a2.09 2.09 0 0 1 1.295-1.935 2.103 2.103 0 0 1 2.287.454A2.093 2.093 0 0 1 89.2 15.21a2.125 2.125 0 0 1-1.477-.62 2.115 2.115 0 0 1-.621-1.474zm.341 3.118h3.538V27.88h-3.537V16.234zm18.676 5.823a5.893 5.893 0 0 1-.336 2.28 5.897 5.897 0 0 1-5.288 3.896 4.397 4.397 0 0 1-3.538-1.423v5.753H93.42v-16.33h3.537v1.094a4.375 4.375 0 0 1 3.538-1.412 5.903 5.903 0 0 1 4.086 1.909 5.871 5.871 0 0 1 1.538 4.233zm-3.537 0a2.778 2.778 0 0 0-1.769-2.516 2.788 2.788 0 0 0-3.01.652 2.773 2.773 0 0 0 .466 4.253c.458.3.994.46 1.542.458a2.669 2.669 0 0 0 2.616-1.746c.129-.352.181-.728.155-1.101zm14.303 2.33c0 2.683-2.358 3.824-4.858 3.824a5.113 5.113 0 0 1-5.023-2.776l3.042-1.718a1.91 1.91 0 0 0 1.969 1.376c.837 0 1.262-.259 1.262-.73 0-1.282-5.743-.6-5.743-4.634 0-2.542 2.146-3.812 4.575-3.812a5.127 5.127 0 0 1 4.623 2.482l-3.043 1.6a1.717 1.717 0 0 0-1.568-1.023c-.613 0-.978.235-.978.647 0 1.34 5.742.458 5.742 4.764zm12.817-8.153V27.88h-3.538v-1.094a4.023 4.023 0 0 1-3.325 1.447c-2.358 0-4.374-1.683-4.374-4.824v-7.176h3.537v6.647a1.936 1.936 0 0 0 2.04 2.118c1.273 0 2.17-.753 2.17-2.353v-6.412h3.49zm20.045 4.495v7.152h-3.538v-6.847c0-1.176-.554-1.905-1.674-1.905-1.12 0-1.828.811-1.828 2.188v6.564h-3.537v-6.847c0-1.176-.554-1.905-1.674-1.905-1.12 0-1.828.811-1.828 2.188v6.564h-3.537V16.234h3.537v1.071a3.606 3.606 0 0 1 3.137-1.388 3.46 3.46 0 0 1 3.053 1.53 3.854 3.854 0 0 1 3.385-1.53c2.759 0 4.504 1.906 4.504 4.812zm2.971-4.563a2.59 2.59 0 0 0 2.594-2.588 2.591 2.591 0 0 0-2.594-2.588 2.591 2.591 0 0 0-2.594 2.588 2.59 2.59 0 0 0 2.594 2.588z"/></svg>