<svg width="107" height="109" viewBox="0 0 107 109" fill="none" xmlns="http://www.w3.org/2000/svg">
<path d="M106.03 63.2482C105.979 63.5591 105.871 63.822 105.705 64.0367C105.539 64.2513 105.328 64.4029 105.071 64.4914C104.818 64.5854 104.541 64.6077 104.239 64.5581C103.942 64.5093 103.691 64.398 103.487 64.2242C103.282 64.0551 103.136 63.8376 103.049 63.5717C102.965 63.3112 102.95 63.0232 103.001 62.7075L103.165 61.7039C103.169 61.6803 103.159 61.6666 103.136 61.6627L101.331 61.3665C101.307 61.3627 101.288 61.3498 101.272 61.3278C101.26 61.3114 101.256 61.2913 101.26 61.2678L101.395 60.4409C101.399 60.4173 101.41 60.3973 101.427 60.3807C101.448 60.3697 101.47 60.3661 101.494 60.37L106.285 61.1563C106.309 61.1602 106.326 61.1703 106.338 61.1868C106.354 61.2087 106.36 61.2315 106.356 61.255L106.03 63.2482ZM103.818 62.7327C103.783 62.9495 103.816 63.1339 103.917 63.2859C104.023 63.4388 104.177 63.5318 104.38 63.5651C104.587 63.5992 104.766 63.5607 104.915 63.4497C105.063 63.3387 105.156 63.1748 105.191 62.958L105.338 62.0604C105.342 62.0369 105.332 62.0231 105.308 62.0193L104.006 61.8056C103.982 61.8017 103.969 61.8115 103.965 61.8351L103.818 62.7327Z" fill="white"/>
<path d="M99.8948 67.8398C99.9021 67.817 99.9154 67.7987 99.9348 67.7849C99.9574 67.777 99.9801 67.7767 100.003 67.7839L104.624 69.2505C104.647 69.2577 104.663 69.2704 104.672 69.2883C104.685 69.3123 104.687 69.3357 104.68 69.3585L104.427 70.1571C104.419 70.1799 104.405 70.1952 104.382 70.203C104.363 70.2169 104.341 70.2202 104.319 70.213L100.477 68.9937C100.454 68.9865 100.439 68.9943 100.432 69.017L99.724 71.2491C99.7168 71.2719 99.7019 71.2872 99.6794 71.2951C99.6599 71.3089 99.6388 71.3123 99.616 71.305L98.953 71.0946C98.9302 71.0874 98.9125 71.0717 98.9001 71.0478C98.8908 71.0298 98.8897 71.0094 98.8969 70.9866L99.8948 67.8398Z" fill="white"/>
<path d="M96.3729 76.7449C96.394 76.702 96.4291 76.6847 96.4783 76.693L97.2039 76.8105C97.2253 76.8103 97.2391 76.8038 97.2455 76.791L98.0233 75.2104C98.0297 75.1976 98.0263 75.1826 98.0134 75.1656L97.4744 74.6691C97.4378 74.6351 97.4301 74.5967 97.4512 74.5539L97.8528 73.7379C97.8654 73.7122 97.8813 73.6961 97.9005 73.6896C97.924 73.6852 97.9487 73.6946 97.9745 73.718L101.642 77.2456C101.678 77.2796 101.686 77.318 101.665 77.3608L101.169 78.3695C101.148 78.4124 101.112 78.4297 101.063 78.4214L96.0298 77.6694C96.0191 77.6695 96.0073 77.6664 95.9944 77.66C95.9558 77.641 95.9481 77.608 95.9713 77.5609L96.3729 76.7449ZM98.6654 75.7736C98.6418 75.7567 98.6247 75.7589 98.6141 75.7803L98.0576 76.9111C98.0449 76.9368 98.0536 76.9517 98.0836 76.9558L100.28 77.3177C100.299 77.3219 100.308 77.3186 100.308 77.3079C100.313 77.2993 100.309 77.2898 100.298 77.2791L98.6654 75.7736Z" fill="white"/>
<path d="M93.2201 82.0498C93.234 82.0304 93.2524 82.0171 93.2752 82.01C93.2991 82.0095 93.3208 82.0162 93.3402 82.0301L94.8143 83.0879C94.8298 83.0991 94.8428 83.1055 94.8534 83.1072L98.1265 83.6401C98.1476 83.6435 98.1621 83.6479 98.1698 83.6535C98.2009 83.6758 98.2011 83.7083 98.1705 83.7509L97.6439 84.4837C97.616 84.5225 97.579 84.5371 97.5329 84.5275L95.4607 84.1423C95.429 84.1372 95.4206 84.1489 95.4356 84.1772L96.463 86.0163C96.4868 86.0569 96.4848 86.0966 96.4569 86.1354L95.9219 86.8798C95.9024 86.9069 95.8821 86.9188 95.861 86.9154C95.841 86.9187 95.8216 86.9047 95.8028 86.8736L94.2599 83.933C94.2549 83.9236 94.2447 83.9133 94.2291 83.9021L92.755 82.8443C92.7356 82.8304 92.7237 82.8101 92.7193 82.7834C92.716 82.7634 92.7214 82.7438 92.7353 82.7244L93.2201 82.0498Z" fill="white"/>
<path d="M84.4963 91.5453C84.7839 91.3085 85.087 91.1581 85.4056 91.0939C85.7205 91.0328 86.0254 91.0572 86.3205 91.1672C86.6187 91.2808 86.8818 91.4759 87.11 91.7524L88.0866 92.9357C88.3117 93.2085 88.4502 93.5 88.5019 93.8103C88.5537 94.1206 88.5179 94.4224 88.3947 94.7157C88.2708 95.0158 88.0651 95.2842 87.7775 95.5209C87.4862 95.7607 87.1831 95.9112 86.8682 95.9723C86.5527 96.0401 86.2473 96.019 85.9522 95.9091C85.6571 95.7991 85.397 95.6078 85.1719 95.335L84.1953 94.1517C83.9671 93.8752 83.8256 93.58 83.7709 93.266C83.7161 92.952 83.7506 92.645 83.8745 92.3449C83.9977 92.0516 84.205 91.785 84.4963 91.5453ZM85.0485 92.2143C84.8457 92.3813 84.7348 92.5808 84.716 92.813C84.6971 93.0453 84.7759 93.2683 84.9523 93.4821L85.9563 94.6986C86.1328 94.9124 86.3369 95.0322 86.5688 95.058C86.8 95.0906 87.0188 95.0218 87.2253 94.8519C87.4281 94.6849 87.5374 94.4835 87.5532 94.2476C87.5684 94.0184 87.4878 93.7969 87.3113 93.5831L86.3074 92.3667C86.1309 92.1528 85.9286 92.0315 85.7004 92.0027C85.4686 91.9768 85.2513 92.0474 85.0485 92.2143Z" fill="white"/>
<path d="M77.966 96.2118C78.2847 96.0281 78.602 95.9279 78.9179 95.9112C79.2297 95.8968 79.5185 95.962 79.7843 96.1066C80.0483 96.2577 80.2653 96.4801 80.4352 96.7738L82.0722 99.6029C82.0841 99.6235 82.0875 99.6437 82.0823 99.6632C82.0753 99.6893 82.0614 99.7083 82.0408 99.7203L81.3145 100.139C81.2938 100.151 81.2725 100.152 81.2505 100.143C81.2268 100.14 81.2089 100.128 81.197 100.108L79.5564 97.2722C79.4296 97.053 79.2605 96.9134 79.0491 96.8532C78.8359 96.7996 78.6197 96.8361 78.4004 96.9625C78.1811 97.089 78.0435 97.2566 77.9877 97.4653C77.9301 97.6805 77.9647 97.8977 78.0915 98.117L79.7321 100.952C79.744 100.973 79.7474 100.993 79.7422 101.013C79.7352 101.039 79.7213 101.058 79.7007 101.07L78.9744 101.488C78.9537 101.5 78.9324 101.502 78.9104 101.492C78.8867 101.489 78.8688 101.478 78.8568 101.457L77.2199 98.6278C77.05 98.3342 76.9675 98.0342 76.9725 97.728C76.9756 97.4283 77.0634 97.146 77.2358 96.8811C77.404 96.6187 77.6474 96.3956 77.966 96.2118Z" fill="white"/>
<path d="M69.9176 100.085C69.9623 100.068 70.0012 100.077 70.0344 100.11L71.579 101.647C71.5947 101.661 71.6115 101.665 71.6294 101.659L72.2526 101.422C72.2749 101.414 72.2818 101.398 72.2733 101.376L71.5765 99.5478C71.568 99.5255 71.5693 99.502 71.5803 99.4774C71.5886 99.4589 71.6039 99.4454 71.6263 99.4369L72.4103 99.1395C72.4326 99.131 72.4553 99.1301 72.4782 99.1367C72.4984 99.1494 72.5128 99.167 72.5213 99.1893L74.2468 103.716C74.2553 103.738 74.2554 103.759 74.2471 103.777C74.236 103.802 74.2193 103.818 74.197 103.827L72.2806 104.554C71.9947 104.662 71.7224 104.699 71.4637 104.665C71.2006 104.632 70.9701 104.53 70.7723 104.36C70.57 104.191 70.4152 103.966 70.308 103.685C70.1923 103.382 70.1687 103.092 70.2372 102.815C70.3074 102.543 70.4618 102.311 70.7002 102.118C70.7192 102.101 70.7199 102.083 70.7025 102.064L69.0688 100.515C69.0531 100.5 69.0435 100.489 69.0401 100.48C69.0265 100.444 69.0442 100.417 69.0934 100.398L69.9176 100.085ZM72.9902 103.357C73.0126 103.349 73.0195 103.333 73.011 103.311L72.5745 102.166C72.566 102.144 72.5506 102.137 72.5282 102.145L71.6504 102.478C71.4628 102.549 71.3322 102.663 71.2586 102.819C71.1805 102.976 71.1755 103.144 71.2436 103.322C71.3117 103.501 71.4273 103.623 71.5904 103.689C71.7508 103.761 71.9248 103.761 72.1124 103.69L72.9902 103.357Z" fill="white"/>
<path d="M60.841 102.428C60.8646 102.424 60.8869 102.428 60.9079 102.44C60.9249 102.457 60.9352 102.477 60.9387 102.5L61.6471 107.291C61.6505 107.315 61.6463 107.335 61.6342 107.351C61.618 107.373 61.5982 107.385 61.5745 107.389L60.7446 107.51C60.7209 107.514 60.7006 107.507 60.6836 107.49C60.6626 107.479 60.6504 107.461 60.6469 107.438L59.9385 102.647C59.935 102.623 59.9413 102.601 59.9574 102.579C59.9695 102.563 59.9874 102.553 60.011 102.55L60.841 102.428Z" fill="white"/>
<path d="M53.6904 107.942C53.6908 107.966 53.6839 107.985 53.6698 107.999C53.6511 108.019 53.6297 108.029 53.6058 108.029L52.767 108.043C52.7431 108.043 52.7238 108.034 52.7092 108.015C52.6898 108.001 52.6799 107.982 52.6795 107.958L52.5954 103.117C52.595 103.093 52.6042 103.071 52.623 103.052C52.6371 103.037 52.6561 103.03 52.68 103.029L53.4901 103.016C53.5379 103.016 53.5717 103.034 53.5915 103.072L55.5016 106.107C55.5114 106.121 55.521 106.126 55.5305 106.121C55.54 106.121 55.5447 106.111 55.5443 106.092L55.4775 103.07C55.4771 103.046 55.4863 103.024 55.5051 103.005C55.5192 102.99 55.5382 102.983 55.5621 102.983L56.4009 102.969C56.4248 102.969 56.4464 102.975 56.4658 102.989C56.4805 103.008 56.488 103.03 56.4884 103.053L56.5724 107.895C56.5729 107.919 56.566 107.938 56.5519 107.952C56.5331 107.972 56.5118 107.982 56.4879 107.982L55.6778 107.995C55.63 107.996 55.5962 107.977 55.5764 107.94L53.6737 104.919C53.6639 104.905 53.6543 104.898 53.6447 104.898C53.6352 104.903 53.6306 104.915 53.631 104.934L53.6904 107.942Z" fill="white"/>
<path d="M44.3234 107.281C44.2998 107.278 44.2822 107.266 44.2708 107.245C44.2539 107.228 44.2471 107.207 44.2505 107.184L44.3507 106.489C44.3541 106.465 44.3666 106.446 44.3883 106.429C44.4045 106.417 44.4245 106.413 44.4481 106.416L45.7185 106.6C45.7422 106.604 45.7557 106.594 45.7591 106.57L46.3326 102.594C46.336 102.57 46.3485 102.55 46.3702 102.534C46.3864 102.522 46.4063 102.517 46.43 102.521L47.2604 102.641C47.284 102.645 47.3043 102.655 47.3212 102.672C47.3326 102.693 47.3367 102.715 47.3333 102.739L46.7599 106.715C46.7564 106.739 46.7666 106.752 46.7902 106.756L48.0251 106.935C48.0488 106.938 48.0691 106.948 48.086 106.965C48.0974 106.986 48.1015 107.008 48.098 107.032L47.9979 107.727C47.9945 107.75 47.9847 107.768 47.9684 107.78C47.9468 107.797 47.9241 107.803 47.9004 107.799L44.3234 107.281Z" fill="white"/>
<path d="M38.4368 100.677C38.4825 100.691 38.5081 100.722 38.5138 100.768L38.7869 102.928C38.7904 102.949 38.8013 102.963 38.8196 102.968L39.457 103.165C39.4799 103.172 39.4948 103.164 39.5018 103.141L40.077 101.272C40.084 101.25 40.0995 101.232 40.1234 101.219C40.1413 101.21 40.1617 101.209 40.1845 101.216L40.9864 101.463C41.0093 101.47 41.0277 101.483 41.0418 101.502C41.0499 101.525 41.0504 101.547 41.0434 101.57L39.6191 106.197C39.6121 106.22 39.5996 106.236 39.5817 106.245C39.5578 106.258 39.5344 106.261 39.5116 106.254L37.5514 105.65C37.2589 105.56 37.0213 105.421 36.8385 105.235C36.6511 105.048 36.5318 104.826 36.4804 104.57C36.4244 104.313 36.4407 104.041 36.5292 103.754C36.6247 103.443 36.7846 103.2 37.0087 103.025C37.2315 102.854 37.4963 102.765 37.8031 102.76C37.8288 102.758 37.8406 102.744 37.8384 102.718L37.5026 100.494C37.4991 100.473 37.4987 100.458 37.5015 100.449C37.5127 100.412 37.5435 100.402 37.5938 100.417L38.4368 100.677ZM38.8481 105.143C38.871 105.15 38.8859 105.142 38.8929 105.119L39.2532 103.949C39.2602 103.926 39.2523 103.911 39.2295 103.904L38.3316 103.627C38.1397 103.568 37.9668 103.577 37.8129 103.655C37.6544 103.731 37.547 103.86 37.4909 104.042C37.4347 104.225 37.4507 104.392 37.539 104.544C37.6212 104.7 37.7583 104.807 37.9502 104.866L38.8481 105.143Z" fill="white"/>
<path d="M32.3976 98.1843C32.7319 98.3496 32.9938 98.5642 33.1833 98.8282C33.3685 99.0902 33.4715 99.378 33.4923 99.6919C33.511 100.01 33.441 100.33 33.2823 100.65L32.603 102.024C32.4464 102.341 32.237 102.586 31.975 102.76C31.7129 102.934 31.4226 103.025 31.1041 103.033C30.7792 103.043 30.4496 102.965 30.1152 102.8C29.7766 102.632 29.5147 102.418 29.3295 102.156C29.138 101.896 29.0318 101.609 29.0109 101.295C28.9901 100.982 29.058 100.666 29.2146 100.35L29.8939 98.9759C30.0526 98.6549 30.2641 98.4053 30.5283 98.227C30.7925 98.0487 31.087 97.9546 31.4119 97.9448C31.7304 97.9371 32.059 98.017 32.3976 98.1843ZM32.0135 98.961C31.7778 98.8445 31.55 98.8251 31.3302 98.9029C31.1104 98.9806 30.9391 99.1436 30.8164 99.3918L30.118 100.804C29.9953 101.052 29.9697 101.287 30.0414 101.509C30.1067 101.733 30.2593 101.904 30.4993 102.023C30.7351 102.139 30.9639 102.157 31.1858 102.075C31.4014 101.995 31.5705 101.831 31.6932 101.583L32.3916 100.17C32.5143 99.9221 32.542 99.6882 32.4746 99.4685C32.403 99.2467 32.2493 99.0775 32.0135 98.961Z" fill="white"/>
<path d="M22.2244 91.7475C22.2604 91.7789 22.2681 91.8173 22.2475 91.8627L20.1744 96.4793L20.1609 96.5055C20.1295 96.5415 20.094 96.5422 20.0544 96.5076L19.3735 95.9137C19.3339 95.8791 19.3244 95.8391 19.345 95.7937L20.9264 92.5351C20.9323 92.5212 20.9316 92.5111 20.9244 92.5048C20.9172 92.4985 20.9071 92.4992 20.894 92.5069L17.886 94.521C17.8438 94.5475 17.8029 94.5435 17.7632 94.5089L17.0986 93.9291C17.077 93.9103 17.067 93.8889 17.0688 93.8651C17.0706 93.8413 17.0845 93.8218 17.1105 93.8065L21.4261 91.1462C21.4684 91.1197 21.5075 91.1221 21.5435 91.1535L22.2244 91.7475Z" fill="white"/>
<path d="M17.3272 87.0255C17.343 87.0434 17.3519 87.0642 17.3538 87.088C17.349 87.1114 17.3377 87.131 17.3198 87.1468L13.689 90.3509C13.6711 90.3667 13.652 90.3739 13.6318 90.3727C13.6048 90.371 13.5834 90.3612 13.5675 90.3433L13.0117 89.715C12.9959 89.6971 12.9904 89.6765 12.9952 89.6531C12.9933 89.6293 13.0013 89.6095 13.0192 89.5937L16.6499 86.3896C16.6678 86.3738 16.6903 86.3668 16.7173 86.3685C16.7375 86.3697 16.7555 86.3793 16.7714 86.3972L17.3272 87.0255Z" fill="white"/>
<path d="M14.4457 83.6041C14.4591 83.6239 14.4652 83.6457 14.464 83.6696C14.4562 83.6921 14.4424 83.7101 14.4226 83.7234L10.408 86.4326C10.3882 86.4459 10.3684 86.4507 10.3484 86.4468C10.3219 86.4417 10.3019 86.4292 10.2885 86.4094L9.28397 84.9253C9.08306 84.6285 8.96105 84.3332 8.91793 84.0394C8.86818 83.7443 8.8968 83.4714 9.0038 83.2204C9.1108 82.9695 9.28901 82.7599 9.53844 82.5916L11.1776 81.4855C11.427 81.3171 11.6882 81.2302 11.9613 81.2247C12.2344 81.2191 12.5007 81.2931 12.7603 81.4465C13.0133 81.5987 13.2402 81.8232 13.4411 82.12L14.4457 83.6041ZM13.179 83.3433C13.1988 83.3299 13.202 83.3133 13.1886 83.2935L12.7024 82.5752C12.5792 82.3932 12.4187 82.2881 12.221 82.2602C12.0206 82.2282 11.8161 82.2797 11.6075 82.4147L10.2416 83.3364C10.0357 83.4754 9.91026 83.6436 9.86521 83.8412C9.81748 84.0349 9.85791 84.2267 9.98649 84.4166L10.4687 85.129C10.4821 85.1488 10.4987 85.152 10.5185 85.1386L13.179 83.3433Z" fill="white"/>
<path d="M4.92454 75.5178C4.94617 75.5076 4.9697 75.5071 4.99514 75.5163C5.01422 75.5232 5.02885 75.5375 5.03902 75.5591L6.04005 77.686C6.05022 77.7076 6.06612 77.7134 6.08775 77.7032L7.09348 77.2318C7.11511 77.2216 7.12083 77.2058 7.11066 77.1841L6.4545 75.7899C6.44433 75.7683 6.44484 75.747 6.45604 75.7259C6.46088 75.7025 6.47411 75.6858 6.49574 75.6756L7.12513 75.3806C7.14676 75.3704 7.17029 75.37 7.19573 75.3791C7.21481 75.386 7.22944 75.4003 7.23961 75.4219L7.89577 76.8161C7.90595 76.8377 7.92185 76.8434 7.94348 76.8333L8.99462 76.3405C9.01625 76.3304 9.02198 76.3145 9.0118 76.2929L8.01078 74.166C8.0006 74.1443 8.00112 74.123 8.01232 74.1019C8.01715 74.0785 8.03039 74.0618 8.05202 74.0516L8.68141 73.7566C8.70303 73.7464 8.72657 73.746 8.75201 73.7551C8.77109 73.762 8.78572 73.7763 8.79589 73.7979L10.2059 76.7938C10.216 76.8154 10.2187 76.8379 10.2139 76.8613C10.2027 76.8824 10.1863 76.898 10.1646 76.9081L5.77838 78.9643C5.75675 78.9745 5.73639 78.9761 5.71731 78.9692C5.69187 78.96 5.67407 78.9446 5.66389 78.923L4.25391 75.9271C4.24374 75.9055 4.24425 75.8842 4.25545 75.8631C4.26029 75.8397 4.27352 75.8229 4.29515 75.8128L4.92454 75.5178Z" fill="white"/>
<path d="M7.0308 68.7139C7.13544 69.0715 7.15459 69.4092 7.08826 69.727C7.02058 70.0402 6.87812 70.3105 6.66086 70.5379C6.43901 70.7667 6.15603 70.9311 5.81191 71.0312L4.3391 71.4598C3.99957 71.5586 3.67691 71.5705 3.37111 71.4953C3.06531 71.4201 2.80172 71.2679 2.58034 71.0388C2.35303 70.8065 2.18705 70.5115 2.08242 70.1539C1.97644 69.7918 1.95729 69.454 2.02496 69.1408C2.08671 68.8244 2.22621 68.5524 2.44347 68.325C2.66073 68.0976 2.93912 67.9345 3.27865 67.8357L4.75146 67.4071C5.09558 67.307 5.42283 67.2938 5.73321 67.3677C6.0436 67.4415 6.31245 67.5946 6.53976 67.827C6.76114 68.0561 6.92482 68.3517 7.0308 68.7139ZM6.19804 68.9563C6.12426 68.7041 5.98427 68.5235 5.77807 68.4143C5.57187 68.3052 5.33572 68.2893 5.0696 68.3668L3.55549 68.8074C3.28937 68.8848 3.09883 69.0248 2.98385 69.2274C2.86295 69.4268 2.84005 69.6549 2.91518 69.9116C2.98896 70.1637 3.13124 70.3437 3.34203 70.4515C3.54689 70.5561 3.78237 70.5696 4.04849 70.4922L5.5626 70.0516C5.82871 69.9741 6.01993 69.8364 6.13625 69.6384C6.25123 69.4358 6.27182 69.2084 6.19804 68.9563Z" fill="white"/>
<path d="M5.5451 48.41L0.403552 47.5341L0.747367 45.5082C0.813463 45.1187 0.944251 44.7996 1.13973 44.5509C1.33354 44.3018 1.57402 44.1278 1.86119 44.0288C2.14696 43.9279 2.46056 43.9065 2.80199 43.9646C3.14342 44.0228 3.43221 44.1477 3.66834 44.3392C3.90447 44.5308 4.07165 44.7786 4.16989 45.0825C4.26841 45.3848 4.28419 45.7332 4.21725 46.1277L3.99811 47.419L3.12696 47.2706L3.31631 46.1548C3.35177 45.9459 3.345 45.7676 3.29601 45.6199C3.24563 45.4703 3.16168 45.3511 3.04415 45.2623C2.92524 45.1715 2.78126 45.1117 2.61222 45.0829C2.4415 45.0538 2.28673 45.0627 2.1479 45.1096C2.00768 45.1545 1.89079 45.2395 1.79723 45.3646C1.702 45.4894 1.63652 45.6571 1.60077 45.8677L1.47652 46.5998L5.72934 47.3243L5.5451 48.41Z" fill="white"/>
<path d="M7.07466 41.0531L2.11275 39.4452L2.45198 38.3976L6.54895 39.7253L7.23681 37.6011L8.10175 37.8814L7.07466 41.0531Z" fill="white"/>
<path d="M9.65598 34.136L9.12852 35.1915L5.26587 31.2528L5.90018 29.9834L11.3691 30.7078L10.8416 31.7634L6.65845 31.1324L6.64026 31.1688L9.65598 34.136ZM7.78883 33.2859L9.03473 30.7927L9.80486 31.1774L8.55896 33.6705L7.78883 33.2859Z" fill="white"/>
<path d="M8.6771 25.0831L9.40301 24.0859L11.9189 24.4462L11.9488 24.4051L10.8309 22.1243L11.5568 21.1271L13.1662 24.6453L14.6576 25.7293L14.014 26.6135L12.5226 25.5295L8.6771 25.0831Z" fill="white"/>
<path d="M23.2847 13.3881C23.6439 13.8288 23.866 14.2717 23.9509 14.7167C24.0371 15.1607 24.0033 15.5808 23.8494 15.9772C23.6957 16.3712 23.4406 16.7131 23.084 17.0031C22.7248 17.2951 22.3359 17.4757 21.9174 17.5447C21.4988 17.6137 21.0806 17.5611 20.6628 17.3867C20.245 17.2124 19.857 16.9055 19.4988 16.4661C19.1396 16.0253 18.9168 15.583 18.8306 15.139C18.7444 14.6951 18.7781 14.2761 18.9317 13.8821C19.0843 13.4868 19.3402 13.1432 19.6995 12.8511C20.0561 12.5612 20.4436 12.3817 20.8622 12.3126C21.2809 12.2412 21.6992 12.2927 22.1171 12.4671C22.5362 12.6404 22.9254 12.9474 23.2847 13.3881ZM22.4181 14.0926C22.1854 13.8071 21.9464 13.6011 21.7011 13.4746C21.4571 13.3471 21.2168 13.2952 20.9803 13.3191C20.7437 13.343 20.5222 13.4389 20.3156 13.6069C20.109 13.7749 19.97 13.9721 19.8986 14.1986C19.8272 14.425 19.8286 14.671 19.9029 14.9366C19.9785 15.2011 20.1326 15.4761 20.3653 15.7616C20.598 16.047 20.8364 16.2536 21.0804 16.3811C21.3257 16.5076 21.5667 16.5589 21.8032 16.535C22.0397 16.5111 22.2613 16.4152 22.4679 16.2473C22.6745 16.0793 22.8135 15.8821 22.8849 15.6556C22.9563 15.4291 22.9542 15.1836 22.8786 14.9191C22.8043 14.6536 22.6508 14.3781 22.4181 14.0926Z" fill="white"/>
<path d="M27.8151 7.47124L28.7729 6.92668L30.4505 9.8671C30.6389 10.1973 30.7248 10.531 30.7083 10.8683C30.6932 11.2048 30.5844 11.5224 30.3818 11.8211C30.1783 12.1183 29.8893 12.3734 29.5148 12.5864C29.1388 12.8002 28.7708 12.9186 28.4109 12.9417C28.0502 12.9633 27.7211 12.8947 27.4235 12.7359C27.1259 12.5772 26.883 12.3328 26.6946 12.0026L25.017 9.06218L25.9748 8.51761L27.6057 11.3762C27.7041 11.5487 27.8291 11.6806 27.9809 11.772C28.1341 11.8625 28.3019 11.9067 28.4842 11.9045C28.6665 11.9023 28.8499 11.8488 29.0342 11.744C29.22 11.6384 29.3596 11.5083 29.453 11.3536C29.5479 11.1982 29.5947 11.032 29.5934 10.8551C29.5935 10.6774 29.5444 10.5023 29.446 10.3299L27.8151 7.47124Z" fill="white"/>
<path d="M34.7049 9.87848L32.8782 4.99747L34.8052 4.27959C35.1741 4.14217 35.5136 4.09083 35.8237 4.12556C36.1348 4.15812 36.4037 4.26889 36.6302 4.45787C36.8577 4.64467 37.0318 4.89934 37.1526 5.22188C37.2739 5.54601 37.3083 5.85092 37.2557 6.13661C37.2026 6.42071 37.0665 6.67418 36.8474 6.89703C36.6298 7.11928 36.3334 7.3003 35.9582 7.44009L34.6679 7.92076L34.3575 7.09136L35.4808 6.67289C35.678 6.59945 35.8317 6.51143 35.9418 6.40883C36.052 6.30624 36.1186 6.18908 36.1418 6.05734C36.1666 5.92502 36.1489 5.77861 36.0888 5.61813C36.0282 5.45607 35.9445 5.33157 35.8376 5.24463C35.7324 5.1571 35.6031 5.10933 35.4497 5.10129C35.2974 5.09107 35.1218 5.12298 34.923 5.19702L34.2266 5.45646L35.7376 9.49378L34.7049 9.87848ZM36.5114 6.67459L38.5567 8.4436L37.4166 8.86829L35.3976 7.08951L36.5114 6.67459Z" fill="white"/>
<path d="M46.6511 1.33347L47.3819 6.49197L46.2903 6.64517L45.5595 1.48666L46.6511 1.33347Z" fill="white"/>
<path d="M55.0357 0.869363L55.0945 6.07823L54.1422 6.08796L51.8366 2.83268L51.7984 2.83307L51.8354 6.1115L50.7329 6.12275L50.6742 0.913883L51.6417 0.904005L53.9295 4.15693L53.9753 4.15646L53.9383 0.880566L55.0357 0.869363Z" fill="white"/>
<path d="M59.1949 2.04276L59.33 1.14495L63.5654 1.78493L63.4303 2.68275L61.8515 2.44418L61.2118 6.6969L60.1341 6.53405L60.7738 2.28133L59.1949 2.04276Z" fill="white"/>
<path d="M66.1411 7.70034L67.7037 2.73217L69.6666 3.35002C70.0423 3.46829 70.3419 3.63634 70.5653 3.85418C70.7908 4.0709 70.9348 4.32329 70.9973 4.61134C71.0619 4.89828 71.0425 5.20589 70.9393 5.53419C70.8355 5.86411 70.675 6.12551 70.4577 6.31838C70.2409 6.50964 69.9775 6.62577 69.6673 6.66678C69.3588 6.7083 69.0134 6.66891 68.6312 6.5486L67.3169 6.13492L67.5825 5.29071L68.7267 5.65088C68.9275 5.71409 69.103 5.7391 69.2531 5.72592C69.4032 5.71274 69.5279 5.66135 69.6273 5.57177C69.7283 5.4827 69.8044 5.3565 69.8558 5.19315C69.9077 5.0282 69.9182 4.87866 69.8874 4.74455C69.8583 4.61095 69.7856 4.49389 69.6695 4.39336C69.5555 4.29172 69.3973 4.20903 69.1949 4.14531L68.4855 3.92203L67.193 8.03144L66.1411 7.70034ZM69.5391 6.28516L70.0645 8.93528L68.9033 8.56977L68.4046 5.92806L69.5391 6.28516Z" fill="white"/>
<path d="M78.6828 10.0096C78.428 10.5172 78.1148 10.9006 77.7433 11.1599C77.3733 11.42 76.9757 11.561 76.5506 11.5829C76.1277 11.604 75.7107 11.5114 75.2994 11.305C74.8851 11.0971 74.5605 10.8166 74.3255 10.4635C74.0905 10.1104 73.9668 9.70783 73.9544 9.25584C73.9419 8.80385 74.0627 8.32483 74.3168 7.8188C74.5717 7.31124 74.8841 6.92742 75.2541 6.66732C75.6241 6.40723 76.0205 6.26662 76.4434 6.2455C76.867 6.22288 77.286 6.31551 77.7003 6.5234C78.1115 6.72976 78.4346 7.0095 78.6696 7.36261C78.9069 7.71497 79.0317 8.11715 79.0442 8.56915C79.0581 9.0219 78.9377 9.50205 78.6828 10.0096ZM77.6835 9.50816C77.8486 9.17939 77.9385 8.87738 77.9532 8.60214C77.9694 8.32765 77.9181 8.08753 77.7991 7.88178C77.6801 7.67602 77.5015 7.51337 77.2632 7.39381C77.025 7.27426 76.7878 7.22826 76.5516 7.25583C76.3155 7.2834 76.0915 7.38531 75.8795 7.56156C75.669 7.73857 75.4812 7.99147 75.3161 8.32024C75.1511 8.64901 75.0604 8.95063 75.0442 9.22512C75.0295 9.50036 75.0816 9.74087 75.2006 9.94663C75.3196 10.1524 75.4982 10.315 75.7364 10.4346C75.9747 10.5541 76.2119 10.6001 76.448 10.5726C76.6841 10.545 76.9074 10.4427 77.1179 10.2657C77.3299 10.0894 77.5184 9.83694 77.6835 9.50816Z" fill="white"/>
<path d="M88.0811 13.4L86.4034 17.1983L86.4396 17.2303L90.0088 15.1024L90.925 15.9115L86.1258 18.6226L85.0607 17.682L87.163 12.5892L88.0811 13.4Z" fill="white"/>
<path d="M94.3856 19.6557L90.4586 23.079L89.7332 22.2489L93.6602 18.8256L94.3856 19.6557Z" fill="white"/>
<path d="M93.6277 27.2188L92.6011 25.6821L96.9379 22.7937L97.973 24.3432C98.2643 24.7792 98.4283 25.2124 98.4648 25.6427C98.5028 26.0721 98.4168 26.4792 98.2066 26.8638C97.9974 27.2499 97.6676 27.5929 97.2173 27.8928C96.7655 28.1937 96.3203 28.3668 95.8815 28.4123C95.4437 28.4593 95.0319 28.3818 94.6462 28.1799C94.2613 27.9795 93.9219 27.6591 93.6277 27.2188ZM93.999 26.0754L94.3879 26.6575C94.5689 26.9284 94.7692 27.1244 94.9886 27.2453C95.2105 27.3667 95.4542 27.4063 95.7197 27.364C95.9875 27.3222 96.2831 27.1937 96.6064 26.9784C96.9269 26.7649 97.1571 26.5433 97.2973 26.3133C97.4383 26.0848 97.4951 25.8461 97.4676 25.5973C97.4401 25.3485 97.3359 25.0887 97.1549 24.8177L96.7646 24.2335L93.999 26.0754Z" fill="white"/>
<path d="M96.809 32.513L101.541 30.3295L103.018 33.5163L102.193 33.897L101.18 31.7101L100.052 32.2303L100.989 34.2533L100.164 34.6339L99.2271 32.611L98.0971 33.1323L99.1145 35.3285L98.2895 35.7091L96.809 32.513Z" fill="white"/>
<path d="M103.378 42.8448C102.831 43.0003 102.336 43.0291 101.894 42.931C101.451 42.8346 101.078 42.6375 100.774 42.3395C100.472 42.0427 100.258 41.6733 100.131 41.2313C100.004 40.7861 99.9908 40.3577 100.092 39.9463C100.193 39.5348 100.406 39.1718 100.731 38.8572C101.056 38.5426 101.491 38.3078 102.036 38.1527C102.583 37.9972 103.077 37.9676 103.52 38.064C103.962 38.1604 104.334 38.357 104.636 38.6538C104.94 38.9501 105.155 39.3209 105.283 39.7661C105.409 40.2081 105.422 40.6348 105.32 41.0463C105.221 41.4589 105.009 41.8226 104.685 42.1371C104.36 42.4534 103.925 42.6893 103.378 42.8448ZM103.071 41.7708C103.425 41.6701 103.708 41.5321 103.921 41.3569C104.135 41.1834 104.277 40.9833 104.348 40.7568C104.419 40.5302 104.418 40.2889 104.345 40.0329C104.272 39.7768 104.145 39.5712 103.965 39.4162C103.784 39.2611 103.557 39.1652 103.284 39.1283C103.011 39.0931 102.697 39.1259 102.343 39.2266C101.989 39.3274 101.705 39.4645 101.492 39.6381C101.279 39.8133 101.137 40.0141 101.066 40.2407C100.995 40.4673 100.996 40.7086 101.069 40.9646C101.142 41.2207 101.269 41.4262 101.449 41.5813C101.629 41.7364 101.856 41.8315 102.129 41.8667C102.403 41.9035 102.717 41.8716 103.071 41.7708Z" fill="white"/>
<path d="M105.639 51.5125C105.639 52.0776 105.181 52.5356 104.615 52.5355C104.05 52.5354 103.591 52.0772 103.59 51.5121C103.59 50.947 104.048 50.4889 104.614 50.4891C105.179 50.4892 105.638 50.9474 105.639 51.5125Z" fill="white"/>
<path d="M4.01095 57.4473C4.01143 58.0124 3.55321 58.4704 2.98747 58.4703C2.42174 58.4702 1.96273 58.012 1.96225 57.4468C1.96177 56.8817 2.42 56.4237 2.98573 56.4238C3.55146 56.4239 4.01047 56.8821 4.01095 57.4473Z" fill="white"/>
</svg>
