<svg width="453" height="496" viewBox="0 0 453 496" fill="none" xmlns="http://www.w3.org/2000/svg">
<path d="M236.689 470.059V439.416L219.089 422.731V455.536L202.696 471.081V438.851L185.398 455.249L168.703 439.426V409.359C169.21 409.141 169.585 408.387 169.585 407.484C169.585 407.305 169.567 407.137 169.537 406.978L185.543 391.8L185.694 391.662V358.291L168.401 374.688L151.404 358.568L134.408 374.679L117.713 358.846V327.191L135.012 310.794L117.713 294.396V261.591L100.264 278.137L100.113 278.276V309.931L84.5598 295.18C84.584 295.021 84.6081 294.852 84.6081 294.674C84.6081 293.771 84.2336 293.017 83.7263 292.799V230.501L100.572 214.53L100.723 214.391V181.02L83.2733 197.567L83.1223 197.706V229.936L66.4277 245.768L50.0352 230.223L66.5787 214.54L66.7297 214.401V181.03L49.2802 197.577L49.1292 197.716V261.6L33.5762 246.849C33.6003 246.691 33.6245 246.522 33.6245 246.343C33.6245 245.441 33.25 244.687 32.7426 244.469V213.826L16.0722 198.003L32.4648 182.459L32.7668 182.746V182.171L33.0688 181.883L32.7668 181.596V149.366L16.6098 134.049C16.634 133.89 16.6581 133.722 16.6581 133.543C16.6581 132.472 16.1266 131.599 15.4743 131.599C14.822 131.599 14.2904 132.472 14.2904 133.543C14.2904 134.446 14.6649 135.2 15.1723 135.418V165.486L-2.13232 181.883L14.8642 197.993L-1.67932 213.687L-1.83032 213.826V246.056L-2.13232 246.343L-1.83032 246.631V278.861L14.8522 294.684L-1.69744 310.377L-1.84844 310.516V343.887L15.6011 327.34L15.7521 327.201V295.537L15.7642 295.547V262.741L31.6132 247.712C31.7581 247.951 31.9454 248.129 32.1507 248.218V278.861L48.8453 294.684L32.3017 310.367L32.1507 310.506V342.746L16.3138 357.765C16.0964 357.408 15.8004 357.19 15.4743 357.19C14.822 357.19 14.2904 358.063 14.2904 359.134C14.2904 360.037 14.6649 360.791 15.1723 361.009V423.267L-1.6914 439.268L-1.8424 439.407V472.777L-1.81824 472.748V504.432L15.1783 520.542V521.118L15.4803 520.83L15.7823 521.118V520.542L32.6279 504.571L32.7789 504.432V471.061L16.3199 486.675C16.1024 486.318 15.8065 486.1 15.4803 486.1C15.1481 486.1 14.8522 486.318 14.6408 486.675L-0.924324 471.914L15.1783 456.648V456.677L32.4769 440.28L49.7754 456.677V423.862L66.6029 407.901L66.7539 407.762V377.119C67.2612 376.901 67.6357 376.147 67.6357 375.244C67.6357 374.173 67.1042 373.3 66.4519 373.3C65.7996 373.3 65.268 374.173 65.268 375.244C65.268 375.423 65.2861 375.591 65.3164 375.75L49.3104 390.927L49.1594 391.066V422.711L32.7849 407.186V343.292L49.4614 327.479L66.7599 343.877V311.081L82.6089 296.053C82.7538 296.291 82.9411 296.469 83.1464 296.559V327.201L99.3034 342.518C99.2793 342.677 99.2551 342.845 99.2551 343.024C99.2551 343.202 99.2732 343.371 99.3034 343.53L83.2974 358.707L83.1464 358.846V423.267L67.3941 438.206C67.1767 437.71 66.8264 437.383 66.4277 437.383C65.7754 437.383 65.2439 438.256 65.2439 439.327C65.2439 440.23 65.6184 440.984 66.1257 441.202V472.777L83.1223 456.667V488.322L100.723 505.008V471.637L84.0464 455.824L100.445 440.27L116.3 455.298C116.276 455.457 116.252 455.626 116.252 455.804C116.252 456.876 116.783 457.749 117.436 457.749C118.088 457.749 118.619 456.876 118.619 455.804C118.619 454.902 118.245 454.148 117.738 453.929V391.642L134.432 375.809L150.825 391.354L134.281 407.038L134.13 407.176V439.407L133.828 439.694L134.13 439.982V471.637L117.285 487.608L117.134 487.747V521.118L134.583 504.571L134.734 504.432V472.777L151.127 488.322V488.897L151.429 488.61L168.727 505.008V473.799C168.933 473.71 169.12 473.531 169.265 473.293L185.108 488.332V521.128L202.104 505.017V505.027L219.554 488.481L219.705 488.342V456.687L235.258 471.438C235.234 471.597 235.209 471.766 235.209 471.944C235.209 473.016 235.741 473.888 236.393 473.888C237.046 473.888 237.577 473.016 237.577 471.944C237.577 471.031 237.197 470.288 236.689 470.059ZM49.7573 198.281L66.1499 182.736V213.816L49.7573 229.36V198.281ZM15.1481 326.626L-1.2384 342.171V311.091L15.1542 295.547V326.626H15.1481ZM32.1688 472.787V503.867L15.7823 519.411V489.919C16.2897 489.701 16.6642 488.947 16.6642 488.044C16.6642 487.866 16.646 487.697 16.6158 487.538L32.1688 472.787ZM15.1783 489.919V519.411L-1.21424 503.867V472.787L14.3388 487.538C14.3146 487.697 14.2904 487.866 14.2904 488.044C14.2904 488.947 14.671 489.701 15.1783 489.919ZM202.098 471.647L185.712 487.181V456.102L202.104 440.557V471.647H202.098ZM168.111 470.059C167.906 470.149 167.719 470.317 167.574 470.565L152.027 455.824L168.117 440.567V470.059H168.111ZM151.719 423.306V392.227L167.272 406.978C167.247 407.137 167.223 407.305 167.223 407.484C167.223 408.387 167.598 409.141 168.105 409.359V438.851L151.719 423.306ZM168.111 405.609C167.906 405.698 167.719 405.877 167.574 406.115L152.027 391.374L168.117 376.117V405.609H168.111ZM151.417 424.169L167.809 439.714L160.362 446.777L151.417 455.259L135.024 439.714L142.471 432.651L151.417 424.169ZM151.719 456.687L167.272 471.438C167.247 471.597 167.223 471.766 167.223 471.944C167.223 472.123 167.241 472.291 167.272 472.45L151.719 487.201V456.687ZM185.108 391.076L169.259 406.105C169.114 405.867 168.926 405.688 168.721 405.599V375.532L185.108 359.997V391.076ZM100.741 341.149V311.657L117.134 327.201V358.281L101.574 343.53C101.599 343.371 101.623 343.202 101.623 343.024C101.623 342.121 101.248 341.367 100.741 341.149ZM100.741 344.899C100.946 344.809 101.134 344.631 101.279 344.393L116.825 359.134L100.741 374.391V344.899ZM117.429 326.338L101.037 310.794L109.076 303.175L117.429 295.259L133.822 310.804L117.429 326.338ZM100.741 278.851L117.134 263.307V294.386L100.741 309.931V278.851ZM83.7444 198.281L100.137 182.736V213.816L83.7444 229.36V198.281ZM83.1404 262.166L77.7769 267.255L66.7478 277.711V246.631L83.1404 231.087V262.166ZM66.1438 309.941L57.9476 302.173L49.7513 294.406V263.327L57.9476 271.094L66.1438 278.861V309.941ZM49.7573 231.087L66.1499 246.631V277.711L57.9536 269.943L49.7573 262.176V231.087ZM32.1568 244.469C31.9514 244.558 31.7642 244.727 31.6192 244.975L15.7702 229.946V198.866L32.1628 214.411V244.469H32.1568ZM32.1568 149.941V181.02L15.7642 165.476V135.408C15.9696 135.319 16.1568 135.15 16.3018 134.902L32.1568 149.941ZM15.4682 166.349L31.8608 181.893L15.7702 197.15L15.4682 197.438L15.1662 197.15L-0.924324 181.883L15.4682 166.349ZM-1.22632 214.401L15.1662 198.856V229.936L-1.22632 245.48V214.401ZM-1.22632 247.207L15.1662 262.751V293.831L-1.22632 278.286V247.207ZM15.4682 261.888L-0.924324 246.343L6.52299 239.28L15.4682 230.799L31.3232 245.828C31.2991 245.986 31.2749 246.155 31.2749 246.334C31.2749 246.512 31.293 246.681 31.3232 246.839L15.4682 261.888ZM32.7608 248.218C32.9661 248.129 33.1534 247.96 33.2983 247.712L49.1473 262.741V293.821L32.7547 278.276V248.218H32.7608ZM32.7608 311.081L49.1533 295.537V326.616L32.7608 342.161V311.081ZM15.7823 361.019C16.2897 360.8 16.6642 360.047 16.6642 359.144C16.6642 358.965 16.646 358.797 16.6158 358.638L32.1688 343.887V374.966L15.7763 390.511V361.019H15.7823ZM32.1688 407.196L15.7763 422.741V391.662L32.1688 376.117V407.196ZM15.1481 455.527L-1.2384 471.071V439.992L15.1542 424.447V455.527H15.1481ZM15.7823 423.882L32.1749 408.337V439.416L15.7823 454.961V423.882ZM49.7573 391.652L65.6063 376.623C65.7512 376.861 65.9385 377.039 66.1438 377.129V407.196L49.7513 422.741V391.652H49.7573ZM49.1654 424.437V454.961L32.7728 439.416V408.337L49.1473 423.862V424.447L49.1654 424.437ZM66.1438 342.161L49.7513 326.616V295.537L57.9476 303.304L66.1438 311.072V342.161ZM66.7478 309.941V278.861L76.1159 269.983L83.1404 263.327V292.819C82.633 293.037 82.2586 293.791 82.2586 294.694C82.2586 294.872 82.2767 295.041 82.3069 295.199L66.7478 309.941ZM83.7444 326.626V296.559C83.9497 296.469 84.137 296.301 84.282 296.053L100.131 311.081V341.149C99.9256 341.238 99.7383 341.407 99.5934 341.655L83.7444 326.626ZM83.7444 359.431L99.5934 344.403C99.7383 344.641 99.9256 344.819 100.131 344.909V374.976L99.8289 375.264L83.7383 390.521V359.431H83.7444ZM83.7444 423.882L100.137 408.337V439.416L83.7444 454.961V423.882ZM100.137 407.196L83.7444 422.741V391.662L100.137 376.117V407.196ZM66.7237 471.071V441.222C67.231 441.004 67.6055 440.25 67.6055 439.347C67.6055 439.288 67.5995 439.228 67.5934 439.168L83.1102 424.457V455.536L66.7237 471.071ZM100.107 503.301L83.7142 487.757V456.677L100.107 472.222V503.301ZM117.127 453.949C116.922 454.039 116.735 454.207 116.59 454.455L100.741 439.426V408.347L117.134 423.892V453.949H117.127ZM100.741 407.196V376.117L117.134 391.662V422.741L100.741 407.196ZM117.429 390.799L101.037 375.254L117.423 359.709L117.725 359.997L133.816 375.254L117.429 390.799ZM151.417 359.709L167.809 375.254L151.719 390.511L151.417 390.799L151.115 390.511L135.024 375.254L151.417 359.709ZM134.728 407.772L151.121 392.227V423.306L134.728 438.851V407.772ZM134.124 503.877L117.731 519.421V488.342L134.124 472.797V503.877ZM134.728 471.656V440.577L151.121 456.122V487.201L134.728 471.656ZM152.021 488.054L167.568 473.313C167.712 473.551 167.9 473.73 168.105 473.819V503.311L152.021 488.054ZM168.715 470.059V440.567L185.108 456.112V487.191L169.555 472.44C169.579 472.281 169.603 472.113 169.603 471.934C169.597 471.032 169.222 470.288 168.715 470.059ZM185.712 519.411V488.342L202.104 472.797V503.877L185.712 519.411ZM219.095 487.767L202.702 503.311V472.232L219.095 456.687V487.767ZM219.699 455.536V424.457L236.091 440.002V470.069C235.886 470.159 235.699 470.327 235.554 470.575L219.699 455.536ZM457.928 268.227L440.932 252.117L457.475 236.433L457.626 236.295V204.055L457.928 203.767L457.626 203.479V171.249L440.944 155.427L457.494 139.733L457.645 139.594V106.223L440.195 122.77L440.044 122.909V154.574L440.032 154.564V187.369L424.183 202.398C424.038 202.16 423.851 201.981 423.645 201.892V139.029L406.649 122.919V90.6888L390.492 75.3723C390.522 75.2036 390.54 75.035 390.54 74.8564C390.54 74.6779 390.522 74.5092 390.492 74.3505L406.498 59.1729L406.649 59.034V27.3892L423.023 42.914V107.94L439.476 92.3355C439.694 92.6926 439.99 92.9108 440.316 92.9108C440.968 92.9108 441.5 92.0379 441.5 90.9665C441.5 90.0638 441.125 89.3099 440.618 89.0916V26.8337L457.488 10.8327L457.639 10.6939V-22.677L440.618 -6.53717V-6.56693L423.325 9.83083L406.027 -6.56693V26.2484L389.199 42.2097L389.048 42.3486V72.9915C388.541 73.2097 388.166 73.9636 388.166 74.8664C388.166 75.7691 388.541 76.523 389.048 76.7412V107.384L406.045 123.494V155.149L389.652 170.694V139.039L372.656 122.929V122.353L372.354 122.641L372.052 122.353V122.929L355.206 138.9L355.055 139.039V172.41L371.508 156.806C371.726 157.163 372.021 157.381 372.348 157.381C372.674 157.381 372.976 157.163 373.187 156.806L389.036 171.834V236.87L406.335 220.472L423.029 236.295L439.724 252.127L423.331 267.671L423.029 267.384V267.959L422.727 268.247L423.029 268.535V300.765L440.026 316.875V346.942C439.518 347.16 439.144 347.914 439.144 348.817C439.144 349.888 439.676 350.761 440.328 350.761C440.98 350.761 441.512 349.888 441.512 348.817C441.512 348.639 441.494 348.47 441.463 348.311L457.469 333.134L457.62 332.995V299.624L440.624 315.734V284.655L457.928 268.227ZM440.648 123.484L457.041 107.94V139.019L440.648 154.564V123.484ZM457.022 235.709L440.63 251.254V220.175L457.022 204.63V235.709ZM457.022 202.904L440.63 187.359V156.28L457.022 171.824V202.904ZM440.334 188.222L456.726 203.767L449.279 210.83L440.334 219.311L424.479 204.283C424.503 204.124 424.527 203.955 424.527 203.777C424.527 203.598 424.509 203.43 424.479 203.271L440.334 188.222ZM423.035 171.834V201.892C422.83 201.981 422.643 202.16 422.498 202.398L414.845 195.136L406.649 187.369V156.29L414.845 164.057L423.035 171.834ZM423.627 42.914L440.02 27.3694V58.4488L423.627 74.0033V42.914ZM423.627 106.223V75.1441L440.02 59.5995V89.0916C439.512 89.3099 439.138 90.0638 439.138 90.9665C439.138 91.1451 439.156 91.3137 439.186 91.4724L423.627 106.223ZM440.648 -5.41621L457.041 -20.9609V10.1185L440.648 25.6632V-5.41621ZM440.02 26.2286L423.627 41.7732V10.6939L440.02 -4.85078V26.2286ZM406.631 -4.85078L423.023 10.6939V41.7732L406.649 26.2484V25.6632L406.637 25.6731V-4.85078H406.631ZM406.045 27.3793V58.4587L390.196 73.4875C390.051 73.2494 389.864 73.0708 389.658 72.9816V42.914L406.045 27.3793ZM389.652 106.799V76.7313C389.858 76.642 390.045 76.4734 390.19 76.2254L406.045 91.2542V122.334L389.652 106.799ZM423.035 139.604V170.684L414.839 162.916L406.643 155.149V124.07L423.035 139.604ZM355.665 170.684V139.604L372.058 124.06V153.552C371.55 153.77 371.176 154.524 371.176 155.427C371.176 155.605 371.194 155.774 371.224 155.933L355.665 170.684ZM372.656 153.552V124.06L389.048 139.604V170.684L373.495 155.943C373.519 155.784 373.544 155.615 373.544 155.437C373.544 154.524 373.163 153.77 372.656 153.552ZM389.652 171.834L406.045 156.29V187.369L389.652 202.914V171.834ZM389.652 204.055L406.045 188.51V219.589L389.652 235.134V204.055ZM406.649 219.599V188.52L414.845 196.287L422.202 203.261C422.178 203.42 422.154 203.588 422.154 203.767C422.154 204.67 422.528 205.423 423.035 205.642V235.134L406.649 219.599ZM423.639 205.642C423.845 205.552 424.032 205.384 424.177 205.136L440.026 220.165V251.244L423.633 235.699V205.642H423.639ZM440.032 252.97L440.334 252.682L440.636 252.97L456.726 268.227L440.334 283.772L423.941 268.227L440.032 252.97ZM423.639 269.08L440.032 284.625V315.704L423.639 300.159V269.08ZM457.022 301.31V332.39L441.173 347.418C441.029 347.18 440.841 347.002 440.636 346.912V316.845L457.022 301.31ZM356.547 107.087C356.547 106.908 356.529 106.739 356.499 106.581L372.505 91.403L372.656 91.2641V26.8337L388.414 11.8942C388.631 12.3902 388.982 12.7175 389.38 12.7175C390.033 12.7175 390.564 11.8446 390.564 10.7732C390.564 9.87051 390.19 9.11658 389.682 8.89835V-22.677L372.686 -6.56693V-38.2217L355.085 -54.9071V-21.5263L371.762 -5.71381L355.363 9.84074L339.508 -5.18805C339.532 -5.34677 339.557 -5.51541 339.557 -5.69397C339.557 -6.76534 339.025 -7.63829 338.373 -7.63829C337.72 -7.63829 337.189 -6.76534 337.189 -5.69397C337.189 -4.79125 337.563 -4.03733 338.071 -3.81909V25.6731V58.4785L321.376 74.3108L304.984 58.7662L321.527 43.0827L321.678 42.9438V10.684L321.98 10.3963L321.678 10.1086V-21.5362L338.524 -37.5074L338.675 -37.6463V-71.0271L321.225 -54.4805L321.074 -54.3417V-22.6869L304.682 -38.2316V-38.8069L304.38 -38.5193L287.081 -54.917V-23.7087C286.876 -23.6194 286.688 -23.4409 286.543 -23.2028L270.694 -38.2217V-71.0172L253.698 -54.9071V-54.917L236.248 -38.3705L236.097 -38.2316V-6.57685L219.705 -22.1215V-22.6969L219.403 -22.4092L219.101 -22.6969V-22.1215L202.406 -6.2991L185.108 -22.6969V10.1185L168.715 25.6632V-6.00149L151.115 -22.6869L134.118 -38.797V-5.99158L118.287 9.02731C118.07 8.67019 117.774 8.45195 117.448 8.45195C116.795 8.45195 116.264 9.32491 116.264 10.3963C116.264 11.4676 116.795 12.3406 117.448 12.3406C117.78 12.3406 118.076 12.1223 118.287 11.7652L134.136 26.794V59.5995L151.586 43.0529L151.737 42.914V11.2593L168.129 26.804V59.5995L184.582 43.9953C184.727 44.2334 184.914 44.4119 185.12 44.5012V75.1441L202.72 91.8296V59.5995L219.717 75.7095V42.3387L203.022 26.5163L219.409 10.9815L236.707 27.3793V-5.42613L253.1 -20.9708V42.3387L236.254 58.3099L236.103 58.4488V91.8196L252.556 76.2155C252.774 76.5726 253.07 76.7908 253.396 76.7908C254.048 76.7908 254.58 75.9179 254.58 74.8465C254.58 73.9438 254.205 73.1899 253.698 72.9716V42.9041L270.543 26.9329L270.694 26.794V-4.85078L287.087 10.6939V40.7614C286.58 40.9796 286.205 41.7336 286.205 42.6363C286.205 42.8148 286.223 42.9835 286.254 43.1422L270.247 58.3198L270.096 58.4587V91.8296L287.395 75.4318L304.392 91.5419L321.388 75.4318L338.385 91.5419L355.079 75.7095V105.202C354.572 105.42 354.197 106.174 354.197 107.077C354.197 108.148 354.729 109.021 355.381 109.021C356.015 109.031 356.547 108.158 356.547 107.087ZM372.052 90.6888L356.203 105.718C356.058 105.479 355.871 105.301 355.665 105.212V75.1441L355.967 74.8564L372.058 59.5995V90.6888H372.052ZM338.669 27.3793L355.061 42.924V74.0033L338.669 58.4587V27.3793ZM355.665 42.914L372.058 27.3694V58.4488L355.665 73.9934V42.914ZM372.052 26.2286L355.659 41.7732V10.6939L372.052 -4.85078V26.2286ZM389.072 -20.9609V8.88843C388.565 9.10667 388.191 9.86059 388.191 10.7633C388.191 10.8228 388.197 10.8823 388.203 10.9419L372.686 25.6532V-5.41621L389.072 -20.9609ZM355.689 -53.1909L372.082 -37.6463V-6.56693L355.689 -22.1116V-53.1909ZM338.669 -3.82902C338.874 -3.9183 339.061 -4.08693 339.206 -4.33493L355.055 10.6939V41.7732L338.663 26.2286V-3.82902H338.669ZM304.38 25.9409L287.987 10.3963L295.434 3.33323L304.38 -5.14837L320.772 10.3963L313.325 17.4593L304.38 25.9409ZM287.685 -19.949C287.89 -20.0383 288.078 -20.2069 288.223 -20.4549L303.77 -5.71381L287.679 9.54315V-19.949H287.685ZM304.078 -6.57685L288.525 -21.3279C288.549 -21.4866 288.573 -21.6553 288.573 -21.8338C288.573 -22.0124 288.555 -22.181 288.525 -22.3397L304.078 -37.0908V-6.57685ZM304.078 26.804V57.8833L288.525 43.1323C288.549 42.9736 288.573 42.8049 288.573 42.6264C288.573 41.7236 288.198 40.9697 287.691 40.7515V11.2593L304.078 26.804ZM287.685 44.5112C287.89 44.4219 288.078 44.2433 288.223 44.0052L303.77 58.7464L287.679 74.0033V44.5112H287.685ZM321.074 42.3387L304.682 57.8833V26.804L321.074 11.2593V42.3387ZM321.678 -53.7663L338.071 -69.3109V-38.2316L321.678 -22.6869V-53.7663ZM321.074 -21.5362V9.54315L304.682 -6.00149V-37.0809L321.074 -21.5362ZM303.776 -37.9439L288.229 -23.2028C288.084 -23.4409 287.896 -23.6194 287.691 -23.7087V-53.2009L303.776 -37.9439ZM270.09 -69.301V-38.2217L253.698 -22.677V-53.7564L270.09 -69.301ZM219.107 -20.9708V10.1086L202.714 25.6532V-5.42613L219.107 -20.9708ZM185.724 -20.9708L202.116 -5.42613V25.6532L193.92 17.8859L185.724 10.1185V-20.9708ZM202.11 57.8833L193.914 50.116L186.557 43.1422C186.581 42.9835 186.606 42.8148 186.606 42.6363C186.606 41.7336 186.231 40.9796 185.724 40.7614V11.2593L193.92 19.0267L202.116 26.794V57.8833H202.11ZM168.123 25.6532L151.731 10.1086V-20.9708L168.123 -5.42613V25.6532ZM134.74 -37.0809L151.133 -21.5362V9.54315L134.74 -6.00149V-37.0809ZM118.583 9.89035L134.438 -5.13846L150.831 10.4062L143.383 17.4692L134.438 25.9508L118.583 10.9121C118.607 10.7534 118.631 10.5847 118.631 10.4062C118.631 10.2276 118.613 10.059 118.583 9.89035ZM151.133 42.3387L134.74 57.8833V26.804L151.133 11.2593V42.3387ZM168.727 57.8833V26.804L185.12 11.2593V40.7515C184.612 40.9697 184.238 41.7236 184.238 42.6264C184.238 42.8049 184.256 42.9736 184.286 43.1323L168.727 57.8833ZM202.11 90.1035L185.718 74.5588V44.4913C185.923 44.402 186.11 44.2334 186.255 43.9854L193.908 51.2468L202.104 59.0142V90.1035H202.11ZM219.107 73.9934L202.714 58.4488V27.3694L219.107 42.914V73.9934ZM236.103 25.6532L219.711 10.1185V-20.9708L236.103 -5.42613V25.6532ZM236.707 -6.56693V-37.6562L253.1 -53.2009V-22.1215L236.707 -6.56693ZM270.09 -37.0709V-6.00149L253.698 9.54315V-21.5362L270.09 -37.0709ZM236.707 90.1134V59.034L253.1 43.4894V72.9816C252.593 73.1998 252.218 73.9537 252.218 74.8564C252.218 75.035 252.236 75.2036 252.266 75.3624L236.707 90.1134ZM270.09 26.2286L253.698 41.7732V10.6939L270.09 -4.85078V26.2286ZM270.694 -37.0809L286.247 -22.3397C286.223 -22.181 286.199 -22.0124 286.199 -21.8338C286.199 -20.9311 286.574 -20.1772 287.081 -19.9589V9.53323L270.694 -6.00149V-37.0809ZM270.694 59.034L286.543 44.0052C286.688 44.2433 286.876 44.4219 287.081 44.5112V74.5787L270.688 90.1233V59.034H270.694ZM304.38 90.4011L287.987 74.8564L304.078 59.5995L304.38 59.3118L304.682 59.5995L320.772 74.8564L304.38 90.4011ZM321.98 74.8564L338.373 59.3118L354.765 74.8564L338.373 90.4011L321.98 74.8564Z" fill="url(#paint0_linear_807_17034)" fill-opacity="0.04"/>
<defs>
<linearGradient id="paint0_linear_807_17034" x1="79.2191" y1="604.434" x2="616.703" y2="132.166" gradientUnits="userSpaceOnUse">
<stop stop-color="#C8CACC"/>
<stop offset="0.1387" stop-color="#D5D6D7"/>
<stop offset="0.3812" stop-color="#E4E5E6"/>
<stop offset="0.5713" stop-color="#EAEBEB"/>
<stop offset="0.7471" stop-color="#EEEFEF"/>
<stop offset="0.9274" stop-color="#FAFAFB"/>
<stop offset="0.976" stop-color="white"/>
</linearGradient>
</defs>
</svg>
