<svg width="170" height="48" viewBox="0 0 170 48" fill="none" xmlns="http://www.w3.org/2000/svg">
<rect x="0.399902" y="19.2" width="9.59998" height="9.59999" fill="#079455"/>
<rect x="29.2" y="28.8" width="9.6" height="9.59999" transform="rotate(180 29.2 28.8)" fill="#067647"/>
<path d="M10 19.2001L19.6 9.6001V19.2001L10 28.8001V19.2001Z" fill="#ABEFC6"/>
<path d="M19.5999 28.7999L9.99987 38.3999L9.99987 28.7999L19.5999 19.1999L19.5999 28.7999Z" fill="#75E0A7"/>
<path d="M0.399902 19.2L19.5999 0V9.59999L9.99989 19.2H0.399902Z" fill="#47CD89"/>
<path d="M29.2 28.8L9.99997 48L9.99997 38.4L19.6 28.8L29.2 28.8Z" fill="#17B26A"/>
<path d="M50.1079 34.28C48.5959 34.28 47.1305 34.0654 45.7119 33.636C44.3119 33.2067 43.2012 32.6374 42.3799 31.928L43.6399 29.1C44.4425 29.7347 45.4225 30.2574 46.5799 30.668C47.7559 31.06 48.9319 31.256 50.1079 31.256C51.5639 31.256 52.6465 31.0227 53.3559 30.556C54.0839 30.0894 54.4479 29.4734 54.4479 28.708C54.4479 28.148 54.2425 27.6907 53.8319 27.336C53.4399 26.9627 52.9359 26.6734 52.3199 26.468C51.7039 26.2627 50.8639 26.0294 49.7999 25.768C48.3065 25.4134 47.0932 25.0587 46.1599 24.704C45.2452 24.3494 44.4519 23.7987 43.7799 23.052C43.1265 22.2867 42.7999 21.26 42.7999 19.972C42.7999 18.8894 43.0892 17.9094 43.6679 17.032C44.2652 16.136 45.1519 15.4267 46.3279 14.904C47.5225 14.3814 48.9785 14.12 50.6959 14.12C51.8905 14.12 53.0665 14.2694 54.2239 14.568C55.3812 14.8667 56.3799 15.296 57.2199 15.856L56.0719 18.684C55.2132 18.18 54.3172 17.7974 53.3839 17.536C52.4505 17.2747 51.5452 17.144 50.6679 17.144C49.2305 17.144 48.1572 17.3867 47.4479 17.872C46.7572 18.3574 46.4119 19.0014 46.4119 19.804C46.4119 20.364 46.6079 20.8214 46.9999 21.176C47.4105 21.5307 47.9239 21.8107 48.5399 22.016C49.1559 22.2214 49.9959 22.4547 51.0599 22.716C52.5159 23.052 53.7105 23.4067 54.6439 23.78C55.5772 24.1347 56.3705 24.6854 57.0239 25.432C57.6959 26.1787 58.0319 27.1867 58.0319 28.456C58.0319 29.5387 57.7332 30.5187 57.1359 31.396C56.5572 32.2734 55.6705 32.9734 54.4759 33.496C53.2812 34.0187 51.8252 34.28 50.1079 34.28Z" fill="#699691"/>
<path d="M61.3053 19.048H64.8053V34H61.3053V19.048ZM63.0692 16.584C62.4346 16.584 61.9026 16.388 61.4733 15.996C61.0439 15.5854 60.8293 15.0814 60.8293 14.484C60.8293 13.8867 61.0439 13.392 61.4733 13C61.9026 12.5894 62.4346 12.384 63.0692 12.384C63.7039 12.384 64.2359 12.58 64.6652 12.972C65.0946 13.3454 65.3092 13.8214 65.3092 14.4C65.3092 15.016 65.0946 15.5387 64.6652 15.968C64.2546 16.3787 63.7226 16.584 63.0692 16.584Z" fill="#699691"/>
<path d="M74.019 34.196C72.8057 34.196 71.6203 34.0374 70.463 33.72C69.3057 33.4027 68.3817 33.0014 67.691 32.516L69.035 29.856C69.707 30.304 70.5097 30.668 71.443 30.948C72.395 31.2094 73.3283 31.34 74.243 31.34C76.3337 31.34 77.379 30.7894 77.379 29.688C77.379 29.1654 77.1083 28.8014 76.567 28.596C76.0443 28.3907 75.195 28.1947 74.019 28.008C72.787 27.8214 71.779 27.6067 70.995 27.364C70.2297 27.1214 69.5577 26.7014 68.979 26.104C68.419 25.488 68.139 24.6387 68.139 23.556C68.139 22.1374 68.727 21.008 69.903 20.168C71.0977 19.3094 72.703 18.88 74.719 18.88C75.7457 18.88 76.7723 19.0014 77.799 19.244C78.8257 19.468 79.6657 19.776 80.319 20.168L78.975 22.828C77.7057 22.0814 76.2777 21.708 74.691 21.708C73.6643 21.708 72.8803 21.8667 72.339 22.184C71.8163 22.4827 71.555 22.884 71.555 23.388C71.555 23.948 71.835 24.3494 72.395 24.592C72.9737 24.816 73.8603 25.0307 75.055 25.236C76.2497 25.4227 77.2297 25.6374 77.995 25.88C78.7603 26.1227 79.4137 26.5334 79.955 27.112C80.515 27.6907 80.795 28.512 80.795 29.576C80.795 30.976 80.1883 32.096 78.975 32.936C77.7617 33.776 76.1097 34.196 74.019 34.196Z" fill="#699691"/>
<path d="M97.5357 19.048L90.5357 35.204C89.8824 36.828 89.089 37.9667 88.1557 38.62C87.2224 39.292 86.093 39.628 84.7677 39.628C84.021 39.628 83.2837 39.5067 82.5557 39.264C81.8277 39.0214 81.2304 38.6854 80.7637 38.256L82.1637 35.68C82.4997 35.9974 82.8917 36.2494 83.3397 36.436C83.8064 36.6227 84.273 36.716 84.7397 36.716C85.3557 36.716 85.8597 36.5574 86.2517 36.24C86.6624 35.9227 87.0357 35.3907 87.3717 34.644L87.6237 34.056L81.0997 19.048H84.7397L89.4437 30.108L94.1757 19.048H97.5357Z" fill="#699691"/>
<path d="M108.011 18.88C109.467 18.88 110.765 19.1974 111.903 19.832C113.061 20.4667 113.966 21.3627 114.619 22.52C115.273 23.6774 115.599 25.012 115.599 26.524C115.599 28.036 115.273 29.38 114.619 30.556C113.966 31.7134 113.061 32.6094 111.903 33.244C110.765 33.8787 109.467 34.196 108.011 34.196C105.995 34.196 104.399 33.524 103.223 32.18V39.432H99.7232V19.048H103.055V21.008C103.634 20.2987 104.343 19.7667 105.183 19.412C106.042 19.0574 106.985 18.88 108.011 18.88ZM107.619 31.2C108.907 31.2 109.962 30.7707 110.783 29.912C111.623 29.0534 112.043 27.924 112.043 26.524C112.043 25.124 111.623 23.9947 110.783 23.136C109.962 22.2774 108.907 21.848 107.619 21.848C106.779 21.848 106.023 22.044 105.351 22.436C104.679 22.8094 104.147 23.3507 103.755 24.06C103.363 24.7694 103.167 25.5907 103.167 26.524C103.167 27.4574 103.363 28.2787 103.755 28.988C104.147 29.6974 104.679 30.248 105.351 30.64C106.023 31.0134 106.779 31.2 107.619 31.2Z" fill="#699691"/>
<path d="M127.402 18.88C129.288 18.88 130.8 19.4307 131.938 20.532C133.077 21.6334 133.646 23.2667 133.646 25.432V34H130.146V25.88C130.146 24.5734 129.839 23.5934 129.222 22.94C128.606 22.268 127.729 21.932 126.59 21.932C125.303 21.932 124.285 22.324 123.539 23.108C122.792 23.8734 122.419 24.984 122.419 26.44V34H118.919V13.224H122.419V20.784C122.997 20.168 123.707 19.7014 124.547 19.384C125.405 19.048 126.357 18.88 127.402 18.88Z" fill="#699691"/>
<path d="M152.562 19.048V34H149.23V32.096C148.67 32.768 147.97 33.2907 147.13 33.664C146.29 34.0187 145.385 34.196 144.414 34.196C142.417 34.196 140.84 33.6454 139.682 32.544C138.544 31.424 137.974 29.772 137.974 27.588V19.048H141.474V27.112C141.474 28.456 141.773 29.464 142.37 30.136C142.986 30.7894 143.854 31.116 144.974 31.116C146.225 31.116 147.214 30.7334 147.942 29.968C148.689 29.184 149.062 28.064 149.062 26.608V19.048H152.562Z" fill="#699691"/>
<path d="M161.765 34.196C160.552 34.196 159.366 34.0374 158.209 33.72C157.052 33.4027 156.128 33.0014 155.437 32.516L156.781 29.856C157.453 30.304 158.256 30.668 159.189 30.948C160.141 31.2094 161.074 31.34 161.989 31.34C164.08 31.34 165.125 30.7894 165.125 29.688C165.125 29.1654 164.854 28.8014 164.313 28.596C163.79 28.3907 162.941 28.1947 161.765 28.008C160.533 27.8214 159.525 27.6067 158.741 27.364C157.976 27.1214 157.304 26.7014 156.725 26.104C156.165 25.488 155.885 24.6387 155.885 23.556C155.885 22.1374 156.473 21.008 157.649 20.168C158.844 19.3094 160.449 18.88 162.465 18.88C163.492 18.88 164.518 19.0014 165.545 19.244C166.572 19.468 167.412 19.776 168.065 20.168L166.721 22.828C165.452 22.0814 164.024 21.708 162.437 21.708C161.41 21.708 160.626 21.8667 160.085 22.184C159.562 22.4827 159.301 22.884 159.301 23.388C159.301 23.948 159.581 24.3494 160.141 24.592C160.72 24.816 161.606 25.0307 162.801 25.236C163.996 25.4227 164.976 25.6374 165.741 25.88C166.506 26.1227 167.16 26.5334 167.701 27.112C168.261 27.6907 168.541 28.512 168.541 29.576C168.541 30.976 167.934 32.096 166.721 32.936C165.508 33.776 163.856 34.196 161.765 34.196Z" fill="#699691"/>
</svg>
