<svg width="65" height="56" viewBox="0 0 65 56" fill="none" xmlns="http://www.w3.org/2000/svg">
<path fill-rule="evenodd" clip-rule="evenodd" d="M39.0451 23.2754C39.0302 22.1932 38.8886 21.1017 38.6053 20.0027C37.6119 16.146 33.1797 13.67 28.4624 13.0879C23.747 12.5058 18.8433 13.8305 16.9534 17.1853C15.8724 19.1033 15.7233 20.7565 16.165 22.1503C16.6049 23.5366 17.6485 24.6859 19.065 25.5815C23.0144 28.0761 29.9311 28.5855 33.0866 27.5425C34.5459 27.0592 35.9717 26.4771 37.3602 25.811C36.5662 30.1715 33.6084 34.3024 29.6608 38.0248C21.0817 46.115 7.76849 52.2554 0.518255 54.5131C0.128718 54.6344 -0.0875022 55.0486 0.0336456 55.4385C0.154793 55.8285 0.568553 56.0468 0.95809 55.9255C8.35184 53.6231 21.9242 47.3521 30.6729 39.1014C35.1926 34.8398 38.4133 30.0427 38.9631 24.9994C49.1806 19.5344 57.5714 9.61934 64.7453 1.27534C65.0118 0.967479 64.9764 0.499138 64.667 0.232324C64.3576 -0.0326238 63.8916 0.000946637 63.6251 0.310675C56.7439 8.31323 48.7575 17.8327 39.0451 23.2754ZM37.5597 24.0683C37.6156 22.8518 37.4963 21.6166 37.1739 20.3702C36.3146 17.0323 32.3652 15.0582 28.2816 14.5545C25.7785 14.2466 23.2046 14.5004 21.1861 15.4034C19.9168 15.9706 18.8712 16.7935 18.2412 17.913C17.4137 19.3814 17.2347 20.6371 17.574 21.7025C17.9132 22.7753 18.7557 23.6373 19.8535 24.3295C23.4525 26.604 29.7503 27.0873 32.6224 26.1376C34.3166 25.5778 35.9606 24.88 37.5597 24.0683Z" fill="#12B76A"/>
</svg>
