<svg width="828" height="657" viewBox="0 0 828 657" fill="none" xmlns="http://www.w3.org/2000/svg">
<mask id="mask0_783_1453" style="mask-type:luminance" maskUnits="userSpaceOnUse" x="0" y="0" width="828" height="657">
<path d="M827.393 0H0V657H827.393V0Z" fill="white"/>
</mask>
<g mask="url(#mask0_783_1453)">
<path d="M432.051 689.551V650.5L399.916 629.236V671.043L369.985 690.853V649.779L338.401 670.677L307.919 650.513V612.195C308.845 611.917 309.529 610.956 309.529 609.806C309.529 609.578 309.496 609.363 309.441 609.161L338.665 589.819L338.941 589.642V547.115L307.368 568.012L276.335 547.469L245.301 567.999L214.82 547.823V507.483L246.404 486.586L214.82 465.689V423.882L182.96 444.969L182.684 445.146V485.486L154.286 466.687C154.331 466.485 154.375 466.27 154.375 466.043C154.375 464.892 153.691 463.931 152.765 463.653V384.262L183.522 363.909L183.798 363.732V321.205L151.937 342.291L151.662 342.468V383.542L121.18 403.718L91.2498 383.908L121.456 363.922L121.731 363.745V321.217L89.8713 342.304L89.5956 342.481V423.895L61.1982 405.096C61.2423 404.894 61.2864 404.679 61.2864 404.451C61.2864 403.301 60.6027 402.34 59.6763 402.062V363.011L29.2387 342.848L59.169 323.038L59.7204 323.404V322.671L60.2718 322.304L59.7204 321.938V280.864L30.2202 261.345C30.2643 261.143 30.3084 260.928 30.3084 260.701C30.3084 259.335 29.338 258.223 28.1469 258.223C26.9559 258.223 25.9854 259.335 25.9854 260.701C25.9854 261.851 26.6692 262.812 27.5955 263.09V301.407L-4 322.304L27.0331 342.835L-3.17289 362.834L-3.44859 363.011V404.085L-4 404.451L-3.44859 404.818V445.891L27.011 466.055L-3.20598 486.055L-3.48168 486.232V528.759L28.3785 507.672L28.6542 507.495V467.142L28.6763 467.155V425.348L57.614 406.196C57.8787 406.499 58.2206 406.727 58.5955 406.841V445.891L89.0772 466.055L58.8712 486.042L58.5955 486.219V527.305L29.6798 546.445C29.2828 545.99 28.7425 545.712 28.1469 545.712C26.9559 545.712 25.9854 546.824 25.9854 548.189C25.9854 549.34 26.6692 550.301 27.5955 550.579V629.919L-3.19495 650.31L-3.47065 650.487V693.015L-3.42654 692.977V733.355L27.6066 753.885V754.618L28.158 754.252L28.7094 754.618V753.885L59.4668 733.532L59.7425 733.355V690.828L29.6909 710.726C29.2939 710.271 28.7535 709.993 28.158 709.993C27.5514 709.993 27.011 710.271 26.6251 710.726L-1.79438 691.915L27.6066 672.459V672.497L59.1911 651.6L90.7756 672.497V630.678L121.5 610.337L121.776 610.16V571.109C122.702 570.831 123.386 569.87 123.386 568.72C123.386 567.354 122.415 566.242 121.224 566.242C120.033 566.242 119.063 567.354 119.063 568.72C119.063 568.947 119.096 569.162 119.151 569.365L89.9264 588.707L89.6507 588.884V629.211L59.7535 609.427V528L90.2021 507.849L121.787 528.746V486.952L150.724 467.8C150.989 468.103 151.331 468.331 151.706 468.444V507.495L181.206 527.014C181.162 527.217 181.118 527.431 181.118 527.659C181.118 527.887 181.151 528.101 181.206 528.304L151.982 547.646L151.706 547.823V629.919L122.945 648.958C122.548 648.326 121.908 647.909 121.18 647.909C119.989 647.909 119.019 649.021 119.019 650.386C119.019 651.537 119.702 652.497 120.629 652.776V693.015L151.662 672.484V712.824L183.798 734.088V691.561L153.349 671.41L183.29 651.587L212.239 670.74C212.195 670.942 212.151 671.157 212.151 671.384C212.151 672.75 213.121 673.862 214.312 673.862C215.503 673.862 216.474 672.75 216.474 671.384C216.474 670.234 215.79 669.273 214.864 668.995V589.617L245.346 569.44L275.276 589.25L245.07 609.237L244.794 609.414V650.487L244.243 650.854L244.794 651.221V691.561L214.037 711.914L213.761 712.091V754.618L245.621 733.532L245.897 733.355V693.015L275.827 712.824V713.558L276.379 713.191L307.963 734.088V694.317C308.338 694.203 308.68 693.975 308.945 693.672L337.871 712.837V754.631L368.904 734.101V734.113L400.765 713.027L401.04 712.85V672.51L429.438 691.308C429.394 691.51 429.35 691.725 429.35 691.953C429.35 693.318 430.32 694.431 431.511 694.431C432.702 694.431 433.673 693.318 433.673 691.953C433.673 690.79 432.978 689.842 432.051 689.551ZM90.7425 343.202L120.673 323.392V362.999L90.7425 382.808V343.202ZM27.5514 506.762L-2.36784 526.572V486.965L27.5624 467.155V506.762H27.5514ZM58.6286 693.027V732.634L28.7094 752.444V714.86C29.6357 714.582 30.3195 713.621 30.3195 712.471C30.3195 712.243 30.2864 712.028 30.2313 711.826L58.6286 693.027ZM27.6066 714.86V752.444L-2.32373 732.634V693.027L26.0737 711.826C26.0295 712.028 25.9854 712.243 25.9854 712.471C25.9854 713.621 26.6802 714.582 27.6066 714.86ZM368.893 691.573L338.974 711.371V671.764L368.904 651.954V691.573H368.893ZM306.838 689.551C306.463 689.665 306.121 689.88 305.857 690.196L277.47 671.41L306.849 651.966V689.551H306.838ZM276.908 629.97V590.363L305.305 609.161C305.261 609.363 305.217 609.578 305.217 609.806C305.217 610.956 305.901 611.917 306.827 612.195V649.779L276.908 629.97ZM306.838 607.417C306.463 607.53 306.121 607.758 305.857 608.061L277.47 589.276L306.849 569.832V607.417H306.838ZM276.357 631.07L306.287 650.879L292.689 659.88L276.357 670.689L246.426 650.879L260.024 641.878L276.357 631.07ZM276.908 672.51L305.305 691.308C305.261 691.51 305.217 691.725 305.217 691.953C305.217 692.18 305.25 692.395 305.305 692.597L276.908 711.396V672.51ZM337.871 588.896L308.934 608.049C308.669 607.745 308.327 607.518 307.952 607.404V569.086L337.871 549.289V588.896ZM183.831 525.27V487.685L213.761 507.495V547.102L185.353 528.304C185.397 528.101 185.441 527.887 185.441 527.659C185.441 526.509 184.757 525.548 183.831 525.27ZM183.831 530.048C184.206 529.935 184.548 529.707 184.812 529.404L213.199 548.189L183.831 567.633V530.048ZM214.301 506.395L184.371 486.586L199.05 476.877L214.301 466.788L244.232 486.598L214.301 506.395ZM183.831 445.879L213.761 426.069V465.676L183.831 485.486V445.879ZM152.798 343.202L182.728 323.392V362.999L152.798 382.808V343.202ZM151.695 424.615L141.902 431.1L121.765 444.425V404.818L151.695 385.008V424.615ZM120.662 485.498L105.697 475.6L90.7315 465.701V426.094L105.697 435.993L120.662 445.891V485.498ZM90.7425 385.008L120.673 404.818V444.425L105.708 434.526L90.7425 424.628V385.008ZM58.6066 402.062C58.2316 402.176 57.8897 402.391 57.6251 402.707L28.6873 383.554V343.947L58.6176 363.757V402.062H58.6066ZM58.6066 281.598V321.205L28.6763 301.395V263.077C29.0512 262.964 29.3931 262.749 29.6578 262.433L58.6066 281.598ZM28.1359 302.507L58.0662 322.317L28.6873 341.76L28.1359 342.127L27.5845 341.76L-1.79438 322.304L28.1359 302.507ZM-2.34578 363.745L27.5845 343.935V383.542L-2.34578 403.352V363.745ZM-2.34578 405.551L27.5845 425.361V464.968L-2.34578 445.158V405.551ZM28.1359 424.261L-1.79438 404.451L11.8033 395.45L28.1359 384.642L57.0847 403.794C57.0406 403.996 56.9965 404.211 56.9965 404.439C56.9965 404.666 57.0296 404.881 57.0847 405.083L28.1359 424.261ZM59.7094 406.841C60.0843 406.727 60.4262 406.512 60.6909 406.196L89.6286 425.348V464.955L59.6984 445.146V406.841H59.7094ZM59.7094 486.952L89.6397 467.142V506.749L59.7094 526.559V486.952ZM28.7094 550.591C29.6357 550.313 30.3195 549.352 30.3195 548.202C30.3195 547.974 30.2864 547.76 30.2313 547.557L58.6286 528.759V568.366L28.6983 588.176V550.591H28.7094ZM58.6286 609.439L28.6983 629.249V589.642L58.6286 569.832V609.439ZM27.5514 671.03L-2.36784 690.84V651.233L27.5624 631.423V671.03H27.5514ZM28.7094 630.703L58.6397 610.893V650.5L28.7094 670.31V630.703ZM90.7425 589.629L119.68 570.477C119.945 570.78 120.287 571.008 120.662 571.122V609.439L90.7315 629.249V589.629H90.7425ZM89.6617 631.411V670.31L59.7314 650.5V610.893L89.6286 630.678V631.423L89.6617 631.411ZM120.662 526.559L90.7315 506.749V467.142L105.697 477.041L120.662 486.94V526.559ZM121.765 485.498V445.891L138.869 434.577L151.695 426.094V463.678C150.768 463.957 150.085 464.917 150.085 466.068C150.085 466.295 150.118 466.51 150.173 466.713L121.765 485.498ZM152.798 506.762V468.444C153.173 468.331 153.514 468.116 153.779 467.8L182.717 486.952V525.27C182.342 525.383 182 525.598 181.735 525.914L152.798 506.762ZM152.798 548.569L181.735 529.416C182 529.72 182.342 529.947 182.717 530.061V568.378L182.165 568.745L152.787 588.188V548.569H152.798ZM152.798 630.703L182.728 610.893V650.5L152.798 670.31V630.703ZM182.728 609.439L152.798 629.249V589.642L182.728 569.832V609.439ZM121.72 690.84V652.801C122.647 652.523 123.331 651.562 123.331 650.412C123.331 650.336 123.32 650.26 123.308 650.184L151.64 631.436V671.043L121.72 690.84ZM182.673 731.914L152.743 712.104V672.497L182.673 692.307V731.914ZM213.75 669.02C213.375 669.134 213.033 669.349 212.768 669.665L183.831 650.513V610.906L213.761 630.716V669.02H213.75ZM183.831 609.439V569.832L213.761 589.642V629.249L183.831 609.439ZM214.301 588.542L184.371 568.732L214.29 548.923L214.842 549.289L244.221 568.732L214.301 588.542ZM276.357 548.923L306.287 568.732L276.908 588.176L276.357 588.542L275.805 588.176L246.426 568.732L276.357 548.923ZM245.886 610.172L275.816 590.363V629.97L245.886 649.779V610.172ZM244.783 732.647L214.853 752.457V712.85L244.783 693.04V732.647ZM245.886 691.586V651.979L275.816 671.789V711.396L245.886 691.586ZM277.459 712.483L305.846 693.697C306.11 694.001 306.452 694.228 306.827 694.342V731.926L277.459 712.483ZM307.941 689.551V651.966L337.871 671.776V711.383L309.474 692.585C309.518 692.383 309.562 692.168 309.562 691.94C309.551 690.79 308.867 689.842 307.941 689.551ZM338.974 752.444V712.85L368.904 693.04V732.647L338.974 752.444ZM399.927 712.117L369.996 731.926V692.319L399.927 672.51V712.117ZM401.029 671.043V631.436L430.96 651.246V689.563C430.585 689.677 430.243 689.892 429.978 690.208L401.029 671.043ZM836 432.339L804.967 411.809L835.173 391.822L835.449 391.645V350.559L836 350.192L835.449 349.826V308.752L804.989 288.589L835.206 268.589L835.482 268.412V225.885L803.622 246.972L803.346 247.149V287.501L803.324 287.489V329.295L774.386 348.448C774.121 348.144 773.779 347.917 773.404 347.803V267.692L742.371 247.161V206.088L712.871 186.569C712.926 186.354 712.959 186.139 712.959 185.911C712.959 185.684 712.926 185.469 712.871 185.267L742.096 165.925L742.371 165.748V125.42L772.269 145.205V228.072L802.309 208.186C802.706 208.641 803.247 208.92 803.842 208.92C805.033 208.92 806.004 207.807 806.004 206.442C806.004 205.291 805.32 204.331 804.393 204.052V124.712L835.195 104.321L835.471 104.144V61.6165L804.393 82.1848V82.1469L772.82 103.044L741.235 82.1469V123.966L710.511 144.307L710.235 144.484V183.535C709.309 183.813 708.625 184.774 708.625 185.924C708.625 187.074 709.309 188.035 710.235 188.313V227.364L741.269 247.894V288.235L711.338 308.044V267.704L680.305 247.174V246.441L679.754 246.807L679.202 246.441V247.174L648.445 267.527L648.169 267.704V310.231L678.21 290.346C678.607 290.801 679.147 291.079 679.743 291.079C680.338 291.079 680.89 290.801 681.276 290.346L710.213 309.498V392.378L741.798 371.481L772.28 391.645L802.761 411.822L772.831 431.631L772.28 431.265V431.998L771.728 432.365L772.28 432.731V473.805L803.313 494.335V532.653C802.386 532.931 801.703 533.891 801.703 535.042C801.703 536.407 802.673 537.52 803.864 537.52C805.055 537.52 806.026 536.407 806.026 535.042C806.026 534.814 805.992 534.599 805.937 534.397L835.162 515.055L835.438 514.878V472.351L804.404 492.881V453.274L836 432.339ZM804.449 247.882L834.379 228.072V267.679L804.449 287.489V247.882ZM834.346 390.899L804.415 410.709V371.102L834.346 351.292V390.899ZM834.346 349.093L804.415 329.283V289.676L834.346 309.486V349.093ZM803.875 330.383L833.805 350.192L820.208 359.193L803.875 370.002L774.926 350.85C774.97 350.648 775.015 350.433 775.015 350.205C775.015 349.978 774.982 349.763 774.926 349.56L803.875 330.383ZM772.291 309.498V347.803C771.916 347.917 771.574 348.144 771.309 348.448L757.336 339.194L742.371 329.295V289.688L757.336 299.587L772.291 309.498ZM773.371 145.205L803.302 125.395V165.002L773.371 184.824V145.205ZM773.371 225.885V186.278L803.302 166.468V204.052C802.375 204.331 801.692 205.291 801.692 206.442C801.692 206.669 801.725 206.884 801.78 207.086L773.371 225.885ZM804.449 83.6133L834.379 63.8035V103.41L804.449 123.22V83.6133ZM803.302 123.941L773.371 143.751V104.144L803.302 84.3339V123.941ZM742.338 84.3339L772.269 104.144V143.751L742.371 123.966V123.22L742.349 123.233V84.3339H742.338ZM741.269 125.407V165.014L712.331 184.167C712.066 183.863 711.724 183.636 711.349 183.522V145.205L741.269 125.407ZM711.338 226.618V188.301C711.713 188.187 712.055 187.972 712.32 187.656L741.269 206.808V246.415L711.338 226.618ZM772.291 268.425V308.032L757.325 298.133L742.36 288.235V248.628L772.291 268.425ZM649.283 308.032V268.425L679.213 248.615V286.199C678.287 286.477 677.603 287.438 677.603 288.589C677.603 288.816 677.636 289.031 677.692 289.233L649.283 308.032ZM680.305 286.199V248.615L710.235 268.425V308.032L681.838 289.246C681.882 289.044 681.926 288.829 681.926 288.601C681.926 287.438 681.232 286.477 680.305 286.199ZM711.338 309.498L741.269 289.688V329.295L711.338 349.105V309.498ZM711.338 350.559L741.269 330.749V370.356L711.338 390.166V350.559ZM742.371 370.369V330.762L757.336 340.66L770.769 349.548C770.725 349.75 770.681 349.965 770.681 350.192C770.681 351.343 771.364 352.304 772.291 352.582V390.166L742.371 370.369ZM773.393 352.582C773.768 352.468 774.11 352.253 774.375 351.937L803.313 371.089V410.696L773.382 390.887V352.582H773.393ZM803.324 412.896L803.875 412.53L804.427 412.896L833.805 432.339L803.875 452.149L773.945 432.339L803.324 412.896ZM773.393 433.427L803.324 453.236V492.843L773.393 473.033V433.427ZM834.346 474.5V514.107L805.408 533.259C805.143 532.956 804.801 532.728 804.427 532.615V494.297L834.346 474.5ZM650.893 226.985C650.893 226.757 650.86 226.542 650.805 226.34L680.029 206.998L680.305 206.821V124.712L709.077 105.673C709.474 106.305 710.114 106.723 710.842 106.723C712.033 106.723 713.003 105.61 713.003 104.245C713.003 103.094 712.32 102.134 711.393 101.856V61.6165L680.36 82.1469V41.8067L648.224 20.543V63.0829L678.673 83.2341L648.732 103.057L619.783 83.9041C619.827 83.7018 619.871 83.4869 619.871 83.2594C619.871 81.894 618.901 80.7815 617.71 80.7815C616.519 80.7815 615.548 81.894 615.548 83.2594C615.548 84.4098 616.232 85.3705 617.158 85.6487V123.233V165.04L586.677 185.216L556.746 165.406L586.952 145.419L587.228 145.242V104.131L587.779 103.764L587.228 103.398V63.0703L617.985 42.7169L618.261 42.5399V0L586.401 21.0866L586.125 21.2636V61.6038L556.195 41.794V41.0608L555.643 41.4274L524.059 20.5304V60.3017C523.684 60.4155 523.342 60.643 523.077 60.9465L494.14 41.8067V0.0126419L463.107 20.543V20.5304L431.246 41.617L430.971 41.794V82.1342L401.04 62.3244V61.5912L400.489 61.9578L399.938 61.5912V62.3244L369.456 82.4882L337.871 61.5912V103.41L307.941 123.22V82.8675L275.805 61.6038L244.772 41.0734V82.8801L215.867 102.02C215.47 101.565 214.93 101.287 214.334 101.287C213.143 101.287 212.173 102.399 212.173 103.764C212.173 105.13 213.143 106.242 214.334 106.242C214.941 106.242 215.481 105.964 215.867 105.509L244.805 124.661V166.468L276.665 145.382L276.941 145.205V104.864L306.871 124.674V166.468L336.912 146.582C337.177 146.886 337.518 147.113 337.893 147.227V186.278L370.029 207.542V166.468L401.062 186.999V144.471L370.581 124.308L400.5 104.51L432.085 125.407V83.6007L462.015 63.7909V144.471L431.257 164.825L430.982 165.002V207.529L461.022 187.643C461.419 188.098 461.96 188.376 462.555 188.376C463.746 188.376 464.717 187.264 464.717 185.899C464.717 184.748 464.033 183.788 463.107 183.509V145.192L493.864 124.838L494.14 124.661V84.3339L524.07 104.144V142.461C523.144 142.739 522.46 143.7 522.46 144.851C522.46 145.078 522.493 145.293 522.548 145.495L493.324 164.837L493.048 165.014V207.542L524.632 186.645L555.665 207.175L586.699 186.645L617.732 207.175L648.213 186.999V224.583C647.287 224.861 646.603 225.822 646.603 226.972C646.603 228.337 647.574 229.45 648.765 229.45C649.923 229.463 650.893 228.35 650.893 226.985ZM679.202 206.088L650.265 225.24C650 224.937 649.658 224.709 649.283 224.595V186.278L649.835 185.911L679.213 166.468V206.088H679.202ZM618.25 125.407L648.18 145.217V184.824L618.25 165.014V125.407ZM649.283 145.205L679.213 125.395V165.002L649.283 184.811V145.205ZM679.202 123.941L649.272 143.751V104.144L679.202 84.3339V123.941ZM710.28 63.8035V101.843C709.353 102.121 708.669 103.082 708.669 104.232C708.669 104.308 708.68 104.384 708.692 104.46L680.36 123.208V83.6133L710.28 63.8035ZM649.327 22.7301L679.258 42.5399V82.1469L649.327 62.3371V22.7301ZM618.25 85.636C618.625 85.5222 618.967 85.3073 619.232 84.9913L648.169 104.144V143.751L618.239 123.941V85.636H618.25ZM555.643 123.574L525.713 103.764L539.311 94.7635L555.643 83.9547L585.574 103.764L571.976 112.765L555.643 123.574ZM525.162 65.093C525.537 64.9792 525.879 64.7643 526.143 64.4482L554.53 83.2341L525.151 102.677V65.093H525.162ZM555.092 82.1342L526.695 63.3358C526.739 63.1335 526.783 62.9186 526.783 62.691C526.783 62.4635 526.75 62.2486 526.695 62.0463L555.092 43.2478V82.1342ZM555.092 124.674V164.281L526.695 145.483C526.739 145.28 526.783 145.065 526.783 144.838C526.783 143.687 526.099 142.727 525.173 142.449V104.864L555.092 124.674ZM525.162 147.24C525.537 147.126 525.879 146.899 526.143 146.595L554.53 165.381L525.151 184.824V147.24H525.162ZM586.125 144.471L556.195 164.281V124.674L586.125 104.864V144.471ZM587.228 21.9969L617.158 2.18704V41.794L587.228 61.6038V21.9969ZM586.125 63.0703V102.677L556.195 82.8675V43.2605L586.125 63.0703ZM554.541 42.1606L526.154 60.9465C525.89 60.643 525.548 60.4155 525.173 60.3017V22.7174L554.541 42.1606ZM493.037 2.19969V41.8067L463.107 61.6165V22.0095L493.037 2.19969ZM399.949 63.7909V103.398L370.018 123.208V83.6007L399.949 63.7909ZM338.996 63.7909L368.927 83.6007V123.208L353.961 113.309L338.996 103.41V63.7909ZM368.915 164.281L353.95 154.383L340.518 145.495C340.562 145.293 340.606 145.078 340.606 144.851C340.606 143.7 339.923 142.739 338.996 142.461V104.864L353.961 114.763L368.927 124.661V164.281H368.915ZM306.86 123.208L276.93 103.398V63.7909L306.86 83.6007V123.208ZM245.908 43.2605L275.838 63.0703V102.677L245.908 82.8675V43.2605ZM216.408 103.12L245.357 83.9673L275.287 103.777L261.689 112.778L245.357 123.587L216.408 104.422C216.452 104.22 216.496 104.005 216.496 103.777C216.496 103.55 216.463 103.335 216.408 103.12ZM275.838 144.471L245.908 164.281V124.674L275.838 104.864V144.471ZM307.963 164.281V124.674L337.893 104.864V142.449C336.967 142.727 336.283 143.687 336.283 144.838C336.283 145.065 336.316 145.28 336.372 145.483L307.963 164.281ZM368.915 205.342L338.985 185.532V147.215C339.36 147.101 339.702 146.886 339.967 146.57L353.939 155.824L368.904 165.722V205.342H368.915ZM399.949 184.811L370.018 165.002V125.395L399.949 145.205V184.811ZM430.982 123.208L401.051 103.41V63.7909L430.982 83.6007V123.208ZM432.085 82.1469V42.5272L462.015 22.7174V62.3244L432.085 82.1469ZM493.037 43.2731V82.8675L463.107 102.677V63.0703L493.037 43.2731ZM432.085 205.355V165.748L462.015 145.938V183.522C461.088 183.8 460.405 184.761 460.405 185.911C460.405 186.139 460.438 186.354 460.493 186.556L432.085 205.355ZM493.037 123.941L463.107 143.751V104.144L493.037 84.3339V123.941ZM494.14 43.2605L522.537 62.0463C522.493 62.2486 522.449 62.4635 522.449 62.691C522.449 63.8414 523.133 64.8022 524.059 65.0803V102.665L494.14 82.8675V43.2605ZM494.14 165.748L523.077 146.595C523.342 146.899 523.684 147.126 524.059 147.24V185.557L494.129 205.367V165.748H494.14ZM555.643 205.721L525.713 185.911L555.092 166.468L555.643 166.102L556.195 166.468L585.574 185.911L555.643 205.721ZM587.779 185.911L617.71 166.102L647.64 185.911L617.71 205.721L587.779 185.911Z" fill="url(#paint0_linear_783_1453)" fill-opacity="0.08"/>
</g>
<defs>
<linearGradient id="paint0_linear_783_1453" x1="144.535" y1="860.795" x2="817.325" y2="13.8295" gradientUnits="userSpaceOnUse">
<stop stop-color="#26644E"/>
<stop offset="0.1387" stop-color="#D5D6D7"/>
<stop offset="0.3812" stop-color="#E4E5E6"/>
<stop offset="0.5713" stop-color="#032727"/>
<stop offset="0.7471" stop-color="#072433"/>
<stop offset="0.9274"/>
<stop offset="0.976" stop-color="white"/>
</linearGradient>
</defs>
</svg>
