<svg width="25" height="37" viewBox="0 0 25 37" fill="none" xmlns="http://www.w3.org/2000/svg">
<path d="M20.4044 16.6596C20.4044 16.8392 20.4044 17.0187 20.4044 17.288C20.4044 21.5973 16.8199 25.1883 12.3162 25.1883C9.00735 25.1883 6.06617 23.2132 4.87132 20.3404C4.87132 20.1608 4.87132 20.0711 4.87132 19.8915C4.87132 15.5823 8.45587 11.9913 12.9595 11.9913C16.2684 11.9913 19.1176 13.8766 20.4044 16.6596L20.3125 0.5C9.09925 0.5 0 9.38778 0 20.3404H4.68748V36.5C15.9007 36.5 25 27.6122 25 16.6596H20.4044Z" fill="url(#paint0_linear_7327_1916)"/>
<defs>
<linearGradient id="paint0_linear_7327_1916" x1="3.53558e-07" y1="8" x2="18" y2="28.5" gradientUnits="userSpaceOnUse">
<stop stop-color="#57EA57"/>
<stop offset="1" stop-color="#17B5BE"/>
</linearGradient>
</defs>
</svg>
