<svg width="11" height="12" viewBox="0 0 11 12" fill="none" xmlns="http://www.w3.org/2000/svg">
<path d="M10.2063 6.04008C9.8196 6.42675 9.1796 6.42675 8.79293 6.04008L6.4996 3.74675V10.6667C6.4996 11.2134 6.04626 11.6667 5.4996 11.6667C4.95293 11.6667 4.4996 11.2134 4.4996 10.6667V3.74675L2.20626 6.04008C1.8196 6.42675 1.1796 6.42675 0.79293 6.04008C0.406263 5.65341 0.406263 5.01342 0.79293 4.62675L4.79293 0.626748C4.99293 0.426747 5.24626 0.333415 5.4996 0.333415C5.75293 0.333415 6.00626 0.426747 6.20626 0.626748L10.2063 4.62675C10.5929 5.01342 10.5929 5.65341 10.2063 6.04008Z" fill="#07373A"/>
</svg>
