<svg width="56" height="56" viewBox="0 0 56 56" fill="none" xmlns="http://www.w3.org/2000/svg">
<rect width="56" height="56" rx="28" fill="#12B76A"/>
<path d="M37 26H19C18.45 26 18 26.45 18 27V32.19C18 32.39 18.01 32.59 18.03 32.79C18.23 35.87 20.13 37.77 23.21 37.97C23.41 37.99 23.61 38 23.81 38H32.19C32.39 38 32.59 37.99 32.79 37.97C35.87 37.77 37.77 35.87 37.97 32.79C37.99 32.59 38 32.39 38 32.19V27C38 26.45 37.55 26 37 26ZM24 32.15C24.34 32.65 24.8 33.06 25.33 33.33C25.71 33.51 25.86 33.96 25.67 34.34C25.54 34.6 25.27 34.75 25 34.75C24.89 34.75 24.77 34.72 24.67 34.67C23.89 34.29 23.23 33.7 22.76 32.99C22.36 32.39 22.36 31.61 22.76 31.01C23.23 30.3 23.89 29.71 24.67 29.33C25.04 29.14 25.49 29.29 25.67 29.66C25.86 30.04 25.71 30.49 25.33 30.67C24.8 30.94 24.34 31.35 24 31.85C23.94 31.94 23.94 32.06 24 32.15ZM33.45 32.99C32.97 33.7 32.31 34.29 31.54 34.67C31.43 34.72 31.32 34.75 31.21 34.75C30.93 34.75 30.67 34.6 30.54 34.34C30.35 33.96 30.5 33.51 30.87 33.33C31.41 33.06 31.87 32.65 32.2 32.15C32.27 32.06 32.27 31.94 32.2 31.85C31.87 31.35 31.41 30.94 30.87 30.67C30.5 30.49 30.35 30.04 30.54 29.66C30.72 29.29 31.17 29.14 31.54 29.33C32.31 29.71 32.97 30.3 33.45 31.01C33.85 31.61 33.85 32.39 33.45 32.99Z" fill="white"/>
<path d="M38 23.81V24C38 24.55 37.55 25 37 25L19 25.01C18.45 25.01 18 24.56 18 24.01V23.81C18 23.61 18.01 23.41 18.03 23.21C18.23 20.13 20.13 18.23 23.21 18.03C23.41 18.01 23.61 18 23.81 18H32.19C32.39 18 32.59 18.01 32.79 18.03C35.87 18.23 37.77 20.13 37.97 23.21C37.99 23.41 38 23.61 38 23.81Z" fill="white"/>
</svg>
