<svg width="30" height="31" viewBox="0 0 30 31" fill="none" xmlns="http://www.w3.org/2000/svg">
<path d="M26.4218 14.8988L23.0143 13.9251C21.4799 13.4924 20.0821 12.6733 18.9547 11.5459C17.8274 10.4186 17.0082 9.02079 16.5756 7.4863L15.6018 4.0788C15.5529 3.95959 15.4696 3.85762 15.3625 3.78586C15.2555 3.7141 15.1295 3.67578 15.0006 3.67578C14.8717 3.67578 14.7457 3.7141 14.6387 3.78586C14.5316 3.85762 14.4483 3.95959 14.3993 4.0788L13.4256 7.4863C12.993 9.02079 12.1738 10.4186 11.0465 11.5459C9.91912 12.6733 8.52133 13.4924 6.98684 13.9251L3.57934 14.8988C3.44851 14.9359 3.33335 15.0147 3.25136 15.1232C3.16936 15.2318 3.125 15.364 3.125 15.5001C3.125 15.6361 3.16936 15.7684 3.25136 15.8769C3.33335 15.9854 3.44851 16.0642 3.57934 16.1013L6.98684 17.0751C8.52133 17.5077 9.91912 18.3268 11.0465 19.4542C12.1738 20.5815 12.993 21.9793 13.4256 23.5138L14.3993 26.9213C14.4365 27.0521 14.5153 27.1673 14.6238 27.2493C14.7323 27.3313 14.8646 27.3756 15.0006 27.3756C15.1366 27.3756 15.2689 27.3313 15.3774 27.2493C15.4859 27.1673 15.5647 27.0521 15.6018 26.9213L16.5756 23.5138C17.0082 21.9793 17.8274 20.5815 18.9547 19.4542C20.0821 18.3268 21.4799 17.5077 23.0143 17.0751L26.4218 16.1013C26.5527 16.0642 26.6678 15.9854 26.7498 15.8769C26.8318 15.7684 26.8762 15.6361 26.8762 15.5001C26.8762 15.364 26.8318 15.2318 26.7498 15.1232C26.6678 15.0147 26.5527 14.9359 26.4218 14.8988Z" fill="#12B76A"/>
</svg>
