<svg width="24" height="24" viewBox="0 0 24 24" fill="none" xmlns="http://www.w3.org/2000/svg">
<path d="M15.75 0.75H6.75C4.67925 0.75 3 2.42925 3 4.5V17.25C3 19.3207 4.67925 21 6.75 21H15V18.6667C14.0737 17.7195 13.5 16.4257 13.5 15C13.5 12.105 15.8558 9.75 18.75 9.75C19.005 9.75 19.254 9.77475 19.5 9.81V4.5C19.5 2.42925 17.8208 0.75 15.75 0.75ZM10.635 17.25H6.75C6.33525 17.25 6 16.914 6 16.5C6 16.086 6.33525 15.75 6.75 15.75H10.635C11.0498 15.75 11.385 16.086 11.385 16.5C11.385 16.914 11.0498 17.25 10.635 17.25ZM10.815 13.5H6.75C6.33525 13.5 6 13.164 6 12.75C6 12.336 6.33525 12 6.75 12H10.815C11.2297 12 11.565 12.336 11.565 12.75C11.565 13.164 11.2297 13.5 10.815 13.5ZM13.0875 9.75H6.75C6.33525 9.75 6 9.414 6 9C6 8.586 6.33525 8.25 6.75 8.25H13.0875C13.5023 8.25 13.8375 8.586 13.8375 9C13.8375 9.414 13.5023 9.75 13.0875 9.75ZM15.75 6H6.75C6.33525 6 6 5.664 6 5.25C6 4.836 6.33525 4.5 6.75 4.5H15.75C16.1648 4.5 16.5 4.836 16.5 5.25C16.5 5.664 16.1648 6 15.75 6Z" fill="white"/>
<path d="M18.75 20.25C17.9437 20.25 17.1825 20.0625 16.5 19.7378V22.4985C16.5 23.0978 17.1675 23.4548 17.6663 23.1225L18.75 22.3995L19.8337 23.1225C20.3325 23.4548 21 23.0978 21 22.4985V19.7378C20.3175 20.0625 19.5563 20.25 18.75 20.25Z" fill="white"/>
<path d="M18.75 18.75C20.8211 18.75 22.5 17.0711 22.5 15C22.5 12.9289 20.8211 11.25 18.75 11.25C16.6789 11.25 15 12.9289 15 15C15 17.0711 16.6789 18.75 18.75 18.75Z" fill="white"/>
</svg>
