<svg width="24" height="24" viewBox="0 0 24 24" fill="none" xmlns="http://www.w3.org/2000/svg">
<g clip-path="url(#clip0_721_2449)">
<path d="M12.146 3.21379C12.4085 3.21379 12.626 3.00004 12.626 2.73379V0.645039C12.626 0.382539 12.4123 0.165039 12.146 0.165039C11.8835 0.165039 11.666 0.378789 11.666 0.645039V2.73754C11.666 3.00004 11.8835 3.21379 12.146 3.21379Z" fill="white"/>
<path d="M12.8626 19.5676H11.2726C11.2426 19.5714 11.2126 19.5714 11.1788 19.5676H9.43506V21.1764C9.43506 21.4389 9.58881 21.6564 9.81006 21.7539C9.81381 21.7539 9.81381 21.7576 9.81381 21.7576C9.86256 21.7614 9.90381 21.7764 9.94131 21.8026C9.98631 21.8101 10.0276 21.8139 10.0688 21.8139H14.0551C14.1001 21.8139 14.1413 21.8101 14.1826 21.8026C14.1863 21.7989 14.1901 21.7989 14.1938 21.7989C14.2313 21.7764 14.2688 21.7614 14.3101 21.7576C14.3101 21.7576 14.3138 21.7539 14.3176 21.7539C14.5351 21.6526 14.6888 21.4389 14.6888 21.1764V19.5676H12.9451H12.8626Z" fill="white"/>
<path d="M16.6048 6.40891C15.3561 5.18266 13.6911 4.5264 11.9361 4.5564C8.54985 4.6239 5.77485 7.29765 5.6211 10.6464C5.53485 12.4239 6.2136 14.1714 7.47735 15.4352C8.69235 16.6539 8.95484 17.0814 8.95484 18.8289V18.8327H9.06735H9.68985H10.7736L9.46485 13.6352C9.4236 13.4852 9.48734 13.3277 9.61485 13.2414C9.7461 13.1514 9.9186 13.1589 10.0423 13.2527L10.8823 13.8902L11.7748 13.2489C11.8986 13.1552 12.0673 13.1552 12.1948 13.2414L13.1773 13.9014L14.1073 13.2452C14.2348 13.1552 14.4036 13.1552 14.5273 13.2452C14.6548 13.3314 14.7148 13.4889 14.6773 13.6352L13.3686 18.8327H14.4486H15.1836C15.1911 17.1827 15.4086 16.6914 16.6648 15.4352C17.8648 14.2314 18.5286 12.6377 18.5286 10.9464C18.5173 9.22891 17.8386 7.61641 16.6048 6.40891Z" fill="white"/>
<path d="M12.6037 18.8326L13.7137 14.4151L13.3837 14.6476C13.26 14.7339 13.095 14.7376 12.9675 14.6514L11.9887 13.9951L11.0887 14.6439C10.9612 14.7414 10.785 14.7376 10.6537 14.6401L10.4287 14.4714L11.5275 18.8326H12.6037Z" fill="white"/>
<path d="M10.7023 23.2088C10.8411 23.3476 10.9986 23.4751 11.1748 23.5801C11.4373 23.7338 11.7411 23.8351 12.0636 23.8351C12.8211 23.8351 13.4548 23.2951 13.7736 22.7701C13.8186 22.6951 13.8598 22.6201 13.8936 22.5488H10.2373C10.3348 22.7663 10.4961 23.0026 10.7023 23.2088Z" fill="white"/>
<path d="M5.22389 4.5713C5.31389 4.6613 5.43389 4.71005 5.56139 4.71005C5.68889 4.71005 5.81264 4.6613 5.90264 4.56755C5.99264 4.47755 6.04139 4.35755 6.04139 4.23005C6.04139 4.10255 5.98889 3.98255 5.89889 3.89255L4.30139 2.3138C4.21139 2.2238 4.09139 2.17505 3.96389 2.17505C3.83639 2.17505 3.71264 2.2238 3.62264 2.31755C3.53264 2.40755 3.48389 2.52755 3.48389 2.65505C3.48389 2.78255 3.53639 2.90255 3.62639 2.99255L5.22389 4.5713Z" fill="white"/>
<path d="M2.7375 10.1851H0.48C0.2175 10.1851 0 10.3988 0 10.6651C0 10.9313 0.21375 11.1451 0.48 11.1451H2.7375C3 11.1451 3.2175 10.9313 3.2175 10.6651C3.2175 10.3988 3 10.1851 2.7375 10.1851Z" fill="white"/>
<path d="M5.3402 16.71C5.2127 16.71 5.0927 16.7587 5.0027 16.8487L3.4052 18.4275C3.3152 18.5175 3.2627 18.6375 3.2627 18.765C3.2627 18.8925 3.31145 19.0125 3.40145 19.1025C3.49145 19.1925 3.61145 19.245 3.7427 19.245C3.8702 19.245 3.9902 19.1962 4.0802 19.1062L5.6777 17.5275C5.7677 17.4375 5.8202 17.3175 5.8202 17.19C5.8202 17.0625 5.77145 16.9425 5.68145 16.8525C5.59145 16.7625 5.4677 16.71 5.3402 16.71Z" fill="white"/>
<path d="M18.7765 17.0701C18.6865 16.9801 18.5665 16.9314 18.439 16.9314C18.3115 16.9314 18.1877 16.9801 18.0977 17.0739C18.0077 17.1639 17.959 17.2839 17.959 17.4114C17.959 17.5389 18.0115 17.6589 18.1015 17.7489L19.699 19.3276C19.789 19.4176 19.909 19.4664 20.0365 19.4664C20.164 19.4664 20.2877 19.4176 20.3777 19.3239C20.4677 19.2339 20.5165 19.1139 20.5165 18.9864C20.5165 18.8589 20.464 18.7389 20.374 18.6489L18.7765 17.0701Z" fill="white"/>
<path d="M23.5202 10.4963H21.2627C21.0002 10.4963 20.7827 10.7101 20.7827 10.9763C20.7827 11.2426 20.9965 11.4563 21.2627 11.4563H23.5202C23.7827 11.4563 24.0002 11.2426 24.0002 10.9763C24.0002 10.7101 23.7865 10.4963 23.5202 10.4963Z" fill="white"/>
<path d="M20.2577 2.39258C20.1302 2.39258 20.0102 2.44133 19.9202 2.53133L18.3227 4.11008C18.1352 4.29383 18.1352 4.59758 18.319 4.78508C18.409 4.87508 18.529 4.92758 18.6602 4.92758C18.7877 4.92758 18.9077 4.87883 18.9977 4.78883L20.5952 3.21008C20.6852 3.12008 20.7377 3.00008 20.7377 2.87258C20.7377 2.74508 20.689 2.62508 20.599 2.53508C20.509 2.44133 20.3852 2.39258 20.2577 2.39258Z" fill="white"/>
</g>
<defs>
<clipPath id="clip0_721_2449">
<rect width="24" height="24" fill="white"/>
</clipPath>
</defs>
</svg>
